<?xml version="1.0" encoding="UTF-8"?>
<svg viewBox="0 0 600 600" xmlns="http://www.w3.org/2000/svg">
  <!-- Background -->
  <defs>
    <radialGradient id="backgroundGradient" cx="50%" cy="50%" r="70%" fx="50%" fy="50%">
      <stop offset="0%" stop-color="#550000" />
      <stop offset="100%" stop-color="#220000" />
    </radialGradient>
    
    <linearGradient id="fireGradient" x1="0%" y1="0%" x2="0%" y2="100%">
      <stop offset="0%" stop-color="#FF4500" />
      <stop offset="50%" stop-color="#FF0000" />
      <stop offset="100%" stop-color="#990000" />
    </linearGradient>
    
    <filter id="glow" x="-50%" y="-50%" width="200%" height="200%">
      <feGaussianBlur stdDeviation="10" result="blur" />
      <feComposite in="SourceGraphic" in2="blur" operator="over" />
    </filter>
    
    <clipPath id="maskCircle">
      <circle cx="300" cy="300" r="250" />
    </clipPath>
  </defs>
  
  <!-- Main Background -->
  <rect width="600" height="600" fill="url(#backgroundGradient)" />
  
  <!-- Pulsing Energy Circle -->
  <circle cx="300" cy="300" r="250" fill="#550000" opacity="0.3">
    <animate attributeName="r" values="250;255;250" dur="4s" repeatCount="indefinite"/>
    <animate attributeName="opacity" values="0.3;0.4;0.3" dur="4s" repeatCount="indefinite"/>
  </circle>
  
  <!-- Blood Moon -->
  <circle cx="300" cy="150" r="80" fill="#CC0000" opacity="0.8" filter="url(#glow)">
    <animate attributeName="r" values="80;85;80" dur="5s" repeatCount="indefinite"/>
  </circle>
  
  <!-- Crown of Power -->
  <g transform="translate(300, 170) scale(0.8)" filter="url(#glow)">
    <path d="M-80,0 L-50,-50 L-20,0 L10,-70 L40,0 L70,-50 L100,0 L80,30 L-60,30 Z" 
          fill="#FFD700" stroke="#FF6B6B" stroke-width="2">
      <animate attributeName="opacity" values="1;0.8;1" dur="3s" repeatCount="indefinite"/>
    </path>
  </g>
  
  <!-- Sword -->
  <g filter="url(#glow)">
    <!-- Sword Handle -->
    <rect x="285" y="280" width="30" height="70" rx="5" ry="5" fill="#8B4513" stroke="#FFD700" stroke-width="2" />
    <ellipse cx="300" cy="350" rx="20" ry="10" fill="#8B4513" stroke="#FFD700" stroke-width="2" />
    
    <!-- Sword Blade -->
    <path d="M300,280 L300,100 M280,120 L320,120" 
          stroke="#FF6B6B" stroke-width="10" stroke-linecap="round">
      <animateTransform attributeName="transform" type="rotate" values="0 300 300; 5 300 300; 0 300 300; -5 300 300; 0 300 300" dur="6s" repeatCount="indefinite"/>
    </path>
    
    <!-- Sword Glow -->
    <path d="M300,280 L300,100" 
          stroke="#FFCCCC" stroke-width="5" stroke-linecap="round" opacity="0.7">
      <animate attributeName="opacity" values="0.7;0.3;0.7" dur="2s" repeatCount="indefinite"/>
      <animateTransform attributeName="transform" type="rotate" values="0 300 300; 5 300 300; 0 300 300; -5 300 300; 0 300 300" dur="6s" repeatCount="indefinite"/>
    </path>
  </g>
  
  <!-- Fire -->
  <g clip-path="url(#maskCircle)" filter="url(#glow)">
    <!-- Base Flame -->
    <path d="M200,450 Q250,350 300,400 Q350,350 400,450" 
          fill="url(#fireGradient)" opacity="0.9">
      <animate attributeName="d" 
               values="M200,450 Q250,350 300,400 Q350,350 400,450;
                      M200,450 Q260,340 300,390 Q340,340 400,450;
                      M200,450 Q250,350 300,400 Q350,350 400,450" 
               dur="3s" repeatCount="indefinite"/>
    </path>
    
    <!-- Middle Flame -->
    <path d="M220,450 Q280,330 300,360 Q320,330 380,450" 
          fill="#FF7700" opacity="0.8">
      <animate attributeName="d" 
               values="M220,450 Q280,330 300,360 Q320,330 380,450;
                      M220,450 Q270,320 300,350 Q330,320 380,450;
                      M220,450 Q280,330 300,360 Q320,330 380,450" 
               dur="2.5s" repeatCount="indefinite"/>
    </path>
    
    <!-- Inner Flame -->
    <path d="M240,450 Q290,350 300,320 Q310,350 360,450" 
          fill="#FFCC00" opacity="0.7">
      <animate attributeName="d" 
               values="M240,450 Q290,350 300,320 Q310,350 360,450;
                      M240,450 Q295,340 300,310 Q305,340 360,450;
                      M240,450 Q290,350 300,320 Q310,350 360,450" 
               dur="2s" repeatCount="indefinite"/>
    </path>
    
    <!-- Spark Particles -->
    <g>
      <circle cx="290" cy="350" r="3" fill="#FFFF00">
        <animate attributeName="cy" values="350;300;250" dur="3s" repeatCount="indefinite"/>
        <animate attributeName="opacity" values="1;0" dur="3s" repeatCount="indefinite"/>
      </circle>
      <circle cx="310" cy="360" r="2" fill="#FFFF00">
        <animate attributeName="cy" values="360;310;260" dur="2.5s" repeatCount="indefinite"/>
        <animate attributeName="opacity" values="1;0" dur="2.5s" repeatCount="indefinite"/>
      </circle>
      <circle cx="280" cy="370" r="2" fill="#FFFF00">
        <animate attributeName="cy" values="370;320;270" dur="3.5s" repeatCount="indefinite"/>
        <animate attributeName="opacity" values="1;0" dur="3.5s" repeatCount="indefinite"/>
      </circle>
    </g>
  </g>
  
  <!-- Warrior Silhouette -->
  <path d="M300,380 C310,380 320,365 320,350 L330,270 C330,260 320,250 300,250 C280,250 270,260 270,270 L280,350 C280,365 290,380 300,380 Z
           M300,250 C310,250 320,240 320,230 C320,215 310,200 300,200 C290,200 280,215 280,230 C280,240 290,250 300,250 Z"
        fill="#000000" opacity="0.7" />
  
  <!-- Title -->
  <text x="300" y="520" font-size="24" text-anchor="middle" fill="#FF6B6B" font-family="serif" filter="url(#glow)">RED ESSENCE</text>
  <text x="300" y="550" font-size="16" text-anchor="middle" fill="#FF6B6B" font-family="sans-serif">POWER AND DIVINITY</text>
  
  <!-- Tribal Markings -->
  <g stroke="#FF6B6B" stroke-width="2" opacity="0.5">
    <path d="M200,480 L250,480" />
    <path d="M350,480 L400,480" />
    <path d="M180,500 L230,500" />
    <path d="M370,500 L420,500" />
    <path d="M160,490 L160,470" />
    <path d="M440,490 L440,470" />
  </g>
</svg>
