<?xml version="1.0" encoding="UTF-8"?>
<svg viewBox="0 0 800 600" xmlns="http://www.w3.org/2000/svg">
  <!-- Definitions -->
  <defs>
    <!-- Gradients for earth tones -->
    <linearGradient id="soilGradient" x1="0%" y1="0%" x2="100%" y2="100%">
      <stop offset="0%" stop-color="#8B4513" />
      <stop offset="50%" stop-color="#A0522D" />
      <stop offset="100%" stop-color="#6B4226" />
    </linearGradient>
    
    <linearGradient id="skinGradient" x1="0%" y1="0%" x2="100%" y2="100%">
      <stop offset="0%" stop-color="#D2B48C" />
      <stop offset="100%" stop-color="#BC8F8F" />
    </linearGradient>
    
    <!-- Texture patterns -->
    <pattern id="crackedSoil" width="200" height="200" patternUnits="userSpaceOnUse">
      <rect width="200" height="200" fill="url(#soilGradient)" />
      
      <!-- Cracks -->
      <path d="M20,20 Q60,50 40,100 Q30,130 70,160 Q100,170 120,140" fill="none" stroke="#5E3A1C" stroke-width="1.5" />
      <path d="M80,10 Q100,60 150,50 Q170,70 160,120" fill="none" stroke="#5E3A1C" stroke-width="2" />
      <path d="M140,80 Q170,110 190,90" fill="none" stroke="#5E3A1C" stroke-width="1" />
      <path d="M0,120 Q40,130 30,160 Q50,180 90,170" fill="none" stroke="#5E3A1C" stroke-width="1.5" />
      <path d="M110,190 Q130,170 180,190" fill="none" stroke="#5E3A1C" stroke-width="1" />
    </pattern>
    
    <pattern id="skinTexture" width="100" height="100" patternUnits="userSpaceOnUse">
      <rect width="100" height="100" fill="url(#skinGradient)" />
      <circle cx="30" cy="30" r="1" fill="#A87D5F" opacity="0.3" />
      <circle cx="70" cy="40" r="1.5" fill="#A87D5F" opacity="0.2" />
      <circle cx="20" cy="80" r="1" fill="#A87D5F" opacity="0.3" />
      <circle cx="60" cy="70" r="1.5" fill="#A87D5F" opacity="0.2" />
      <circle cx="90" cy="10" r="1" fill="#A87D5F" opacity="0.3" />
    </pattern>
    
    <!-- Filters -->
    <filter id="roughTexture" x="0%" y="0%" width="100%" height="100%">
      <feTurbulence type="fractalNoise" baseFrequency="0.04" numOctaves="5" result="noise" />
      <feDisplacementMap in="SourceGraphic" in2="noise" scale="5" xChannelSelector="R" yChannelSelector="G" />
    </filter>
  </defs>
  
  <!-- Background with textured soil -->
  <rect width="800" height="600" fill="url(#crackedSoil)" />
  
  <!-- Heartbeat line across background -->
  <g transform="translate(0, 300)">
    <path d="M0,0 L100,0 L120,-50 L140,50 L160,-10 L180,0 L800,0" 
          fill="none" stroke="#D2B48C" stroke-width="4" stroke-opacity="0.6" 
          filter="url(#roughTexture)" />
  </g>
  
  <!-- Bare footprint trail -->
  <g transform="translate(100, 150)" opacity="0.8">
    <!-- Left foot -->
    <g transform="rotate(-15)">
      <path d="M0,0 
               Q10,-10 20,-5 
               Q25,0 30,-5 
               Q35,-10 40,-5 
               Q45,0 50,-5 
               Q60,-5 55,5 
               Q50,20 40,30 
               Q30,40 20,30 
               Q10,20 0,0" 
            fill="url(#skinTexture)" />
      
      <!-- Toes -->
      <circle cx="20" cy="-5" r="5" fill="url(#skinTexture)" stroke="#A87D5F" stroke-width="0.5" />
      <circle cx="30" cy="-5" r="5" fill="url(#skinTexture)" stroke="#A87D5F" stroke-width="0.5" />
      <circle cx="40" cy="-5" r="5" fill="url(#skinTexture)" stroke="#A87D5F" stroke-width="0.5" />
      <circle cx="50" cy="-5" r="5" fill="url(#skinTexture)" stroke="#A87D5F" stroke-width="0.5" />
    </g>
    
    <!-- Right foot -->
    <g transform="translate(80, 50) rotate(15)">
      <path d="M0,0 
               Q10,-10 20,-5 
               Q25,0 30,-5 
               Q35,-10 40,-5 
               Q45,0 50,-5 
               Q60,-5 55,5 
               Q50,20 40,30 
               Q30,40 20,30 
               Q10,20 0,0" 
            fill="url(#skinTexture)" />
      
      <!-- Toes -->
      <circle cx="20" cy="-5" r="5" fill="url(#skinTexture)" stroke="#A87D5F" stroke-width="0.5" />
      <circle cx="30" cy="-5" r="5" fill="url(#skinTexture)" stroke="#A87D5F" stroke-width="0.5" />
      <circle cx="40" cy="-5" r="5" fill="url(#skinTexture)" stroke="#A87D5F" stroke-width="0.5" />
      <circle cx="50" cy="-5" r="5" fill="url(#skinTexture)" stroke="#A87D5F" stroke-width="0.5" />
    </g>
    
    <!-- Left foot 2 -->
    <g transform="translate(160, 80) rotate(-15)">
      <path d="M0,0 
               Q10,-10 20,-5 
               Q25,0 30,-5 
               Q35,-10 40,-5 
               Q45,0 50,-5 
               Q60,-5 55,5 
               Q50,20 40,30 
               Q30,40 20,30 
               Q10,20 0,0" 
            fill="url(#skinTexture)" opacity="0.9" />
      
      <!-- Toes -->
      <circle cx="20" cy="-5" r="5" fill="url(#skinTexture)" stroke="#A87D5F" stroke-width="0.5" />
      <circle cx="30" cy="-5" r="5" fill="url(#skinTexture)" stroke="#A87D5F" stroke-width="0.5" />
      <circle cx="40" cy="-5" r="5" fill="url(#skinTexture)" stroke="#A87D5F" stroke-width="0.5" />
      <circle cx="50" cy="-5" r="5" fill="url(#skinTexture)" stroke="#A87D5F" stroke-width="0.5" />
    </g>
  </g>
  
  <!-- Animal tracks -->
  <g transform="translate(500, 200)" opacity="0.7">
    <!-- Deer tracks -->
    <g>
      <path d="M0,0 
               C-5,10 0,20 5,10 
               C10,20 15,10 10,0 
               C5,-5 5,-5 0,0 Z" 
            fill="#6B4226" />
      
      <path d="M30,10 
               C25,20 30,30 35,20 
               C40,30 45,20 40,10 
               C35,5 35,5 30,10 Z" 
            fill="#6B4226" />
      
      <path d="M60,0 
               C55,10 60,20 65,10 
               C70,20 75,10 70,0 
               C65,-5 65,-5 60,0 Z" 
            fill="#6B4226" />
    </g>
    
    <!-- Bird tracks -->
    <g transform="translate(0, 80)">
      <path d="M0,0 L10,10 M0,0 L10,-10 M0,0 L-10,0" stroke="#6B4226" stroke-width="2" />
      <path d="M40,0 L50,10 M40,0 L50,-10 M40,0 L30,0" stroke="#6B4226" stroke-width="2" />
      <path d="M80,0 L90,10 M80,0 L90,-10 M80,0 L70,0" stroke="#6B4226" stroke-width="2" />
    </g>
    
    <!-- Wolf/Dog paw -->
    <g transform="translate(40, 40)">
      <circle cx="0" cy="0" r="10" fill="#6B4226" />
      <circle cx="-8" cy="-12" r="5" fill="#6B4226" />
      <circle cx="0" cy="-15" r="5" fill="#6B4226" />
      <circle cx="8" cy="-12" r="5" fill="#6B4226" />
    </g>
  </g>
  
  <!-- Hand print -->
  <g transform="translate(400, 400) rotate(-30)">
    <path d="M0,0 
             C-5,-30 -15,-50 -20,-80 
             C-22,-90 -15,-90 -13,-80 
             C-10,-60 -5,-50 0,-70 
             C5,-90 12,-90 15,-70 
             C18,-50 20,-60 25,-80 
             C30,-90 35,-85 30,-70 
             C25,-50 20,-40 15,-60 
             C12,-70 5,-70 0,0" 
          fill="#A0522D" opacity="0.8" />
    
    <path d="M-20,0 
             C-30,10 -40,30 -30,50 
             C-20,60 -10,40 0,50 
             C10,60 20,60 30,50 
             C40,30 30,10 20,0" 
          fill="#A0522D" opacity="0.8" />
  </g>
  
  <!-- Tactile elements resembling skin and texture -->
  <g opacity="0.3">
    <circle cx="700" cy="100" r="60" fill="url(#skinTexture)" />
    <circle cx="90" cy="450" r="70" fill="url(#skinTexture)" />
    <circle cx="650" cy="500" r="80" fill="url(#skinTexture)" />
  </g>
  
  <!-- Fire element -->
  <g transform="translate(650, 350)">
    <path d="M0,0 
             C-20,-30 -10,-60 0,-40 
             C10,-60 20,-30 0,0" 
          fill="#CD5C5C" opacity="0.6" />
    
    <path d="M0,-10 
             C-10,-30 -5,-50 0,-30 
             C5,-50 10,-30 0,-10" 
          fill="#F4A460" opacity="0.7" />
  </g>
  
  <!-- Visual elements resembling sweat or water droplets -->
  <g>
    <circle cx="200" cy="50" r="3" fill="#D2B48C" opacity="0.7" />
    <circle cx="210" cy="70" r="2" fill="#D2B48C" opacity="0.7" />
    <circle cx="190" cy="60" r="2.5" fill="#D2B48C" opacity="0.7" />
    
    <circle cx="500" cy="350" r="3" fill="#D2B48C" opacity="0.7" />
    <circle cx="510" cy="370" r="2" fill="#D2B48C" opacity="0.7" />
    <circle cx="490" cy="360" r="2.5" fill="#D2B48C" opacity="0.7" />
    
    <circle cx="750" cy="250" r="3" fill="#D2B48C" opacity="0.7" />
    <circle cx="760" cy="270" r="2" fill="#D2B48C" opacity="0.7" />
    <circle cx="740" cy="260" r="2.5" fill="#D2B48C" opacity="0.7" />
  </g>
  
  <!-- Title element -->
  <g transform="translate(400, 550)">
    <text x="0" y="0" font-family="sans-serif" font-size="24" font-weight="bold" text-anchor="middle" fill="#D2B48C">BEIGE PRACTICES</text>
    <text x="0" y="30" font-family="sans-serif" font-size="16" font-style="italic" text-anchor="middle" fill="#D2B48C">The Body's Ancient Alphabet</text>
  </g>
</svg>
