<svg xmlns="http://www.w3.org/2000/svg" viewBox="0 0 400 400">
  <!-- Background: Psychedelic circus gradient -->
  <defs>
    <linearGradient id="coralGradient" x1="0%" y1="0%" x2="100%" y2="100%">
      <stop offset="0%" style="stop-color:#f472b6;stop-opacity:0.3" />
      <stop offset="100%" style="stop-color:#db2777;stop-opacity:0.6" />
    </linearGradient>
    
    <pattern id="circusPattern" patternUnits="userSpaceOnUse" width="60" height="60" patternTransform="rotate(45)">
      <rect width="60" height="60" fill="none" />
      <path d="M0,0 L60,60 M60,0 L0,60" stroke="#db2777" stroke-width="2" stroke-opacity="0.2" />
    </pattern>
    
    <filter id="coralGlow" x="-50%" y="-50%" width="200%" height="200%">
      <feGaussianBlur stdDeviation="5" result="blur" />
      <feComposite in="SourceGraphic" in2="blur" operator="over" />
    </filter>
    
    <filter id="paradigmBreak" x="-10%" y="-10%" width="120%" height="120%">
      <feTurbulence type="fractalNoise" baseFrequency="0.05" numOctaves="2" result="noise" />
      <feDisplacementMap in="SourceGraphic" in2="noise" scale="7" xChannelSelector="R" yChannelSelector="G" />
    </filter>
  </defs>
  
  <!-- Background -->
  <rect x="0" y="0" width="400" height="400" fill="white" />
  
  <!-- Circus tent structure -->
  <polygon points="50,300 350,300 320,100 80,100" fill="url(#coralGradient)" />
  <polygon points="50,300 350,300 320,100 80,100" fill="url(#circusPattern)" />
  
  <!-- Tent poles and structure -->
  <line x1="200" y1="50" x2="200" y2="100" stroke="#9d174d" stroke-width="8" />
  <path d="M80,100 L200,50 L320,100" fill="none" stroke="#9d174d" stroke-width="5" />
  <path d="M140,100 L200,70 L260,100" fill="none" stroke="#9d174d" stroke-width="3" />
  <!-- Tent stripes -->
  <path d="M80,100 L90,300 M320,100 L310,300" fill="none" stroke="#9d174d" stroke-width="3" stroke-dasharray="15,10" />
  <path d="M140,100 L160,300 M260,100 L240,300" fill="none" stroke="#9d174d" stroke-width="3" stroke-dasharray="15,10" />
  <path d="M200,100 L200,300" fill="none" stroke="#9d174d" stroke-width="3" stroke-dasharray="15,10" />
  
  <!-- Quadrant 1: Jester Hat (Top Left) -->
  <g transform="translate(125, 150)" filter="url(#coralGlow)">
    <circle cx="0" cy="0" r="40" fill="#f9a8d4" fill-opacity="0.3" />
    
    <!-- Jester hat base -->
    <path d="M-20,10 C-25,-10 0,-25 0,-25 C0,-25 25,-10 20,10 Z" fill="#ec4899" stroke="#9d174d" stroke-width="1.5" />
    
    <!-- Jester hat points -->
    <path d="M-20,10 C-15,0 -25,-15 -30,-15 C-25,-5 -25,5 -20,10" fill="#f472b6" stroke="#9d174d" stroke-width="1" />
    <path d="M20,10 C15,0 25,-15 30,-15 C25,-5 25,5 20,10" fill="#f472b6" stroke="#9d174d" stroke-width="1" />
    <path d="M0,-25 C-5,-30 -5,-40 0,-40 C5,-40 5,-30 0,-25" fill="#f472b6" stroke="#9d174d" stroke-width="1" />
    
    <!-- Bells -->
    <circle cx="-30" cy="-15" r="5" fill="#fdf2f8" stroke="#9d174d" stroke-width="1" />
    <circle cx="30" cy="-15" r="5" fill="#fdf2f8" stroke="#9d174d" stroke-width="1" />
    <circle cx="0" cy="-40" r="5" fill="#fdf2f8" stroke="#9d174d" stroke-width="1" />
    
    <!-- Face -->
    <path d="M-10,15 C-5,20 5,20 10,15" stroke="#9d174d" stroke-width="1.5" fill="none" />
    <circle cx="-8" cy="5" r="3" fill="#9d174d" />
    <circle cx="8" cy="5" r="3" fill="#9d174d" />
    
    <!-- Paradigm-breaking effect -->
    <g filter="url(#paradigmBreak)">
      <path d="M-15,0 L15,0 M0,-15 L0,15" stroke="#f0abfc" stroke-width="2" stroke-opacity="0.7" />
    </g>
  </g>
  
  <!-- Quadrant 2: Shadow Puppet Theater (Top Right) -->
  <g transform="translate(275, 150)" filter="url(#coralGlow)">
    <circle cx="0" cy="0" r="40" fill="#f9a8d4" fill-opacity="0.3" />
    
    <!-- Theater frame -->
    <rect x="-30" y="-25" width="60" height="50" rx="5" ry="5" fill="#fbcfe8" stroke="#9d174d" stroke-width="2" />
    
    <!-- Curtains -->
    <path d="M-30,-25 Q-20,-15 -30,25" fill="none" stroke="#db2777" stroke-width="3" />
    <path d="M30,-25 Q20,-15 30,25" fill="none" stroke="#db2777" stroke-width="3" />
    
    <!-- Shadow and light hands -->
    <g filter="url(#paradigmBreak)">
      <path d="M-15,0 C-20,-10 -10,-15 -5,-10 C0,-15 5,-10 10,-15 C15,-10 10,-5 10,0" fill="#9d174d" opacity="0.8" />
      <path d="M-10,10 C-15,0 -5,5 0,0 C5,5 10,0 15,10" fill="#f472b6" opacity="0.8" />
    </g>
    
    <!-- Light source -->
    <circle cx="0" cy="-40" r="8" fill="#fed7aa" stroke="#f97316" stroke-width="1">
      <animate attributeName="opacity" values="0.7;1;0.7" dur="3s" repeatCount="indefinite" />
    </circle>
    <path d="M-20,-15 L0,-40 L20,-15" fill="none" stroke="#fed7aa" stroke-width="1" stroke-opacity="0.5" />
  </g>
  
  <!-- Quadrant 3: Prism Cracking Open (Bottom Left) -->
  <g transform="translate(125, 250)" filter="url(#coralGlow)">
    <circle cx="0" cy="0" r="40" fill="#f9a8d4" fill-opacity="0.3" />
    
    <!-- Prism -->
    <g filter="url(#paradigmBreak)">
      <!-- Cracking prism -->
      <path d="M-20,-15 L20,-15 L0,25 Z" fill="none" stroke="#9d174d" stroke-width="2" />
      <path d="M-10,-15 L-5,5 L0,25" fill="none" stroke="#9d174d" stroke-width="1.5" stroke-dasharray="5,2" />
      <path d="M10,-15 L5,5 L0,25" fill="none" stroke="#9d174d" stroke-width="1.5" stroke-dasharray="5,2" />
      
      <!-- Rainbow beams -->
      <path d="M-20,-15 L-40,0" stroke="#f43f5e" stroke-width="3" />
      <path d="M-15,-5 L-35,10" stroke="#fb7185" stroke-width="3" />
      <path d="M-10,5 L-30,20" stroke="#fdba74" stroke-width="3" />
      <path d="M-5,15 L-25,30" stroke="#fcd34d" stroke-width="3" />
      
      <path d="M20,-15 L40,0" stroke="#4ade80" stroke-width="3" />
      <path d="M15,-5 L35,10" stroke="#2dd4bf" stroke-width="3" />
      <path d="M10,5 L30,20" stroke="#38bdf8" stroke-width="3" />
      <path d="M5,15 L25,30" stroke="#818cf8" stroke-width="3" />
    </g>
    
    <!-- Light beam entering -->
    <path d="M0,-40 L0,-15" stroke="#fdf2f8" stroke-width="4" />
  </g>
  
  <!-- Quadrant 4: Kaleidoscopic Mask (Bottom Right) -->
  <g transform="translate(275, 250)" filter="url(#coralGlow)">
    <circle cx="0" cy="0" r="40" fill="#f9a8d4" fill-opacity="0.3" />
    
    <!-- Mask base -->
    <path d="M-20,-15 C-25,0 -25,15 -10,25 C-5,30 5,30 10,25 C25,15 25,0 20,-15 C15,-25 -15,-25 -20,-15 Z" 
          fill="#f0abfc" stroke="#9d174d" stroke-width="1.5" />
    
    <!-- Eyes -->
    <g filter="url(#paradigmBreak)">
      <!-- Left eye - star shape -->
      <path d="M-10,0 L-14,-10 L-10,-15 L-6,-10 L-10,0 L-20,0 L-15,5 L-20,10 L-10,5 L0,10 L-5,5 L0,0 Z" fill="#fdf2f8" stroke="#9d174d" stroke-width="0.5" />
      
      <!-- Right eye - spiral -->
      <path d="M10,0 C15,-5 20,0 15,5 C10,10 5,5 10,0" fill="#fdf2f8" stroke="#9d174d" stroke-width="0.5" />
      <circle cx="10" cy="0" r="10" fill="none" stroke="#9d174d" stroke-width="0.5" stroke-dasharray="3,3" />
    </g>
    
    <!-- Mouth - breaking pattern -->
    <path d="M-15,15 C-10,25 10,25 15,15" fill="none" stroke="#9d174d" stroke-width="1.5" />
    <path d="M-15,15 L-5,10 L5,20 L15,15" fill="none" stroke="#f472b6" stroke-width="1" stroke-dasharray="2,2" />
    
    <!-- Decorative elements -->
    <circle cx="-25" cy="-5" r="3" fill="#fdf2f8" stroke="#9d174d" stroke-width="0.5" />
    <circle cx="25" cy="-5" r="3" fill="#fdf2f8" stroke="#9d174d" stroke-width="0.5" />
    <path d="M-15,-20 C-10,-30 10,-30 15,-20" fill="none" stroke="#f472b6" stroke-width="1" />
  </g>
  
  <!-- Rule-breaking central element -->
  <g transform="translate(200, 200)" filter="url(#coralGlow)">
    <!-- Central circus ring -->
    <circle cx="0" cy="0" r="30" fill="none" stroke="#db2777" stroke-width="3" stroke-dasharray="10,5" />
    
    <!-- Breaking out of boundaries -->
    <g filter="url(#paradigmBreak)">
      <!-- Squiggly lines breaking out -->
      <path d="M0,0 C10,-10 20,10 30,0 C40,-10 50,0 60,0" stroke="#f472b6" stroke-width="3" />
      <path d="M0,0 C-10,10 -20,-10 -30,0 C-40,10 -50,0 -60,0" stroke="#f472b6" stroke-width="3" />
      <path d="M0,0 C-10,-10 10,-20 0,-30 C-10,-40 0,-50 0,-60" stroke="#f472b6" stroke-width="3" />
      <path d="M0,0 C10,10 -10,20 0,30 C10,40 0,50 0,60" stroke="#f472b6" stroke-width="3" />
      
      <!-- Spiral in center -->
      <path d="M0,0 C5,5 -5,10 -10,5 C-15,0 -10,-10 0,-10 C10,-10 15,0 10,10 C5,15 -5,15 -10,10" 
            fill="none" stroke="#f472b6" stroke-width="2" />
    </g>
    
    <!-- Explosive center -->
    <circle cx="0" cy="0" r="10" fill="#f9a8d4">
      <animate attributeName="r" values="10;15;10" dur="3s" repeatCount="indefinite" />
    </circle>
    <path d="M-7,-7 L7,7 M-7,7 L7,-7" stroke="#ffffff" stroke-width="2" />
  </g>
  
  <!-- Border-breaking elements -->
  <g filter="url(#paradigmBreak)" opacity="0.7">
    <path d="M50,150 C25,175 25,225 50,250" stroke="#f43f5e" stroke-width="3" fill="none" />
    <path d="M350,150 C375,175 375,225 350,250" stroke="#f43f5e" stroke-width="3" fill="none" />
    <path d="M150,50 C175,25 225,25 250,50" stroke="#f43f5e" stroke-width="3" fill="none" />
    <path d="M150,350 C175,375 225,375 250,350" stroke="#f43f5e" stroke-width="3" fill="none" />
  </g>
  
  <!-- Title plate -->
  <g filter="url(#paradigmBreak)">
    <rect x="150" y="35" width="100" height="25" rx="12" ry="12" fill="#fdf2f8" fill-opacity="0.7" stroke="#db2777" stroke-width="1" />
    <text x="200" y="53" font-family="Arial" font-size="12" text-anchor="middle" fill="#be185d" font-weight="bold">CORAL STAGE</text>
  </g>
</svg>
