<?xml version="1.0" encoding="UTF-8"?>
<svg viewBox="0 0 800 600" xmlns="http://www.w3.org/2000/svg">
  <!-- Definitions -->
  <defs>
    <!-- Gradients for purple hues -->
    <linearGradient id="skyGradient" x1="0%" y1="0%" x2="0%" y2="100%">
      <stop offset="0%" stop-color="#191231" />
      <stop offset="70%" stop-color="#4B0082" />
      <stop offset="100%" stop-color="#663399" />
    </linearGradient>
    
    <linearGradient id="moonGlow" x1="0%" y1="0%" x2="100%" y2="100%">
      <stop offset="0%" stop-color="#E6E6FA" />
      <stop offset="100%" stop-color="#D8BFD8" />
    </linearGradient>
    
    <radialGradient id="fireGlow" cx="50%" cy="50%" r="50%" fx="50%" fy="50%">
      <stop offset="0%" stop-color="#FF8C00" />
      <stop offset="50%" stop-color="#FF4500" />
      <stop offset="100%" stop-color="#8B0000" stop-opacity="0" />
    </radialGradient>
    
    <!-- Filters -->
    <filter id="moonBlur" x="-50%" y="-50%" width="200%" height="200%">
      <feGaussianBlur in="SourceGraphic" stdDeviation="5" result="blur" />
      <feComposite in="SourceGraphic" in2="blur" operator="over" />
    </filter>
    
    <filter id="fireBlur" x="-50%" y="-50%" width="200%" height="200%">
      <feGaussianBlur in="SourceGraphic" stdDeviation="8" result="blur" />
      <feComposite in="SourceGraphic" in2="blur" operator="over" />
    </filter>
    
    <filter id="smokeEffect" x="-50%" y="-50%" width="200%" height="200%">
      <feTurbulence type="fractalNoise" baseFrequency="0.01" numOctaves="3" result="noise" />
      <feDisplacementMap in="SourceGraphic" in2="noise" scale="20" xChannelSelector="R" yChannelSelector="G" />
      <feGaussianBlur stdDeviation="3" />
    </filter>
  </defs>
  
  <!-- Night sky background -->
  <rect width="800" height="600" fill="url(#skyGradient)" />
  
  <!-- Stars in sky -->
  <g opacity="0.8">
    <circle cx="100" cy="100" r="1.5" fill="#FFFFFF" />
    <circle cx="200" cy="70" r="1" fill="#FFFFFF" />
    <circle cx="300" cy="50" r="1.5" fill="#FFFFFF" />
    <circle cx="400" cy="80" r="1" fill="#FFFFFF" />
    <circle cx="500" cy="120" r="1.5" fill="#FFFFFF" />
    <circle cx="600" cy="90" r="1" fill="#FFFFFF" />
    <circle cx="700" cy="60" r="1.5" fill="#FFFFFF" />
    <circle cx="150" cy="150" r="1" fill="#FFFFFF" />
    <circle cx="250" cy="100" r="1.5" fill="#FFFFFF" />
    <circle cx="350" cy="130" r="1" fill="#FFFFFF" />
    <circle cx="450" cy="70" r="1.5" fill="#FFFFFF" />
    <circle cx="550" cy="50" r="1" fill="#FFFFFF" />
    <circle cx="650" cy="120" r="1.5" fill="#FFFFFF" />
    <circle cx="750" cy="80" r="1" fill="#FFFFFF" />
  </g>
  
  <!-- Moon -->
  <g transform="translate(650, 120)">
    <circle cx="0" cy="0" r="50" fill="url(#moonGlow)" filter="url(#moonBlur)" />
    <circle cx="-15" cy="-10" r="10" fill="#D8BFD8" opacity="0.5" />
    <circle cx="10" cy="15" r="8" fill="#D8BFD8" opacity="0.5" />
  </g>
  
  <!-- Landscape silhouette -->
  <path d="M0,400 Q100,350 200,380 Q300,410 400,370 Q500,330 600,390 Q700,450 800,420 L800,600 L0,600 Z" 
        fill="#1A0033" />
  
  <!-- Central ritual fire -->
  <g transform="translate(400, 450)" filter="url(#fireBlur)">
    <circle cx="0" cy="0" r="80" fill="url(#fireGlow)" opacity="0.8" />
    
    <!-- Fire flames -->
    <path d="M-20,-30 Q-10,-60 0,-40 Q10,-60 20,-30" fill="#FF4500" opacity="0.8">
      <animate attributeName="d" values="M-20,-30 Q-10,-60 0,-40 Q10,-60 20,-30; 
                                      M-20,-30 Q-15,-70 0,-45 Q15,-70 20,-30;
                                      M-20,-30 Q-10,-60 0,-40 Q10,-60 20,-30" 
               dur="2s" repeatCount="indefinite" />
    </path>
    
    <path d="M-10,-20 Q0,-40 10,-20" fill="#FFA500" opacity="0.9">
      <animate attributeName="d" values="M-10,-20 Q0,-40 10,-20; 
                                      M-10,-20 Q0,-50 10,-20;
                                      M-10,-20 Q0,-40 10,-20" 
               dur="1.5s" repeatCount="indefinite" />
    </path>
  </g>
  
  <!-- Cauldron over fire -->
  <g transform="translate(400, 450)">
    <!-- Cauldron body -->
    <ellipse cx="0" cy="0" rx="50" ry="25" fill="#1A0033" stroke="#333333" stroke-width="2" />
    <path d="M-50,0 Q-45,30 0,40 Q45,30 50,0" fill="#333333" />
    
    <!-- Cauldron rim -->
    <ellipse cx="0" cy="0" rx="50" ry="25" fill="none" stroke="#666666" stroke-width="4" />
    
    <!-- Cauldron legs -->
    <line x1="-40" y1="0" x2="-35" y2="15" stroke="#666666" stroke-width="4" />
    <line x1="40" y1="0" x2="35" y2="15" stroke="#666666" stroke-width="4" />
    <line x1="0" y1="25" x2="0" y2="40" stroke="#666666" stroke-width="4" />
  </g>
  
  <!-- Spiraling smoke from cauldron -->
  <g transform="translate(400, 420)" filter="url(#smokeEffect)">
    <path d="M0,0 Q10,-30 0,-60 Q-15,-90 0,-120 Q20,-150 0,-180 Q-25,-210 0,-240" 
          fill="none" stroke="#E6E6FA" stroke-width="8" opacity="0.3" />
    
    <path d="M0,0 Q-10,-40 0,-80 Q15,-110 0,-140 Q-20,-170 0,-200" 
          fill="none" stroke="#E6E6FA" stroke-width="6" opacity="0.2" />
  </g>
  
  <!-- Circle of people holding hands around the fire -->
  <g transform="translate(400, 450)">
    <!-- Create circular arrangement of people -->
    <g transform="rotate(0)">
      <g transform="translate(0, -140)">
        <circle cx="0" cy="0" r="15" fill="#663399" />
        <circle cx="-5" cy="-5" r="3" fill="#E6E6FA" opacity="0.5" />
      </g>
    </g>
    
    <g transform="rotate(45)">
      <g transform="translate(0, -140)">
        <circle cx="0" cy="0" r="15" fill="#663399" />
        <circle cx="-5" cy="-5" r="3" fill="#E6E6FA" opacity="0.5" />
      </g>
    </g>
    
    <g transform="rotate(90)">
      <g transform="translate(0, -140)">
        <circle cx="0" cy="0" r="15" fill="#663399" />
        <circle cx="-5" cy="-5" r="3" fill="#E6E6FA" opacity="0.5" />
      </g>
    </g>
    
    <g transform="rotate(135)">
      <g transform="translate(0, -140)">
        <circle cx="0" cy="0" r="15" fill="#663399" />
        <circle cx="-5" cy="-5" r="3" fill="#E6E6FA" opacity="0.5" />
      </g>
    </g>
    
    <g transform="rotate(180)">
      <g transform="translate(0, -140)">
        <circle cx="0" cy="0" r="15" fill="#663399" />
        <circle cx="-5" cy="-5" r="3" fill="#E6E6FA" opacity="0.5" />
      </g>
    </g>
    
    <g transform="rotate(225)">
      <g transform="translate(0, -140)">
        <circle cx="0" cy="0" r="15" fill="#663399" />
        <circle cx="-5" cy="-5" r="3" fill="#E6E6FA" opacity="0.5" />
      </g>
    </g>
    
    <g transform="rotate(270)">
      <g transform="translate(0, -140)">
        <circle cx="0" cy="0" r="15" fill="#663399" />
        <circle cx="-5" cy="-5" r="3" fill="#E6E6FA" opacity="0.5" />
      </g>
    </g>
    
    <g transform="rotate(315)">
      <g transform="translate(0, -140)">
        <circle cx="0" cy="0" r="15" fill="#663399" />
        <circle cx="-5" cy="-5" r="3" fill="#E6E6FA" opacity="0.5" />
      </g>
    </g>
    
    <!-- Connecting hands (lines between people) -->
    <g stroke="#E6E6FA" stroke-width="2" opacity="0.7">
      <path d="M0,-125 A125,125 0 0,1 88.4,-88.4" />
      <path d="M88.4,-88.4 A125,125 0 0,1 125,0" />
      <path d="M125,0 A125,125 0 0,1 88.4,88.4" />
      <path d="M88.4,88.4 A125,125 0 0,1 0,125" />
      <path d="M0,125 A125,125 0 0,1 -88.4,88.4" />
      <path d="M-88.4,88.4 A125,125 0 0,1 -125,0" />
      <path d="M-125,0 A125,125 0 0,1 -88.4,-88.4" />
      <path d="M-88.4,-88.4 A125,125 0 0,1 0,-125" />
    </g>
  </g>
  
  <!-- Ritual objects -->
  <!-- Drum -->
  <g transform="translate(200, 350)">
    <ellipse cx="0" cy="0" rx="30" ry="10" fill="#8B4513" stroke="#4B0082" stroke-width="2" />
    <ellipse cx="0" cy="-20" rx="30" ry="10" fill="#D2B48C" stroke="#4B0082" stroke-width="2" />
    <rect x="-30" y="-20" width="60" height="20" fill="#8B4513" stroke="#4B0082" stroke-width="2" />
    
    <!-- Drum beater -->
    <line x1="40" y1="-10" x2="20" y2="-15" stroke="#8B4513" stroke-width="5" />
    <circle cx="45" cy="-8" r="8" fill="#8B4513" />
  </g>
  
  <!-- Crystal/stones -->
  <g transform="translate(600, 380)">
    <path d="M0,0 L-15,-30 L15,-30 Z" fill="#9370DB" opacity="0.8" />
    <path d="M-20,0 L-10,-20 L0,0 Z" fill="#E6E6FA" opacity="0.7" />
    <path d="M20,0 L10,-20 L0,0 Z" fill="#9932CC" opacity="0.7" />
  </g>
  
  <!-- Feathers -->
  <g transform="translate(500, 350)">
    <path d="M0,0 Q10,-30 0,-60" fill="none" stroke="#E6E6FA" stroke-width="1" />
    <path d="M0,-60 L-10,-50 L-8,-48 L-12,-45 L-10,-43 L-14,-40 L-12,-38 L-15,-35 L-13,-33 L-16,-30 L-14,-28 L-17,-25 L-15,-23 L-18,-20 L-16,-18 L-19,-15 L-17,-13 L-20,-10 L-18,-8 L-21,-5 L-19,-3 L-22,0 L-20,2 L0,0" 
          fill="#E6E6FA" opacity="0.6" />
  </g>
  
  <!-- Dreamcatcher -->
  <g transform="translate(300, 320)">
    <circle cx="0" cy="0" r="25" fill="none" stroke="#E6E6FA" stroke-width="2" />
    <path d="M0,-25 L0,25 M-25,0 L25,0 M-18,-18 L18,18 M-18,18 L18,-18" 
          fill="none" stroke="#E6E6FA" stroke-width="1" opacity="0.7" />
    <circle cx="0" cy="0" r="8" fill="none" stroke="#E6E6FA" stroke-width="1" />
    
    <!-- Hanging feathers -->
    <path d="M-10,25 L-15,40" fill="none" stroke="#E6E6FA" stroke-width="1" />
    <path d="M10,25 L15,40" fill="none" stroke="#E6E6FA" stroke-width="1" />
    <path d="M-15,40 L-20,50 L-15,47 L-18,55" fill="none" stroke="#E6E6FA" stroke-width="1" />
    <path d="M15,40 L20,50 L15,47 L18,55" fill="none" stroke="#E6E6FA" stroke-width="1" />
  </g>
  
  <!-- Altar cloth -->
  <g transform="translate(400, 450)">
    <ellipse cx="0" cy="50" rx="200" ry="50" fill="#4B0082" opacity="0.5" />
  </g>
  
  <!-- Title element -->
  <g transform="translate(400, 550)">
    <text x="0" y="0" font-family="serif" font-size="24" font-weight="bold" text-anchor="middle" fill="#E6E6FA">PURPLE PRACTICES</text>
    <text x="0" y="30" font-family="serif" font-size="16" font-style="italic" text-anchor="middle" fill="#E6E6FA">Where Ancestors Whisper</text>
  </g>
</svg>
