<?xml version="1.0" encoding="UTF-8"?>
<svg viewBox="0 0 800 600" xmlns="http://www.w3.org/2000/svg">
  <!-- Definitions -->
  <defs>
    <!-- Gradients for fire and lava effects -->
    <linearGradient id="lavaGradient" x1="0%" y1="0%" x2="100%" y2="100%">
      <stop offset="0%" stop-color="#FF4500" />
      <stop offset="50%" stop-color="#B22222" />
      <stop offset="100%" stop-color="#8B0000" />
    </linearGradient>
    
    <radialGradient id="fireGlow" cx="50%" cy="50%" r="60%" fx="40%" fy="40%">
      <stop offset="0%" stop-color="#FFFF00" stop-opacity="0.7" />
      <stop offset="50%" stop-color="#FF4500" stop-opacity="0.5" />
      <stop offset="100%" stop-color="#B22222" stop-opacity="0.3" />
    </radialGradient>
    
    <!-- Texture patterns -->
    <pattern id="lavaTexture" width="200" height="200" patternUnits="userSpaceOnUse">
      <rect width="200" height="200" fill="url(#lavaGradient)" />
      
      <!-- Lava cracks and bubbles -->
      <circle cx="50" cy="50" r="10" fill="#FF9933" opacity="0.6" />
      <circle cx="150" cy="70" r="15" fill="#FF9933" opacity="0.5" />
      <circle cx="70" cy="150" r="12" fill="#FF9933" opacity="0.7" />
      <circle cx="120" cy="30" r="8" fill="#FF9933" opacity="0.8" />
      
      <path d="M20,20 Q60,50 40,100 Q30,130 70,160 Q100,170 120,140" fill="none" stroke="#FF6600" stroke-width="2" />
      <path d="M80,10 Q100,60 150,50 Q170,70 160,120" fill="none" stroke="#FF6600" stroke-width="2.5" />
      <path d="M140,80 Q170,110 190,90" fill="none" stroke="#FF6600" stroke-width="1.5" />
    </pattern>
    
    <!-- Filters -->
    <filter id="fireFilter" x="-20%" y="-20%" width="140%" height="140%">
      <feTurbulence type="fractalNoise" baseFrequency="0.05" numOctaves="3" result="noise" />
      <feDisplacementMap in="SourceGraphic" in2="noise" scale="10" xChannelSelector="R" yChannelSelector="G" />
    </filter>
    
    <filter id="glow" x="-30%" y="-30%" width="160%" height="160%">
      <feGaussianBlur stdDeviation="10" result="blur" />
      <feComposite in="SourceGraphic" in2="blur" operator="over" />
    </filter>
    
    <filter id="emboss" x="-10%" y="-10%" width="120%" height="120%">
      <feConvolveMatrix order="3" preserveAlpha="true" kernelMatrix="1 1 1 1 -7 1 1 1 1" />
    </filter>
  </defs>
  
  <!-- Background with lava texture -->
  <rect width="800" height="600" fill="url(#lavaTexture)" />
  
  <!-- Volcanic eruption -->
  <g transform="translate(400, 300)">
    <!-- Mountain/Volcano base -->
    <path d="M-350,150 Q-200,0 -100,100 Q0,-50 100,100 Q200,0 350,150 Z" fill="#4D0000" />
    
    <!-- Eruption -->
    <g filter="url(#fireFilter)">
      <path d="M-100,0 
               Q-75,-100 -50,-50 
               Q-25,-150 0,-200 
               Q25,-150 50,-50 
               Q75,-100 100,0" 
            fill="url(#fireGlow)" opacity="0.9" />
      
      <!-- Lava streams -->
      <path d="M-60,-50 Q-70,10 -90,50" fill="none" stroke="#FF4500" stroke-width="10" />
      <path d="M60,-50 Q70,10 90,50" fill="none" stroke="#FF4500" stroke-width="10" />
      <path d="M-20,-100 Q-10,-40 0,0" fill="none" stroke="#FF4500" stroke-width="15" />
      <path d="M20,-100 Q10,-40 0,0" fill="none" stroke="#FF4500" stroke-width="15" />
      
      <!-- Fire particles -->
      <circle cx="-80" cy="-120" r="5" fill="#FFFF00" opacity="0.8" />
      <circle cx="-40" cy="-160" r="7" fill="#FFFF00" opacity="0.7" />
      <circle cx="0" cy="-180" r="6" fill="#FFFF00" opacity="0.9" />
      <circle cx="40" cy="-160" r="7" fill="#FFFF00" opacity="0.7" />
      <circle cx="80" cy="-120" r="5" fill="#FFFF00" opacity="0.8" />
      
      <!-- Smoke -->
      <ellipse cx="0" cy="-250" rx="50" ry="30" fill="#666666" opacity="0.3" />
      <ellipse cx="-40" cy="-280" rx="40" ry="20" fill="#666666" opacity="0.3" />
      <ellipse cx="40" cy="-280" rx="40" ry="20" fill="#666666" opacity="0.3" />
    </g>
  </g>
  
  <!-- Clenched fist breaking chains -->
  <g transform="translate(200, 200)">
    <!-- Chains -->
    <g stroke="#666666" stroke-width="8" fill="none">
      <path d="M-60,-20 L-40,-40" />
      <circle cx="-30" cy="-50" r="8" fill="#666666" />
      <path d="M-20,-60 L0,-80" />
      
      <path d="M60,-20 L40,-40" />
      <circle cx="30" cy="-50" r="8" fill="#666666" />
      <path d="M20,-60 L0,-80" />
      
      <!-- Broken chain links -->
      <path d="M-10,-10 L-30,10" stroke-dasharray="10,5" />
      <path d="M10,-10 L30,10" stroke-dasharray="10,5" />
    </g>
    
    <!-- Fist -->
    <g filter="url(#emboss)">
      <!-- Base of hand -->
      <path d="M-30,40 L-30,10 Q-30,-10 -20,-10 L20,-10 Q30,-10 30,10 L30,40 Q30,60 0,70 Q-30,60 -30,40 Z" 
            fill="#D2691E" />
      
      <!-- Thumb -->
      <path d="M-30,10 Q-40,0 -40,-10 Q-40,-20 -30,-20 Q-20,-20 -20,-10 L-20,0 Z"
            fill="#D2691E" />
      
      <!-- Knuckles -->
      <circle cx="-15" cy="-5" r="5" fill="#D2691E" />
      <circle cx="-5" cy="-5" r="5" fill="#D2691E" />
      <circle cx="5" cy="-5" r="5" fill="#D2691E" />
      <circle cx="15" cy="-5" r="5" fill="#D2691E" />
    </g>
  </g>
  
  <!-- Warrior's Scream -->
  <g transform="translate(600, 200)">
    <!-- Face outline -->
    <ellipse cx="0" cy="0" rx="60" ry="70" fill="#D2691E" />
    
    <!-- Eyes -->
    <g>
      <path d="M-30,-20 Q-20,-30 -10,-20" stroke="#000000" stroke-width="3" fill="none" />
      <path d="M30,-20 Q20,-30 10,-20" stroke="#000000" stroke-width="3" fill="none" />
    </g>
    
    <!-- Screaming mouth -->
    <ellipse cx="0" cy="30" rx="30" ry="25" fill="#8B0000" />
    <ellipse cx="0" cy="30" rx="20" ry="15" fill="#000000" />
    
    <!-- Sound waves -->
    <g stroke="#FF4500" stroke-width="3" fill="none" stroke-dasharray="5,3">
      <path d="M-80,0 Q-70,-10 -60,0 Q-50,10 -40,0" />
      <path d="M-70,20 Q-60,10 -50,20 Q-40,30 -30,20" />
      <path d="M-70,-20 Q-60,-30 -50,-20 Q-40,-10 -30,-20" />
    </g>
  </g>
  
  <!-- Lava flowing like blood through veins -->
  <g opacity="0.8">
    <path d="M100,100 Q200,150 300,100 Q400,50 500,100 Q600,150 700,100" 
          stroke="#FF4500" stroke-width="15" fill="none" filter="url(#glow)" />
    
    <path d="M100,300 Q200,250 300,300 Q400,350 500,300 Q600,250 700,300" 
          stroke="#FF4500" stroke-width="10" fill="none" filter="url(#glow)" />
    
    <path d="M100,500 Q200,450 300,500 Q400,550 500,500 Q600,450 700,500" 
          stroke="#FF4500" stroke-width="12" fill="none" filter="url(#glow)" />
    
    <!-- Pulsing effect -->
    <g>
      <circle cx="200" cy="150" r="8" fill="#FFFF00" opacity="0.8">
        <animate attributeName="r" values="8;12;8" dur="2s" repeatCount="indefinite" />
      </circle>
      <circle cx="400" cy="50" r="8" fill="#FFFF00" opacity="0.8">
        <animate attributeName="r" values="8;12;8" dur="1.5s" repeatCount="indefinite" />
      </circle>
      <circle cx="600" cy="150" r="8" fill="#FFFF00" opacity="0.8">
        <animate attributeName="r" values="8;12;8" dur="2.5s" repeatCount="indefinite" />
      </circle>
      
      <circle cx="200" cy="250" r="8" fill="#FFFF00" opacity="0.8">
        <animate attributeName="r" values="8;12;8" dur="2.2s" repeatCount="indefinite" />
      </circle>
      <circle cx="400" cy="350" r="8" fill="#FFFF00" opacity="0.8">
        <animate attributeName="r" values="8;12;8" dur="1.8s" repeatCount="indefinite" />
      </circle>
      <circle cx="600" cy="250" r="8" fill="#FFFF00" opacity="0.8">
        <animate attributeName="r" values="8;12;8" dur="2.3s" repeatCount="indefinite" />
      </circle>
      
      <circle cx="200" cy="450" r="8" fill="#FFFF00" opacity="0.8">
        <animate attributeName="r" values="8;12;8" dur="1.7s" repeatCount="indefinite" />
      </circle>
      <circle cx="400" cy="550" r="8" fill="#FFFF00" opacity="0.8">
        <animate attributeName="r" values="8;12;8" dur="2.1s" repeatCount="indefinite" />
      </circle>
      <circle cx="600" cy="450" r="8" fill="#FFFF00" opacity="0.8">
        <animate attributeName="r" values="8;12;8" dur="1.9s" repeatCount="indefinite" />
      </circle>
    </g>
  </g>
  
  <!-- Flaming sword -->
  <g transform="translate(400, 450) rotate(-30)">
    <!-- Sword handle -->
    <rect x="-10" y="50" width="20" height="50" fill="#8B4513" />
    <ellipse cx="0" cy="105" rx="15" ry="5" fill="#8B4513" />
    
    <!-- Sword blade -->
    <path d="M-5,50 L-5,-70 Q-2,-80 0,-80 Q2,-80 5,-70 L5,50 Z" fill="#CCCCCC" />
    
    <!-- Flames -->
    <g filter="url(#glow)">
      <path d="M0,-80 
               Q-10,-100 -5,-120 
               Q0,-110 5,-120 
               Q10,-100 0,-80" 
            fill="#FF4500" opacity="0.9" />
      
      <path d="M0,-80 
               Q-5,-90 0,-100 
               Q5,-90 0,-80" 
            fill="#FFFF00" opacity="0.8" />
    </g>
  </g>
  
  <!-- Title element with embossed effect -->
  <g transform="translate(400, 550)">
    <text x="0" y="0" font-family="Impact, sans-serif" font-size="40" font-weight="bold" text-anchor="middle" 
          fill="#FF4500" stroke="#8B0000" stroke-width="1" filter="url(#emboss)">RED PRACTICES</text>
    <text x="0" y="30" font-family="Arial, sans-serif" font-size="20" font-style="italic" text-anchor="middle" 
          fill="#FFCC99">The Divine Roar</text>
  </g>
</svg>
