<?xml version="1.0" encoding="UTF-8" standalone="no"?>
<svg
   viewBox="0 0 400 400"
   version="1.1"
   id="svg80"
   sodipodi:docname="turquoise-practices-visual.svg"
   inkscape:version="1.4 (e7c3feb100, 2024-10-09)"
   xmlns:inkscape="http://www.inkscape.org/namespaces/inkscape"
   xmlns:sodipodi="http://sodipodi.sourceforge.net/DTD/sodipodi-0.dtd"
   xmlns="http://www.w3.org/2000/svg"
   xmlns:svg="http://www.w3.org/2000/svg">
  <sodipodi:namedview
     id="namedview80"
     pagecolor="#ffffff"
     bordercolor="#000000"
     borderopacity="0.25"
     inkscape:showpageshadow="2"
     inkscape:pageopacity="0.0"
     inkscape:pagecheckerboard="0"
     inkscape:deskcolor="#d1d1d1"
     inkscape:zoom="2.115"
     inkscape:cx="199.76359"
     inkscape:cy="200"
     inkscape:window-width="2520"
     inkscape:window-height="1048"
     inkscape:window-x="0"
     inkscape:window-y="0"
     inkscape:window-maximized="1"
     inkscape:current-layer="svg80" />
  <!-- Background: Cosmic holistic gradient -->
  <defs
     id="defs5">
    <linearGradient
       id="turquoiseGradient"
       x1="0%"
       y1="0%"
       x2="100%"
       y2="100%">
      <stop
         offset="0%"
         style="stop-color:#0d9488;stop-opacity:0.3"
         id="stop1" />
      <stop
         offset="100%"
         style="stop-color:#0891b2;stop-opacity:0.6"
         id="stop2" />
    </linearGradient>
    <radialGradient
       id="cosmicGlow"
       cx="50%"
       cy="50%"
       r="50%"
       fx="50%"
       fy="50%">
      <stop
         offset="0%"
         style="stop-color:#2dd4bf;stop-opacity:0.2"
         id="stop3" />
      <stop
         offset="100%"
         style="stop-color:#0d9488;stop-opacity:0"
         id="stop4" />
    </radialGradient>
    <filter
       id="cosmicPulse"
       x="-0.004"
       y="-0.004"
       width="1.008"
       height="1.008">
      <feTurbulence
         type="fractalNoise"
         baseFrequency="0.01"
         numOctaves="3"
         result="noise"
         id="feTurbulence4" />
      <feDisplacementMap
         in="SourceGraphic"
         in2="noise"
         scale="3"
         xChannelSelector="R"
         yChannelSelector="G"
         id="feDisplacementMap4" />
      <feGaussianBlur
         stdDeviation="0.5"
         id="feGaussianBlur4" />
      <animate
         attributeName="baseFrequency"
         values="0.01;0.015;0.01"
         dur="20s"
         repeatCount="indefinite" />
    </filter>
    <pattern
       id="cosmicWeb"
       patternUnits="userSpaceOnUse"
       width="100"
       height="100">
      <rect
         width="100"
         height="100"
         fill="none"
         id="rect4" />
      <path
         d="M0,0 Q25,25 50,0 Q75,25 100,0 M0,50 Q25,25 50,50 Q75,25 100,50 M0,100 Q25,75 50,100 Q75,75 100,100 M50,0 Q25,25 50,50 Q75,25 50,0 M50,100 Q25,75 50,50 Q75,75 50,100"
         stroke="#2dd4bf"
         stroke-width="0.3"
         opacity="0.3"
         fill="none"
         id="path4" />
    </pattern>
    <filter
       id="glow"
       x="-0.10471405"
       y="-0.10416667"
       width="1.2094281"
       height="1.2083333">
      <feGaussianBlur
         stdDeviation="2.5"
         result="blur"
         id="feGaussianBlur5" />
      <feComposite
         in="SourceGraphic"
         in2="blur"
         operator="over"
         id="feComposite5" />
    </filter>
  </defs>
  <!-- Background -->
  <rect
     x="0"
     y="0"
     width="400"
     height="400"
     fill="#0f172a"
     id="rect5" />
  <rect
     x="50"
     y="50"
     width="300"
     height="300"
     rx="150"
     ry="150"
     fill="url(#turquoiseGradient)"
     id="rect6" />
  <rect
     x="50"
     y="50"
     width="300"
     height="300"
     rx="150"
     ry="150"
     fill="url(#cosmicWeb)"
     id="rect7" />
  <!-- Central cosmic mandala -->
  <circle
     cx="200"
     cy="200"
     r="150"
     fill="url(#cosmicGlow)"
     filter="url(#cosmicPulse)"
     id="circle7" />
  <circle
     cx="200"
     cy="200"
     r="100"
     fill="none"
     stroke="#5eead4"
     stroke-width="0.5"
     stroke-opacity="0.3"
     id="circle8" />
  <circle
     cx="200"
     cy="200"
     r="75"
     fill="none"
     stroke="#5eead4"
     stroke-width="0.5"
     stroke-opacity="0.3"
     id="circle9" />
  <circle
     cx="200"
     cy="200"
     r="50"
     fill="none"
     stroke="#5eead4"
     stroke-width="0.5"
     stroke-opacity="0.3"
     id="circle10" />
  <!-- Universal connection lines -->
  <g
     opacity="0.5"
     id="g17">
    <line
       x1="125"
       y1="125"
       x2="200"
       y2="200"
       stroke="#5eead4"
       stroke-width="0.5"
       id="line10" />
    <line
       x1="275"
       y1="125"
       x2="200"
       y2="200"
       stroke="#5eead4"
       stroke-width="0.5"
       id="line11" />
    <line
       x1="275"
       y1="275"
       x2="200"
       y2="200"
       stroke="#5eead4"
       stroke-width="0.5"
       id="line12" />
    <line
       x1="125"
       y1="275"
       x2="200"
       y2="200"
       stroke="#5eead4"
       stroke-width="0.5"
       id="line13" />
    <line
       x1="200"
       y1="100"
       x2="200"
       y2="200"
       stroke="#5eead4"
       stroke-width="0.5"
       id="line14" />
    <line
       x1="200"
       y1="300"
       x2="200"
       y2="200"
       stroke="#5eead4"
       stroke-width="0.5"
       id="line15" />
    <line
       x1="100"
       y1="200"
       x2="200"
       y2="200"
       stroke="#5eead4"
       stroke-width="0.5"
       id="line16" />
    <line
       x1="300"
       y1="200"
       x2="200"
       y2="200"
       stroke="#5eead4"
       stroke-width="0.5"
       id="line17" />
  </g>
  <!-- Quadrant 1: Pulsating Star / Galaxy (Top Left) -->
  <g
     transform="translate(125, 125)"
     filter="url(#glow)"
     id="g25">
    <g
       opacity="0.8"
       id="g24">
      <circle
         cx="0"
         cy="0"
         r="30"
         fill="#0f766e"
         fill-opacity="0.2"
         stroke="#5eead4"
         stroke-width="0.5"
         id="circle17" />
      <!-- Spiral arms -->
      <path
         d="M0,0 C5,-5 10,-15 15,-25 C20,-20 30,-15 35,-10 C25,-5 20,0 15,5"
         fill="none"
         stroke="#5eead4"
         stroke-width="0.8"
         id="path17" />
      <path
         d="M0,0 C5,5 10,15 15,25 C20,20 30,15 35,10 C25,5 20,0 15,-5"
         fill="none"
         stroke="#5eead4"
         stroke-width="0.8"
         id="path18" />
      <path
         d="M0,0 C-5,5 -10,15 -15,25 C-20,20 -30,15 -35,10 C-25,5 -20,0 -15,-5"
         fill="none"
         stroke="#5eead4"
         stroke-width="0.8"
         id="path19" />
      <path
         d="M0,0 C-5,-5 -10,-15 -15,-25 C-20,-20 -30,-15 -35,-10 C-25,-5 -20,0 -15,5"
         fill="none"
         stroke="#5eead4"
         stroke-width="0.8"
         id="path20" />
      <!-- Star core -->
      <circle
         cx="0"
         cy="0"
         r="8"
         fill="#2dd4bf"
         id="circle20">
        <animate
           attributeName="r"
           values="8;11;8"
           dur="4s"
           repeatCount="indefinite" />
        <animate
           attributeName="opacity"
           values="0.8;1;0.8"
           dur="4s"
           repeatCount="indefinite" />
      </circle>
      <!-- Star rays -->
      <g
         opacity="0.7"
         id="g23">
        <line
           x1="-15"
           y1="-15"
           x2="-6"
           y2="-6"
           stroke="#5eead4"
           stroke-width="0.8"
           id="line20" />
        <line
           x1="15"
           y1="-15"
           x2="6"
           y2="-6"
           stroke="#5eead4"
           stroke-width="0.8"
           id="line21" />
        <line
           x1="15"
           y1="15"
           x2="6"
           y2="6"
           stroke="#5eead4"
           stroke-width="0.8"
           id="line22" />
        <line
           x1="-15"
           y1="15"
           x2="-6"
           y2="6"
           stroke="#5eead4"
           stroke-width="0.8"
           id="line23" />
      </g>
    </g>
  </g>
  <!-- Quadrant 2: Neuron weaving into roots (Top Right) -->
  <g
     transform="translate(275, 125)"
     filter="url(#glow)"
     id="g32">
    <circle
       cx="0"
       cy="0"
       r="30"
       fill="#0f766e"
       fill-opacity="0.2"
       stroke="#5eead4"
       stroke-width="0.5"
       id="circle25" />
    <!-- Neuron body -->
    <ellipse
       cx="0"
       cy="0"
       rx="15"
       ry="10"
       fill="#0d9488"
       stroke="#5eead4"
       stroke-width="0.8"
       id="ellipse25" />
    <!-- Dendrites (upward) -->
    <path
       d="M0,-10 C-15,-15 -10,-30 -5,-35"
       fill="none"
       stroke="#5eead4"
       stroke-width="1"
       id="path25" />
    <path
       d="M0,-10 C0,-20 10,-25 15,-30"
       fill="none"
       stroke="#5eead4"
       stroke-width="1"
       id="path26" />
    <path
       d="M-5,-5 C-10,-15 -20,-20 -25,-15"
       fill="none"
       stroke="#5eead4"
       stroke-width="1"
       id="path27" />
    <!-- Axon (downward) turning into roots -->
    <path
       d="M0,10 C0,15 0,20 0,25"
       fill="none"
       stroke="#5eead4"
       stroke-width="1.5"
       id="path28" />
    <path
       d="M0,25 C-5,30 -10,35 -15,32"
       fill="none"
       stroke="#5eead4"
       stroke-width="1"
       id="path29" />
    <path
       d="M0,25 C5,30 10,35 15,32"
       fill="none"
       stroke="#5eead4"
       stroke-width="1"
       id="path30" />
    <path
       d="M-15,32 C-20,30 -25,35 -30,33"
       fill="none"
       stroke="#5eead4"
       stroke-width="0.8"
       id="path31" />
    <path
       d="M15,32 C20,30 25,35 30,33"
       fill="none"
       stroke="#5eead4"
       stroke-width="0.8"
       id="path32" />
    <!-- Pulse animation -->
    <circle
       cx="0"
       cy="0"
       r="5"
       fill="#2dd4bf"
       opacity="0.7"
       id="circle32">
      <animate
         attributeName="r"
         values="5;8;5"
         dur="3s"
         repeatCount="indefinite" />
    </circle>
  </g>
  <!-- Quadrant 3: Mycelial Network (Bottom Left) -->
  <g
     transform="translate(125, 275)"
     filter="url(#glow)"
     id="g48">
    <circle
       cx="0"
       cy="0"
       r="30"
       fill="#0f766e"
       fill-opacity="0.2"
       stroke="#5eead4"
       stroke-width="0.5"
       id="circle33" />
    <!-- Mycelium structure -->
    <g
       opacity="0.8"
       id="g47">
      <!-- Main stems -->
      <path
         d="M0,0 C-10,-5 -20,-10 -30,-8"
         fill="none"
         stroke="#5eead4"
         stroke-width="1"
         id="path33" />
      <path
         d="M0,0 C10,-5 20,-10 30,-8"
         fill="none"
         stroke="#5eead4"
         stroke-width="1"
         id="path34" />
      <path
         d="M0,0 C-5,10 -10,20 -8,30"
         fill="none"
         stroke="#5eead4"
         stroke-width="1"
         id="path35" />
      <path
         d="M0,0 C5,10 10,20 8,30"
         fill="none"
         stroke="#5eead4"
         stroke-width="1"
         id="path36" />
      <!-- Secondary branches -->
      <path
         d="M-20,-7 C-25,-10 -30,-5 -32,-2"
         fill="none"
         stroke="#5eead4"
         stroke-width="0.7"
         id="path37" />
      <path
         d="M-20,-7 C-22,-12 -18,-18 -15,-20"
         fill="none"
         stroke="#5eead4"
         stroke-width="0.7"
         id="path38" />
      <path
         d="M20,-7 C25,-10 30,-5 32,-2"
         fill="none"
         stroke="#5eead4"
         stroke-width="0.7"
         id="path39" />
      <path
         d="M20,-7 C22,-12 18,-18 15,-20"
         fill="none"
         stroke="#5eead4"
         stroke-width="0.7"
         id="path40" />
      <path
         d="M-7,20 C-10,25 -5,30 -2,32"
         fill="none"
         stroke="#5eead4"
         stroke-width="0.7"
         id="path41" />
      <path
         d="M-7,20 C-12,22 -18,18 -20,15"
         fill="none"
         stroke="#5eead4"
         stroke-width="0.7"
         id="path42" />
      <path
         d="M7,20 C10,25 5,30 2,32"
         fill="none"
         stroke="#5eead4"
         stroke-width="0.7"
         id="path43" />
      <path
         d="M7,20 C12,22 18,18 20,15"
         fill="none"
         stroke="#5eead4"
         stroke-width="0.7"
         id="path44" />
      <!-- Connection nodes -->
      <circle
         cx="-20"
         cy="-7"
         r="1.5"
         fill="#2dd4bf"
         id="circle44" />
      <circle
         cx="20"
         cy="-7"
         r="1.5"
         fill="#2dd4bf"
         id="circle45" />
      <circle
         cx="-7"
         cy="20"
         r="1.5"
         fill="#2dd4bf"
         id="circle46" />
      <circle
         cx="7"
         cy="20"
         r="1.5"
         fill="#2dd4bf"
         id="circle47" />
    </g>
    <!-- Central node -->
    <circle
       cx="0"
       cy="0"
       r="4"
       fill="#2dd4bf"
       id="circle48">
      <animate
         attributeName="opacity"
         values="0.7;1;0.7"
         dur="5s"
         repeatCount="indefinite" />
    </circle>
  </g>
  <!-- Quadrant 4: Child silhouette dissolving into light (Bottom Right) -->
  <g
     transform="translate(275, 275)"
     filter="url(#glow)"
     id="g66">
    <circle
       cx="0"
       cy="0"
       r="30"
       fill="#0f766e"
       fill-opacity="0.2"
       stroke="#5eead4"
       stroke-width="0.5"
       id="circle49" />
    <!-- Child silhouette base -->
    <path
       d="M0,20 C-10,20 -15,10 -15,0 C-15,-10 -10,-20 0,-20 C10,-20 15,-10 15,0 C15,10 10,20 0,20"
       fill="#0d9488"
       stroke="#5eead4"
       stroke-width="0.8"
       id="path49" />
    <!-- Head -->
    <circle
       cx="0"
       cy="-10"
       r="8"
       fill="#0d9488"
       stroke="#5eead4"
       stroke-width="0.8"
       id="circle50" />
    <!-- Arms -->
    <path
       d="M-10,0 C-20,-5 -25,5 -30,0"
       fill="none"
       stroke="#5eead4"
       stroke-width="0.8"
       id="path50" />
    <path
       d="M10,0 C20,-5 25,5 30,0"
       fill="none"
       stroke="#5eead4"
       stroke-width="0.8"
       id="path51" />
    <!-- Dissolution particles -->
    <g
       fill="#2dd4bf"
       id="g60">
      <circle
         cx="-12"
         cy="-15"
         r="1"
         id="circle51" />
      <circle
         cx="15"
         cy="-12"
         r="1.2"
         id="circle52" />
      <circle
         cx="18"
         cy="10"
         r="1.5"
         id="circle53" />
      <circle
         cx="-18"
         cy="12"
         r="1"
         id="circle54" />
      <circle
         cx="5"
         cy="18"
         r="1.3"
         id="circle55" />
      <circle
         cx="-8"
         cy="-18"
         r="1.1"
         id="circle56" />
      <circle
         cx="-20"
         cy="-3"
         r="1.4"
         id="circle57" />
      <circle
         cx="22"
         cy="-5"
         r="1"
         id="circle58" />
      <circle
         cx="-5"
         cy="15"
         r="1.2"
         id="circle59" />
      <circle
         cx="12"
         cy="-18"
         r="1.3"
         id="circle60" />
    </g>
    <!-- Light rays emanating from center -->
    <g
       stroke="#5eead4"
       stroke-width="0.5"
       opacity="0.6"
       id="g65">
      <line
         x1="-2"
         y1="-2"
         x2="-12"
         y2="-15"
         id="line60" />
      <line
         x1="2"
         y1="-2"
         x2="15"
         y2="-12"
         id="line61" />
      <line
         x1="2"
         y1="2"
         x2="18"
         y2="10"
         id="line62" />
      <line
         x1="-2"
         y1="2"
         x2="-18"
         y2="12"
         id="line63" />
      <line
         x1="0"
         y1="3"
         x2="5"
         y2="18"
         id="line64" />
      <line
         x1="-1"
         y1="-3"
         x2="-8"
         y2="-18"
         id="line65" />
    </g>
    <!-- Central glow -->
    <circle
       cx="0"
       cy="0"
       r="5"
       fill="#2dd4bf"
       opacity="0.8"
       id="circle65">
      <animate
         attributeName="r"
         values="5;7;5"
         dur="3s"
         repeatCount="indefinite" />
      <animate
         attributeName="opacity"
         values="0.8;1;0.8"
         dur="3s"
         repeatCount="indefinite" />
    </circle>
  </g>
  <!-- Universal connection threads -->
  <g
     stroke="#5eead4"
     stroke-width="0.3"
     opacity="0.4"
     id="g69">
    <path
       d="M125,125 Q150,150 170,130 Q190,110 210,130 Q230,150 275,125"
       fill="none"
       id="path66" />
    <path
       d="M275,125 Q250,150 230,170 Q210,190 190,170 Q170,150 125,175"
       fill="none"
       id="path67" />
    <path
       d="M125,275 Q150,250 170,230 Q190,210 210,230 Q230,250 275,275"
       fill="none"
       id="path68" />
    <path
       d="M275,275 Q250,250 230,210 Q210,170 190,210 Q170,250 125,225"
       fill="none"
       id="path69" />
  </g>
  <!-- Central unified element -->
  <circle
     cx="200"
     cy="200"
     r="25"
     fill="#0d9488"
     fill-opacity="0.3"
     stroke="#5eead4"
     stroke-width="1"
     id="circle69" />
  <circle
     cx="200"
     cy="200"
     r="15"
     fill="#2dd4bf"
     opacity="0.6"
     id="circle70">
    <animate
       attributeName="r"
       values="15;18;15"
       dur="6s"
       repeatCount="indefinite" />
    <animate
       attributeName="opacity"
       values="0.6;0.8;0.6"
       dur="6s"
       repeatCount="indefinite" />
  </circle>
  <path
     d="M190,190 Q200,180 210,190 Q220,200 210,210 Q200,220 190,210 Q180,200 190,190"
     fill="none"
     stroke="#ccfbf1"
     stroke-width="0.8"
     id="path70" />
  <!-- Subtle particles throughout -->
  <g
     fill="#5eead4"
     opacity="0.5"
     id="g80">
    <circle
       cx="150"
       cy="150"
       r="1"
       id="circle71" />
    <circle
       cx="180"
       cy="120"
       r="0.8"
       id="circle72" />
    <circle
       cx="220"
       cy="140"
       r="1.2"
       id="circle73" />
    <circle
       cx="250"
       cy="160"
       r="0.9"
       id="circle74" />
    <circle
       cx="160"
       cy="250"
       r="1.1"
       id="circle75" />
    <circle
       cx="240"
       cy="230"
       r="0.7"
       id="circle76" />
    <circle
       cx="130"
       cy="210"
       r="1"
       id="circle77" />
    <circle
       cx="170"
       cy="180"
       r="0.8"
       id="circle78" />
    <circle
       cx="230"
       cy="190"
       r="1.1"
       id="circle79" />
    <circle
       cx="200"
       cy="240"
       r="0.9"
       id="circle80" />
  </g>
  <!-- Title plate -->
  <rect
     x="136.81985"
     y="35.058624"
     width="125.41466"
     height="24.882742"
     rx="15.049759"
     ry="11.943717"
     fill="#ccfbf1"
     fill-opacity="0.2"
     stroke="#5eead4"
     stroke-width="1.11726"
     id="rect80" />
  <text
     x="200"
     y="53"
     font-family="Arial"
     font-size="12"
     text-anchor="middle"
     fill="#5eead4"
     font-weight="bold"
     id="text80">TURQUOISE STAGE</text>
</svg>
