<svg xmlns="http://www.w3.org/2000/svg" viewBox="0 0 400 400">
  <!-- Background: Subtle iridescent gradient -->
  <defs>
    <linearGradient id="uvGradient" x1="0%" y1="0%" x2="100%" y2="100%">
      <stop offset="0%" style="stop-color:#f5f3ff;stop-opacity:0.5" />
      <stop offset="50%" style="stop-color:#ede9fe;stop-opacity:0.3" />
      <stop offset="100%" style="stop-color:#ddd6fe;stop-opacity:0.5" />
    </linearGradient>
    
    <filter id="softBlur" x="-50%" y="-50%" width="200%" height="200%">
      <feGaussianBlur stdDeviation="3" />
    </filter>
    
    <filter id="barelyVisible" x="-50%" y="-50%" width="200%" height="200%">
      <feGaussianBlur stdDeviation="1" />
      <feComponentTransfer>
        <feFuncA type="linear" slope="0.2" />
      </feComponentTransfer>
    </filter>
    
    <filter id="iridescence" x="-50%" y="-50%" width="200%" height="200%">
      <feTurbulence type="fractalNoise" baseFrequency="0.01" numOctaves="2" result="noise" />
      <feColorMatrix type="hueRotate" values="0">
        <animate attributeName="values" from="0" to="360" dur="30s" repeatCount="indefinite" />
      </feColorMatrix>
      <feDisplacementMap in="SourceGraphic" in2="noise" scale="5" xChannelSelector="R" yChannelSelector="G" />
      <feGaussianBlur stdDeviation="0.5" />
      <feComponentTransfer>
        <feFuncA type="linear" slope="0.2" />
      </feComponentTransfer>
    </filter>
  </defs>
  
  <!-- Background -->
  <rect x="0" y="0" width="400" height="400" fill="white" />
  
  <!-- Almost invisible prismatic border -->
  <rect x="20" y="20" width="360" height="360" rx="8" ry="8" fill="none" stroke="url(#uvGradient)" stroke-width="2" />
  
  <!-- Central element - barely visible -->
  <circle cx="200" cy="200" r="150" fill="url(#uvGradient)" opacity="0.1" />
  
  <!-- Dissolving spiral - faintly visible -->
  <g transform="translate(200, 200)" filter="url(#barelyVisible)">
    <path d="M0,0 Q10,-10 20,-5 Q30,-20 20,10 Q40,-5 30,20 Q50,10 20,30 Q40,40 10,30 Q20,50 -10,30 Q-5,45 -20,20 Q-30,30 -25,0 Q-40,10 -20,-15 Q-30,-5 -10,-25 Q-20,-35 10,-20 Q-5,-40 15,-15 Q10,-30 10,-10 Q20,-15 0,0"
          fill="none" stroke="#a78bfa" stroke-width="0.5" stroke-opacity="0.3" />
    
    <!-- Parts of the spiral fading out entirely -->
    <path d="M0,0 Q5,-5 10,-2.5 Q15,-10 10,5 Q20,-2.5 15,10 Q25,5 10,15"
          fill="none" stroke="#a78bfa" stroke-width="0.3" stroke-opacity="0.1" />
    
    <path d="M20,20 Q10,25 -5,15 Q-2.5,22.5 -10,10 Q-15,15 -12.5,0"
          fill="none" stroke="#a78bfa" stroke-width="0.3" stroke-opacity="0.1" />
  </g>
  
  <!-- Teacup floating in void - extremely subtle -->
  <g transform="translate(125, 200)" filter="url(#barelyVisible)">
    <!-- Cup body -->
    <path d="M-20,0 Q-20,-15 0,-15 Q20,-15 20,0 L15,15 L-15,15 Z" fill="none" stroke="#a78bfa" stroke-width="0.5" stroke-opacity="0.2" />
    
    <!-- Handle -->
    <path d="M15,0 Q25,0 25,10 Q25,15 15,15" fill="none" stroke="#a78bfa" stroke-width="0.5" stroke-opacity="0.2" />
    
    <!-- Tea surface - barely visible -->
    <line x1="-10" y1="-5" x2="10" y2="-5" stroke="#a78bfa" stroke-width="0.5" stroke-opacity="0.1" />
    
    <!-- No shadow -->
  </g>
  
  <!-- "Nothing here" text - shimmering but barely readable -->
  <g transform="translate(275, 200)" filter="url(#iridescence)">
    <text x="0" y="0" font-family="Arial" font-size="8" text-anchor="middle" fill="#a78bfa" fill-opacity="0.2">nothing here</text>
  </g>
  
  <!-- "404 not found" microscopic text -->
  <g transform="translate(200, 300)" filter="url(#barelyVisible)">
    <text x="0" y="0" font-family="monospace" font-size="4" text-anchor="middle" fill="#a78bfa" fill-opacity="0.15">404 not found</text>
  </g>
  
  <!-- Almost invisible elements in the four quadrants -->
  <g filter="url(#softBlur)">
    <!-- Top left - whisper of emptiness -->
    <circle cx="100" cy="100" r="30" fill="none" stroke="#a78bfa" stroke-width="0.3" stroke-opacity="0.1" />
    <path d="M85,100 L115,100 M100,85 L100,115" stroke="#a78bfa" stroke-width="0.3" stroke-opacity="0.05" />
    
    <!-- Top right - trace of awareness -->
    <path d="M275,70 Q300,90 275,110 Q250,130 275,150" fill="none" stroke="#a78bfa" stroke-width="0.3" stroke-opacity="0.1" />
    
    <!-- Bottom left - hint of form dissolving -->
    <rect x="85" y="285" width="30" height="30" fill="none" stroke="#a78bfa" stroke-width="0.3" stroke-opacity="0.1" />
    <path d="M85,285 L115,315 M85,315 L115,285" stroke="#a78bfa" stroke-width="0.3" stroke-opacity="0.05" />
    
    <!-- Bottom right - suggestion of transparency -->
    <circle cx="275" cy="300" r="20" fill="none" stroke="#a78bfa" stroke-width="0.3" stroke-opacity="0.1" />
    <circle cx="275" cy="300" r="10" fill="none" stroke="#a78bfa" stroke-width="0.3" stroke-opacity="0.05" />
  </g>
  
  <!-- Almost invisible title -->
  <g filter="url(#barelyVisible)">
    <rect x="150" y="35" width="100" height="25" rx="12" ry="12" fill="none" stroke="#a78bfa" stroke-width="0.5" stroke-opacity="0.2" />
    <text x="200" y="53" font-family="Arial" font-size="10" text-anchor="middle" fill="#a78bfa" fill-opacity="0.3">ULTRA-VIOLET STAGE</text>
  </g>
</svg>
