<svg xmlns="http://www.w3.org/2000/svg" viewBox="0 0 400 400">
  <!-- Background: Light radiant gradient -->
  <defs>
    <linearGradient id="backgroundGradient" x1="0%" y1="0%" x2="100%" y2="100%">
      <stop offset="0%" style="stop-color:#f8fafc;stop-opacity:1" />
      <stop offset="100%" style="stop-color:#e2e8f0;stop-opacity:1" />
    </linearGradient>
    
    <filter id="glowEffect" x="-20%" y="-20%" width="140%" height="140%">
      <feGaussianBlur in="SourceGraphic" stdDeviation="5" result="blur" />
      <feComposite in="SourceGraphic" in2="blur" operator="over" />
    </filter>
    
    <filter id="glitchEffect" x="-5%" y="-5%" width="110%" height="110%">
      <feTurbulence baseFrequency="0.05" numOctaves="2" type="fractalNoise" result="noise" />
      <feDisplacementMap in="SourceGraphic" in2="noise" scale="2" xChannelSelector="R" yChannelSelector="G" />
    </filter>
    
    <!-- Rainbow gradient for the refracted light -->
    <linearGradient id="rainbowGradient" x1="0%" y1="0%" x2="100%" y2="0%">
      <stop offset="0%" style="stop-color:#ef4444" />
      <stop offset="16.67%" style="stop-color:#f97316" />
      <stop offset="33.33%" style="stop-color:#eab308" />
      <stop offset="50%" style="stop-color:#22c55e" />
      <stop offset="66.67%" style="stop-color:#0ea5e9" />
      <stop offset="83.33%" style="stop-color:#8b5cf6" />
      <stop offset="100%" style="stop-color:#ec4899" />
    </linearGradient>
  </defs>
  
  <!-- Background -->
  <rect x="0" y="0" width="400" height="400" fill="url(#backgroundGradient)" />
  
  <!-- Central Prism -->
  <g transform="translate(200, 175)">
    <polygon points="0,-50 30,30 -30,30" fill="#cbd5e1" fill-opacity="0.6" stroke="#94a3b8" stroke-width="1" filter="url(#glowEffect)" />
    <!-- Highlight on prism -->
    <line x1="-15" y1="-10" x2="15" y2="-10" stroke="white" stroke-width="2" stroke-opacity="0.6" />
  </g>
  
  <!-- Incoming Light Beam -->
  <line x1="200" y1="50" x2="200" y2="125" stroke="white" stroke-width="8" stroke-opacity="0.8" filter="url(#glowEffect)" />
  
  <!-- Refracted Light Beams - Each targeting a specific stage symbol -->
  <!-- Red - Flame/Fist (Upper Left) -->
  <line x1="200" y1="175" x2="100" y2="230" stroke="#ef4444" stroke-width="3" stroke-opacity="0.8" filter="url(#glowEffect)" />
  
  <!-- Blue - Compass/Book (Upper Right) -->
  <line x1="200" y1="175" x2="300" y2="230" stroke="#3b82f6" stroke-width="3" stroke-opacity="0.8" filter="url(#glowEffect)" />
  
  <!-- Orange - Graph/Achievement (Middle Left) -->
  <line x1="200" y1="175" x2="125" y2="275" stroke="#f97316" stroke-width="3" stroke-opacity="0.8" filter="url(#glowEffect)" />
  
  <!-- Green - Heart/Community (Middle Right) -->
  <line x1="200" y1="175" x2="275" y2="275" stroke="#22c55e" stroke-width="3" stroke-opacity="0.8" filter="url(#glowEffect)" />
  
  <!-- Yellow - Systems/Complexity (Lower Left) -->
  <line x1="200" y1="175" x2="150" y2="325" stroke="#eab308" stroke-width="3" stroke-opacity="0.8" filter="url(#glowEffect)" />
  
  <!-- Coral - Jester/Laughter (Lower Right) -->
  <line x1="200" y1="175" x2="250" y2="325" stroke="#ec4899" stroke-width="3" stroke-opacity="0.8" filter="url(#glowEffect)" />
  
  <!-- Turquoise - Unity/Holism (Bottom) -->
  <line x1="200" y1="175" x2="200" y2="350" stroke="#0ea5e9" stroke-width="3" stroke-opacity="0.8" filter="url(#glowEffect)" />
  
  <!-- Stage Symbols -->
  <!-- Red - Flame/Fist -->
  <g transform="translate(100, 230)" filter="url(#glowEffect)">
    <circle cx="0" cy="0" r="20" fill="#fee2e2" stroke="#ef4444" stroke-width="1" />
    <!-- Flame -->
    <path d="M0,-15 Q-5,-5 -8,-10 Q-10,0 -5,5 Q0,15 5,5 Q10,0 8,-10 Q5,-5 0,-15" fill="#ef4444" />
    <!-- Fist -->
    <circle cx="0" cy="0" r="8" fill="#b91c1c" />
  </g>
  
  <!-- Blue - Compass/Book -->
  <g transform="translate(300, 230)" filter="url(#glowEffect)">
    <circle cx="0" cy="0" r="20" fill="#dbeafe" stroke="#3b82f6" stroke-width="1" />
    <!-- Book -->
    <rect x="-12" y="-10" width="24" height="20" fill="#3b82f6" />
    <rect x="-10" y="-8" width="10" height="16" fill="#dbeafe" />
    <rect x="0" y="-8" width="8" height="16" fill="#dbeafe" />
    <!-- Book lines -->
    <line x1="-8" y1="-4" x2="-2" y2="-4" stroke="#3b82f6" stroke-width="1" />
    <line x1="-8" y1="0" x2="-2" y2="0" stroke="#3b82f6" stroke-width="1" />
    <line x1="-8" y1="4" x2="-2" y2="4" stroke="#3b82f6" stroke-width="1" />
  </g>
  
  <!-- Orange - Graph/Achievement -->
  <g transform="translate(125, 275)" filter="url(#glowEffect)">
    <circle cx="0" cy="0" r="20" fill="#ffedd5" stroke="#f97316" stroke-width="1" />
    <!-- Achievement/Chart -->
    <polyline points="-10,10 -5,0 0,5 5,-5 10,-10" fill="none" stroke="#f97316" stroke-width="2" />
    <!-- Chart frame -->
    <line x1="-10" y1="-10" x2="-10" y2="10" stroke="#f97316" stroke-width="1" />
    <line x1="-10" y1="10" x2="10" y2="10" stroke="#f97316" stroke-width="1" />
  </g>
  
  <!-- Green - Heart/Community -->
  <g transform="translate(275, 275)" filter="url(#glowEffect)">
    <circle cx="0" cy="0" r="20" fill="#dcfce7" stroke="#22c55e" stroke-width="1" />
    <!-- Heart -->
    <path d="M0,8 C-8,-2 -15,0 -8,8 C-8,8 0,15 0,15 C0,15 8,8 8,8 C15,0 8,-2 0,8" fill="#22c55e" />
  </g>
  
  <!-- Yellow - Systems/Complexity -->
  <g transform="translate(150, 325)" filter="url(#glowEffect)">
    <circle cx="0" cy="0" r="20" fill="#fef9c3" stroke="#eab308" stroke-width="1" />
    <!-- Connected nodes/systems -->
    <circle cx="-5" cy="-5" r="3" fill="#eab308" />
    <circle cx="8" cy="-8" r="3" fill="#eab308" />
    <circle cx="3" cy="7" r="3" fill="#eab308" />
    <circle cx="-8" cy="5" r="3" fill="#eab308" />
    <line x1="-5" y1="-5" x2="8" y2="-8" stroke="#eab308" stroke-width="1" />
    <line x1="8" y1="-8" x2="3" y2="7" stroke="#eab308" stroke-width="1" />
    <line x1="3" y1="7" x2="-8" y2="5" stroke="#eab308" stroke-width="1" />
    <line x1="-8" y1="5" x2="-5" y2="-5" stroke="#eab308" stroke-width="1" />
  </g>
  
  <!-- Coral - Jester/Laughter -->
  <g transform="translate(250, 325)" filter="url(#glowEffect)">
    <circle cx="0" cy="0" r="20" fill="#fce7f3" stroke="#ec4899" stroke-width="1" />
    <!-- Jester hat -->
    <path d="M0,-10 L-10,5 L-5,0 L0,5 L5,0 L10,5 Z" fill="#ec4899" />
    <!-- Smile -->
    <path d="M-7,7 C-5,12 5,12 7,7" fill="none" stroke="#ec4899" stroke-width="1.5" />
  </g>
  
  <!-- Turquoise - Unity/Holism -->
  <g transform="translate(200, 350)" filter="url(#glowEffect)">
    <circle cx="0" cy="0" r="20" fill="#cffafe" stroke="#0ea5e9" stroke-width="1" />
    <!-- Unity symbol -->
    <circle cx="0" cy="0" r="10" fill="none" stroke="#0ea5e9" stroke-width="1.5" />
    <path d="M0,-10 C10,0 0,10 -10,0 C0,-10 10,0" fill="none" stroke="#0ea5e9" stroke-width="1.5" />
  </g>
  
  <!-- Glitch effect overlay to suggest infinite adaptability -->
  <g filter="url(#glitchEffect)" opacity="0.3">
    <path d="M200,175 Q250,200 300,150 Q350,100 300,50 Q250,0 200,50 Q150,0 100,50 Q50,100 100,150 Q150,200 200,175" fill="none" stroke="url(#rainbowGradient)" stroke-width="1" />
    <circle cx="200" cy="200" r="150" fill="none" stroke="url(#rainbowGradient)" stroke-width="0.5" stroke-dasharray="5,5" />
  </g>
  
  <!-- Title -->
  <g filter="url(#glowEffect)">
    <rect x="125" y="35" width="150" height="30" rx="15" ry="15" fill="white" fill-opacity="0.7" stroke="#94a3b8" stroke-width="1" />
    <text x="200" y="55" font-family="Arial" font-size="12" text-anchor="middle" fill="#1e293b" font-weight="bold">UNIVERSAL PRACTICES</text>
  </g>
</svg>
