<svg xmlns="http://www.w3.org/2000/svg" viewBox="0 0 400 400">
  <!-- Background: Complex systemic gradient -->
  <defs>
    <linearGradient id="yellowGradient" x1="0%" y1="0%" x2="100%" y2="100%">
      <stop offset="0%" style="stop-color:#fcd34d;stop-opacity:0.15" />
      <stop offset="100%" style="stop-color:#f59e0b;stop-opacity:0.5" />
    </linearGradient>
    
    <pattern id="gridSystem" patternUnits="userSpaceOnUse" width="40" height="40">
      <rect width="40" height="40" fill="none" />
      <path d="M 0 0 L 40 40 M 40 0 L 0 40" stroke="#eab308" stroke-width="0.5" opacity="0.1" />
    </pattern>
    
    <filter id="holographicEffect" x="-50%" y="-50%" width="200%" height="200%">
      <feTurbulence type="fractalNoise" baseFrequency="0.01" numOctaves="2" result="noise" />
      <feDisplacementMap in="SourceGraphic" in2="noise" scale="5" xChannelSelector="R" yChannelSelector="G" />
      <feGaussianBlur stdDeviation="0.5" />
    </filter>
    
    <marker id="arrowhead" markerWidth="10" markerHeight="7" refX="0" refY="3.5" orient="auto">
      <polygon points="0 0, 10 3.5, 0 7" fill="#f59e0b" />
    </marker>
  </defs>
  
  <!-- Background -->
  <rect x="0" y="0" width="400" height="400" fill="white" />
  <rect x="50" y="50" width="300" height="300" rx="15" ry="15" fill="url(#yellowGradient)" />
  <rect x="50" y="50" width="300" height="300" rx="15" ry="15" fill="url(#gridSystem)" />
  
  <!-- Spiral Dynamic Core -->
  <g transform="translate(200, 200)" filter="url(#holographicEffect)">
    <!-- Base spiral -->
    <path d="M0,0 Q10,-10 20,-5 Q30,-20 20,10 Q40,-5 30,20 Q50,10 20,30 Q40,40 10,30 Q20,50 -10,30 Q-5,45 -20,20 Q-30,30 -25,0 Q-40,10 -20,-15 Q-30,-5 -10,-25 Q-20,-35 10,-20 Q-5,-40 15,-15 Q10,-30 10,-10 Q20,-15 0,0"
          fill="none" stroke="#f59e0b" stroke-width="2" />
          
    <!-- Spiral layers (second tier) -->
    <path d="M0,0 Q5,-5 10,-2.5 Q15,-10 10,5 Q20,-2.5 15,10 Q25,5 10,15 Q20,20 5,15 Q10,25 -5,15 Q-2.5,22.5 -10,10 Q-15,15 -12.5,0 Q-20,5 -10,-7.5 Q-15,-2.5 -5,-12.5 Q-10,-17.5 5,-10 Q-2.5,-20 7.5,-7.5 Q5,-15 5,-5 Q10,-7.5 0,0"
          fill="none" stroke="#eab308" stroke-width="1" opacity="0.7" />
          
    <!-- Concentric circles -->
    <circle cx="0" cy="0" r="50" fill="none" stroke="#eab308" stroke-width="0.5" stroke-dasharray="5,3" />
    <circle cx="0" cy="0" r="35" fill="none" stroke="#eab308" stroke-width="0.5" stroke-dasharray="5,3" />
    <circle cx="0" cy="0" r="20" fill="none" stroke="#eab308" stroke-width="0.5" stroke-dasharray="5,3" />
  </g>
  
  <!-- Quadrant 1: Interconnected Nodes (Top Left) -->
  <circle cx="125" cy="125" r="45" fill="#facc15" fill-opacity="0.2" />
  <!-- Network structure -->
  <g transform="translate(125, 125)">
    <!-- Central node -->
    <circle cx="0" cy="0" r="8" fill="#facc15" />
    
    <!-- Outer nodes -->
    <circle cx="-25" cy="-15" r="5" fill="#f59e0b" />
    <circle cx="15" cy="-25" r="5" fill="#f59e0b" />
    <circle cx="25" cy="10" r="5" fill="#f59e0b" />
    <circle cx="0" cy="25" r="5" fill="#f59e0b" />
    <circle cx="-20" cy="15" r="5" fill="#f59e0b" />
    
    <!-- Connections -->
    <line x1="0" y1="0" x2="-25" y2="-15" stroke="#eab308" stroke-width="1.5" />
    <line x1="0" y1="0" x2="15" y2="-25" stroke="#eab308" stroke-width="1.5" />
    <line x1="0" y1="0" x2="25" y2="10" stroke="#eab308" stroke-width="1.5" />
    <line x1="0" y1="0" x2="0" y2="25" stroke="#eab308" stroke-width="1.5" />
    <line x1="0" y1="0" x2="-20" y2="15" stroke="#eab308" stroke-width="1.5" />
    
    <!-- Cross connections -->
    <line x1="-25" y1="-15" x2="15" y2="-25" stroke="#eab308" stroke-width="0.75" stroke-dasharray="2,1" />
    <line x1="15" y1="-25" x2="25" y2="10" stroke="#eab308" stroke-width="0.75" stroke-dasharray="2,1" />
    <line x1="25" y1="10" x2="0" y2="25" stroke="#eab308" stroke-width="0.75" stroke-dasharray="2,1" />
    <line x1="0" y1="25" x2="-20" y2="15" stroke="#eab308" stroke-width="0.75" stroke-dasharray="2,1" />
    <line x1="-20" y1="15" x2="-25" y2="-15" stroke="#eab308" stroke-width="0.75" stroke-dasharray="2,1" />
  </g>
  
  <!-- Quadrant 2: Fractal Lotus (Top Right) -->
  <circle cx="275" cy="125" r="45" fill="#facc15" fill-opacity="0.2" />
  <!-- Fractal structure -->
  <g transform="translate(275, 125)">
    <!-- First level -->
    <path d="M0,0 L0,-20 L15,-15 L20,0 L15,15 L0,20 L-15,15 L-20,0 L-15,-15 Z" fill="none" stroke="#eab308" stroke-width="1.5" />
    
    <!-- Second level - top -->
    <path d="M0,-20 L0,-28 L5,-25 L7,-20 L5,-15 Z" fill="none" stroke="#eab308" stroke-width="1" />
    
    <!-- Second level - top right -->
    <path d="M15,-15 L20,-20 L17,-15 L20,-10 L15,-7 Z" fill="none" stroke="#eab308" stroke-width="1" />
    
    <!-- Second level - right -->
    <path d="M20,0 L28,0 L25,5 L20,7 L15,5 Z" fill="none" stroke="#eab308" stroke-width="1" />
    
    <!-- Second level - bottom right -->
    <path d="M15,15 L20,20 L15,17 L10,20 L7,15 Z" fill="none" stroke="#eab308" stroke-width="1" />
    
    <!-- Second level - bottom -->
    <path d="M0,20 L0,28 L-5,25 L-7,20 L-5,15 Z" fill="none" stroke="#eab308" stroke-width="1" />
    
    <!-- Second level - bottom left -->
    <path d="M-15,15 L-20,20 L-15,17 L-10,20 L-7,15 Z" fill="none" stroke="#eab308" stroke-width="1" />
    
    <!-- Second level - left -->
    <path d="M-20,0 L-28,0 L-25,-5 L-20,-7 L-15,-5 Z" fill="none" stroke="#eab308" stroke-width="1" />
    
    <!-- Second level - top left -->
    <path d="M-15,-15 L-20,-20 L-17,-15 L-20,-10 L-15,-7 Z" fill="none" stroke="#eab308" stroke-width="1" />
    
    <!-- Center point -->
    <circle cx="0" cy="0" r="5" fill="#facc15" />
    
    <!-- Nested fractals hint -->
    <circle cx="0" cy="0" r="10" fill="none" stroke="#f59e0b" stroke-width="0.75" stroke-dasharray="2,1" />
  </g>
  
  <!-- Quadrant 3: Spiral Flowchart (Bottom Left) -->
  <circle cx="125" cy="275" r="45" fill="#facc15" fill-opacity="0.2" />
  <!-- Flowchart structure -->
  <g transform="translate(125, 275)">
    <!-- Nodes -->
    <rect x="-25" y="-25" width="20" height="10" rx="2" ry="2" fill="#fef9c3" stroke="#eab308" stroke-width="1" />
    <rect x="5" y="-25" width="20" height="10" rx="2" ry="2" fill="#fef9c3" stroke="#eab308" stroke-width="1" />
    <rect x="-25" y="-5" width="20" height="10" rx="2" ry="2" fill="#fef9c3" stroke="#eab308" stroke-width="1" />
    <rect x="5" y="-5" width="20" height="10" rx="2" ry="2" fill="#fef9c3" stroke="#eab308" stroke-width="1" />
    <rect x="-25" y="15" width="20" height="10" rx="2" ry="2" fill="#fef9c3" stroke="#eab308" stroke-width="1" />
    <rect x="5" y="15" width="20" height="10" rx="2" ry="2" fill="#fef9c3" stroke="#eab308" stroke-width="1" />
    
    <!-- Diamond decision node -->
    <path d="M-10,0 L0,-10 L10,0 L0,10 Z" fill="#facc15" stroke="#eab308" stroke-width="1" />
    
    <!-- Connections with arrows -->
    <line x1="-15" y1="-15" x2="-15" y2="-5" stroke="#eab308" stroke-width="1" marker-end="url(#arrowhead)" />
    <line x1="15" y1="-15" x2="15" y2="-5" stroke="#eab308" stroke-width="1" marker-end="url(#arrowhead)" />
    <line x1="-15" y1="5" x2="-15" y2="15" stroke="#eab308" stroke-width="1" marker-end="url(#arrowhead)" />
    <line x1="15" y1="5" x2="15" y2="15" stroke="#eab308" stroke-width="1" marker-end="url(#arrowhead)" />
    
    <line x1="-5" y1="-20" x2="5" y2="-20" stroke="#eab308" stroke-width="1" marker-end="url(#arrowhead)" />
    <line x1="-5" y1="0" x2="5" y2="0" stroke="#eab308" stroke-width="1" marker-end="url(#arrowhead)" />
    <line x1="-5" y1="20" x2="5" y2="20" stroke="#eab308" stroke-width="1" marker-end="url(#arrowhead)" />
    
    <!-- Circular pattern -->
    <path d="M-25,-20 C-35,-20 -35,20 -25,20" fill="none" stroke="#eab308" stroke-width="1" stroke-dasharray="3,2" marker-end="url(#arrowhead)" />
  </g>
  
  <!-- Quadrant 4: Laughing Buddha with Clipboard (Bottom Right) -->
  <circle cx="275" cy="275" r="45" fill="#facc15" fill-opacity="0.2" />
  <!-- Buddha figure -->
  <g transform="translate(275, 275)">
    <!-- Body -->
    <ellipse cx="0" cy="5" rx="18" ry="20" fill="#fcd34d" stroke="#eab308" stroke-width="1" />
    
    <!-- Head -->
    <circle cx="0" cy="-20" r="15" fill="#fcd34d" stroke="#eab308" stroke-width="1" />
    
    <!-- Face -->
    <circle cx="-5" cy="-23" r="2" fill="#ca8a04" /> <!-- left eye -->
    <circle cx="5" cy="-23" r="2" fill="#ca8a04" /> <!-- right eye -->
    <path d="M-6,-16 C-3,-13 3,-13 6,-16" stroke="#ca8a04" stroke-width="1.5" fill="none" /> <!-- smile -->
    <path d="M-10,-25 C-5,-30 5,-30 10,-25" stroke="#ca8a04" stroke-width="1" fill="none" /> <!-- eyebrows -->
    
    <!-- Arms -->
    <path d="M-18,5 C-25,10 -30,20 -20,15" stroke="#eab308" stroke-width="2" fill="none" /> <!-- left arm -->
    <path d="M18,5 C23,0 28,-10 20,-15" stroke="#eab308" stroke-width="2" fill="none" /> <!-- right arm -->
    
    <!-- Clipboard -->
    <rect x="-15" y="-15" width="12" height="15" fill="#fef9c3" stroke="#ca8a04" stroke-width="1" />
    <path d="M-13,-12 L-5,-12 M-13,-9 L-5,-9 M-13,-6 L-5,-6" stroke="#ca8a04" stroke-width="1" />
    
    <!-- Laughter lines -->
    <path d="M15,-15 C18,-17 20,-15 22,-13" stroke="#eab308" stroke-width="0.75" fill="none" />
    <path d="M17,-10 C20,-12 22,-10 24,-8" stroke="#eab308" stroke-width="0.75" fill="none" />
    <path d="M18,-5 C21,-7 23,-5 25,-3" stroke="#eab308" stroke-width="0.75" fill="none" />
  </g>
  
  <!-- Connecting elements - flow lines -->
  <path d="M125,125 Q175,150 200,200 Q225,250 275,275" fill="none" stroke="#f59e0b" stroke-width="1.5" stroke-dasharray="4,3" />
  <path d="M275,125 Q225,150 200,200 Q175,250 125,275" fill="none" stroke="#f59e0b" stroke-width="1.5" stroke-dasharray="4,3" />
  
  <!-- Central meta-viewer element -->
  <circle cx="200" cy="200" r="25" fill="#facc15" fill-opacity="0.3" stroke="#eab308" stroke-width="1" />
  <g transform="translate(200, 200)">
    <!-- Magnifying glass -->
    <circle cx="0" cy="0" r="10" fill="none" stroke="#ca8a04" stroke-width="2" />
    <line x1="7" y1="7" x2="15" y2="15" stroke="#ca8a04" stroke-width="3" />
    <!-- Meta pattern inside -->
    <path d="M-5,-5 L5,5 M-5,5 L5,-5" stroke="#fef9c3" stroke-width="1" />
  </g>
  
  <!-- Title plate -->
  <rect x="150" y="35" width="100" height="25" rx="12" ry="12" fill="#fef9c3" stroke="#eab308" stroke-width="1" />
  <text x="200" y="53" font-family="Arial" font-size="12" text-anchor="middle" fill="#ca8a04" font-weight="bold">YELLOW STAGE</text>
</svg>
