<?xml version="1.0" encoding="UTF-8" standalone="no"?>
<svg viewBox="0 0 500 500" xmlns="http://www.w3.org/2000/svg">
  <!-- Background with subtle texture -->
  <defs>
    <!-- Subtle paper texture -->
    <filter id="paperTexture" x="0%" y="0%" width="100%" height="100%">
      <feTurbulence type="fractalNoise" baseFrequency="0.04" numOctaves="5" result="noise"/>
      <feColorMatrix type="matrix" values="1 0 0 0 0
                                           0 1 0 0 0
                                           0 0 1 0 0
                                           0 0 0 0.03 0" in="noise" result="fadedNoise"/>
      <feBlend in="SourceGraphic" in2="fadedNoise" mode="multiply" result="blend"/>
    </filter>
    
    <!-- Eraser effect for spiral -->
    <mask id="eraserMask">
      <rect width="100%" height="100%" fill="white"/>
      <!-- Eraser marks -->
      <rect x="150" y="160" width="200" height="40" fill="black" opacity="0.7" rx="20" ry="20" transform="rotate(45, 250, 250)"/>
      <rect x="180" y="270" width="150" height="30" fill="black" opacity="0.6" rx="15" ry="15" transform="rotate(-30, 250, 250)"/>
      <rect x="240" y="180" width="100" height="25" fill="black" opacity="0.5" rx="12" ry="12" transform="rotate(15, 250, 250)"/>
    </mask>
  </defs>
  
  <!-- Main background with texture -->
  <rect x="0" y="0" width="500" height="500" fill="#FCFCFC" filter="url(#paperTexture)"/>
  
  <!-- Nearly invisible elements -->
  <g opacity="0.08">
    <!-- Self-erasing spiral -->
    <path d="M 250,250 
             L 250,250 
             M 250,250 
             C 270,230 290,230 300,250
             C 310,270 300,290 280,300
             C 260,310 240,300 230,280
             C 220,260 230,240 250,230
             C 270,220 290,230 300,250
             C 310,270 300,290 280,300
             C 260,310 240,300 230,280
             C 220,260 230,240 250,230
             C 270,220 290,230 310,250
             C 320,270 310,290 290,310
             C 260,320 230,310 220,280
             C 210,250 220,220 250,210
             C 280,200 310,220 320,250"
          fill="none" stroke="#777777" stroke-width="0.5" mask="url(#eraserMask)"/>
  </g>
  
  <!-- Teacup casting no shadow -->
  <g opacity="0.12" transform="translate(320, 280)">
    <!-- Cup -->
    <path d="M -20,0 
             C -20,-20 20,-20 20,0
             L 15,20
             C 5,25 -5,25 -15,20 Z" 
          fill="none" stroke="#555555" stroke-width="0.3"/>
    
    <!-- Handle -->
    <path d="M 20,5 
             C 30,5 30,15 20,15"
          fill="none" stroke="#555555" stroke-width="0.3"/>
    
    <!-- Saucer -->
    <ellipse cx="0" cy="25" rx="25" ry="5" fill="none" stroke="#555555" stroke-width="0.2"/>
    
    <!-- Where the shadow would be, but isn't -->
    <text x="0" y="40" font-family="monospace" font-size="3" text-anchor="middle" fill="#AAAAAA" opacity="0.2">no shadow here</text>
  </g>
  
  <!-- "No problem here" in microscopic text -->
  <text x="250" y="390" font-family="serif" font-size="4" text-anchor="middle" fill="#AAAAAA" opacity="0.1">no problem here</text>
  
  <!-- Hidden joke: "You found me!" -->
  <text x="180" y="120" font-family="cursive" font-size="3" fill="#9999AA" opacity="0.05" transform="rotate(-5, 180, 120)">You found me!</text>
  
  <!-- Fingerprint-like swirl - barely visible -->
  <g transform="translate(100, 350)" opacity="0.03">
    <path d="M 0,0 
             C 5,-10 15,-10 20,0
             C 25,10 20,20 10,25
             C 0,30 -10,25 -15,15
             C -20,5 -15,-5 -5,-10
             C 5,-15 15,-10 20,0"
          fill="none" stroke="#444444" stroke-width="0.2"/>
  </g>
  
  <!-- Translucent blue hint -->
  <circle cx="400" cy="150" r="40" fill="#AACCFF" opacity="0.03"/>
  
  <!-- Faint corner fold -->
  <path d="M 485,15 L 470,0 L 500,0 L 500,30 L 485,15" fill="#EEEEEE" opacity="0.2"/>
  
  <!-- Nearly invisible grid pattern -->
  <g opacity="0.02">
    <line x1="100" y1="0" x2="100" y2="500" stroke="#CCCCCC" stroke-width="0.2"/>
    <line x1="200" y1="0" x2="200" y2="500" stroke="#CCCCCC" stroke-width="0.2"/>
    <line x1="300" y1="0" x2="300" y2="500" stroke="#CCCCCC" stroke-width="0.2"/>
    <line x1="400" y1="0" x2="400" y2="500" stroke="#CCCCCC" stroke-width="0.2"/>
    
    <line x1="0" y1="100" x2="500" y2="100" stroke="#CCCCCC" stroke-width="0.2"/>
    <line x1="0" y1="200" x2="500" y2="200" stroke="#CCCCCC" stroke-width="0.2"/>
    <line x1="0" y1="300" x2="500" y2="300" stroke="#CCCCCC" stroke-width="0.2"/>
    <line x1="0" y1="400" x2="500" y2="400" stroke="#CCCCCC" stroke-width="0.2"/>
  </g>
  
  <!-- Extremely subtle watermark -->
  <text x="250" y="250" font-family="serif" font-size="40" text-anchor="middle" fill="#FAFAFA" opacity="0.01" transform="rotate(-30, 250, 250)">Clear</text>
</svg>
