<svg xmlns="http://www.w3.org/2000/svg" viewBox="0 0 500 500">
  <!-- Background with earthy/natural texture -->
  <defs>
    <linearGradient id="greenGradient" x1="0%" y1="0%" x2="100%" y2="100%">
      <stop offset="0%" style="stop-color:#dcfce7;stop-opacity:1" />
      <stop offset="100%" style="stop-color:#bbf7d0;stop-opacity:1" />
    </linearGradient>
    
    <pattern id="leafPattern" patternUnits="userSpaceOnUse" width="100" height="100">
      <path d="M0,50 Q25,25 50,50 Q75,25 100,50" fill="none" stroke="#86efac" stroke-width="0.5" stroke-opacity="0.3" />
      <path d="M50,0 Q25,25 50,50 Q25,75 50,100" fill="none" stroke="#86efac" stroke-width="0.5" stroke-opacity="0.3" />
    </pattern>
    
    <filter id="softGlow" x="-20%" y="-20%" width="140%" height="140%">
      <feGaussianBlur stdDeviation="3" result="blur" />
      <feComposite in="SourceGraphic" in2="blur" operator="over" />
    </filter>
    
    <filter id="roughEdge" x="-10%" y="-10%" width="120%" height="120%">
      <feTurbulence type="fractalNoise" baseFrequency="0.05" numOctaves="2" result="noise" />
      <feDisplacementMap in="SourceGraphic" in2="noise" scale="5" xChannelSelector="R" yChannelSelector="G" />
    </filter>
  </defs>
  
  <!-- Background -->
  <rect x="0" y="0" width="500" height="500" fill="url(#greenGradient)" />
  <rect x="0" y="0" width="500" height="500" fill="url(#leafPattern)" />
  
  <!-- Fractured/Blooming Mandala -->
  <g transform="translate(250, 250)">
    <!-- Broken mandala base -->
    <g filter="url(#roughEdge)">
      <path d="M-120,0 A120,120 0 0,1 -60,-104 L0,0 Z" fill="#34d399" fill-opacity="0.3" stroke="#22c55e" stroke-width="1" />
      <path d="M-60,-104 A120,120 0 0,1 60,-104 L0,0 Z" fill="#34d399" fill-opacity="0.3" stroke="#22c55e" stroke-width="1" />
      <path d="M60,-104 A120,120 0 0,1 120,0 L0,0 Z" fill="#34d399" fill-opacity="0.3" stroke="#22c55e" stroke-width="1" />
      <path d="M120,0 A120,120 0 0,1 60,104 L0,0 Z" fill="#34d399" fill-opacity="0.3" stroke="#22c55e" stroke-width="1" />
      <path d="M60,104 A120,120 0 0,1 -60,104 L0,0 Z" fill="#34d399" fill-opacity="0.3" stroke="#22c55e" stroke-width="1" />
      <path d="M-60,104 A120,120 0 0,1 -120,0 L0,0 Z" fill="#34d399" fill-opacity="0.3" stroke="#22c55e" stroke-width="1" />
    </g>
    
    <!-- Cracks in the mandala -->
    <path d="M0,0 L-85,-85" fill="none" stroke="#166534" stroke-width="1" stroke-dasharray="5,3" />
    <path d="M0,0 L85,-85" fill="none" stroke="#166534" stroke-width="1" stroke-dasharray="5,3" />
    <path d="M0,0 L0,-120" fill="none" stroke="#166534" stroke-width="1" stroke-dasharray="5,3" />
    <path d="M0,0 L-120,0" fill="none" stroke="#166534" stroke-width="1" stroke-dasharray="5,3" />
    <path d="M0,0 L0,120" fill="none" stroke="#166534" stroke-width="1" stroke-dasharray="5,3" />
    
    <!-- Thorny vines growing from cracks -->
    <path d="M0,0 Q-40,-40 -85,-85" fill="none" stroke="#166534" stroke-width="2" />
    <path d="M-50,-50 L-55,-45 M-65,-65 L-70,-60 M-40,-60 L-45,-55" fill="none" stroke="#166534" stroke-width="1" /> <!-- thorns -->
    
    <path d="M0,0 Q40,-40 85,-85" fill="none" stroke="#166534" stroke-width="2" />
    <path d="M50,-50 L55,-45 M65,-65 L70,-60 M40,-60 L45,-55" fill="none" stroke="#166534" stroke-width="1" /> <!-- thorns -->
    
    <path d="M0,0 Q0,-60 0,-120" fill="none" stroke="#166534" stroke-width="2" />
    <path d="M5,-50 L10,-55 M-5,-70 L-10,-75 M0,-90 L5,-95" fill="none" stroke="#166534" stroke-width="1" /> <!-- thorns -->
    
    <path d="M0,0 Q-60,0 -120,0" fill="none" stroke="#166534" stroke-width="2" />
    <path d="M-50,5 L-55,10 M-70,-5 L-75,-10 M-90,0 L-95,5" fill="none" stroke="#166534" stroke-width="1" /> <!-- thorns -->
    
    <path d="M0,0 Q0,60 0,120" fill="none" stroke="#166534" stroke-width="2" />
    <path d="M5,50 L10,55 M-5,70 L-10,75 M0,90 L5,95" fill="none" stroke="#166534" stroke-width="1" /> <!-- thorns -->
    
    <!-- New flowers blooming on thorny vines -->
    <circle cx="-85" cy="-85" r="12" fill="#4ade80" />
    <circle cx="-85" cy="-85" r="6" fill="#f472b6" />
    
    <circle cx="85" cy="-85" r="12" fill="#4ade80" />
    <circle cx="85" cy="-85" r="6" fill="#f472b6" />
    
    <circle cx="0" cy="-120" r="12" fill="#4ade80" />
    <circle cx="0" cy="-120" r="6" fill="#f472b6" />
    
    <circle cx="-120" cy="0" r="12" fill="#4ade80" />
    <circle cx="-120" cy="0" r="6" fill="#f472b6" />
    
    <circle cx="0" cy="120" r="12" fill="#4ade80" />
    <circle cx="0" cy="120" r="6" fill="#f472b6" />
  </g>
  
  <!-- 1. Wilted Roses/Flowers -->
  <g transform="translate(150, 150)">
    <circle cx="0" cy="0" r="50" fill="#dcfce7" stroke="#166534" stroke-width="1" />
    
    <!-- Wilted flower -->
    <path d="M0,25 C-5,15 -10,0 0,-10" fill="none" stroke="#166534" stroke-width="1.5" /> <!-- stem drooping -->
    
    <!-- Wilted petals -->
    <path d="M0,-10 C-10,-15 -15,-10 -10,-5" fill="none" stroke="#f472b6" stroke-width="1" />
    <path d="M0,-10 C0,-20 10,-20 10,-10" fill="none" stroke="#f472b6" stroke-width="1" />
    <path d="M0,-10 C10,-15 15,-10 10,-5" fill="none" stroke="#f472b6" stroke-width="1" />
    
    <!-- Fallen petals -->
    <path d="M-15,20 Q-10,25 -5,20" fill="#f472b6" fill-opacity="0.5" />
    <path d="M5,25 Q10,30 15,25" fill="#f472b6" fill-opacity="0.5" />
    
    <!-- New growth emerging -->
    <path d="M-5,15 L-10,5" stroke="#166534" stroke-width="0.8" />
    <circle cx="-10" cy="5" r="3" fill="#4ade80" />
  </g>
  
  <!-- 2. Splintered Protest Sign -->
  <g transform="translate(350, 150)">
    <circle cx="0" cy="0" r="50" fill="#dcfce7" stroke="#166534" stroke-width="1" />
    
    <!-- Broken sign -->
    <rect x="-30" y="-25" width="60" height="35" fill="#f5f5f4" stroke="#a8a29e" stroke-width="1" />
    <path d="M-30,-8 L30,-8" stroke="#a8a29e" stroke-width="1" />
    <path d="M-10,-8 L-10,10 M10,-8 L10,25" stroke="#a8a29e" stroke-width="1" />
    
    <!-- Break in the sign -->
    <path d="M-5,-8 L5,-8 M-10,0 L10,0" stroke="#f5f5f4" stroke-width="3" />
    <path d="M-30,-25 L-20,-15 M20,-15 L30,-25" stroke="#a8a29e" stroke-width="0.5" />
    
    <!-- Text on sign -->
    <text x="0" y="-15" font-family="Arial" font-size="8" text-anchor="middle" fill="#44403c">PEACE</text>
    
    <!-- Hidden Easter egg -->
    <text x="0" y="7" font-family="Arial" font-size="5" text-anchor="middle" fill="#44403c">Nice ≠ Kind</text>
  </g>
  
  <!-- 3. Heart Pierced by Sword Entwined with Ivy -->
  <g transform="translate(150, 350)">
    <circle cx="0" cy="0" r="50" fill="#dcfce7" stroke="#166534" stroke-width="1" />
    
    <!-- Heart -->
    <path d="M0,20 C-20,0 -30,-25 0,-15 C30,-25 20,0 0,20" fill="#f472b6" stroke="#be185d" stroke-width="1" />
    
    <!-- Sword piercing heart -->
    <rect x="-2" y="-40" width="4" height="80" fill="#94a3b8" stroke="#64748b" stroke-width="0.5" />
    <path d="M-10,-30 L10,-30 L0,-40 Z" fill="#94a3b8" stroke="#64748b" stroke-width="0.5" /> <!-- sword hilt -->
    <path d="M-7,30 L7,30 L0,40 Z" fill="#94a3b8" stroke="#64748b" stroke-width="0.5" /> <!-- sword tip -->
    
    <!-- Ivy vines entwining sword -->
    <path d="M-2,-30 C-10,-20 -5,-10 -10,0 C-15,10 -10,20 -5,30" fill="none" stroke="#166534" stroke-width="1" />
    <path d="M2,-30 C10,-20 5,-10 10,0 C15,10 10,20 5,30" fill="none" stroke="#166534" stroke-width="1" />
    
    <!-- Ivy leaves -->
    <path d="M-10,0 L-20,-5 L-15,5" fill="#4ade80" stroke="#166534" stroke-width="0.5" />
    <path d="M10,0 L20,-5 L15,5" fill="#4ade80" stroke="#166534" stroke-width="0.5" />
    <path d="M-5,20 L-15,15 L-10,25" fill="#4ade80" stroke="#166534" stroke-width="0.5" />
    <path d="M5,20 L15,15 L10,25" fill="#4ade80" stroke="#166534" stroke-width="0.5" />
    <path d="M-5,-20 L-15,-25 L-10,-15" fill="#4ade80" stroke="#166534" stroke-width="0.5" />
    <path d="M5,-20 L15,-25 L10,-15" fill="#4ade80" stroke="#166534" stroke-width="0.5" />
  </g>
  
  <!-- 4. Tangled Group-Hug Silhouettes -->
  <g transform="translate(350, 350)">
    <circle cx="0" cy="0" r="50" fill="#dcfce7" stroke="#166534" stroke-width="1" />
    
    <!-- Figures in a group hug/tangle -->
    <circle cx="-15" cy="-15" r="8" fill="#f5f5f4" stroke="#64748b" stroke-width="0.5" />
    <circle cx="15" cy="-15" r="8" fill="#f5f5f4" stroke="#64748b" stroke-width="0.5" />
    <circle cx="0" cy="15" r="8" fill="#f5f5f4" stroke="#64748b" stroke-width="0.5" />
    
    <!-- Arms tangled and connected -->
    <path d="M-15,-7 C-20,0 -10,10 0,7" fill="none" stroke="#64748b" stroke-width="1" />
    <path d="M15,-7 C20,0 10,10 0,7" fill="none" stroke="#64748b" stroke-width="1" />
    <path d="M-8,-15 C0,-20 8,-15 8,-15" fill="none" stroke="#64748b" stroke-width="1" />
    <path d="M-7,15 C-15,5 -10,-5 -15,-7" fill="none" stroke="#64748b" stroke-width="1" />
    <path d="M7,15 C15,5 10,-5 15,-7" fill="none" stroke="#64748b" stroke-width="1" />
    
    <!-- Thorny boundary emerging -->
    <circle cx="0" cy="0" r="30" fill="none" stroke="#166534" stroke-width="0.5" stroke-dasharray="2,3" />
    <path d="M0,-30 L0,-35 M-30,0 L-35,0 M0,30 L0,35 M30,0 L35,0" stroke="#166534" stroke-width="1" />
    <path d="M-21,-21 L-25,-25 M21,-21 L25,-25 M-21,21 L-25,25 M21,21 L25,25" stroke="#166534" stroke-width="1" />
  </g>
  
  <!-- 5. Broken Peace Sign -->
  <g transform="translate(250, 100)">
    <circle cx="0" cy="0" r="30" fill="#dcfce7" stroke="#166534" stroke-width="1" />
    
    <!-- Peace sign -->
    <circle cx="0" cy="0" r="20" fill="none" stroke="#166534" stroke-width="1.5" />
    <path d="M0,-20 L0,0" stroke="#166534" stroke-width="1.5" />
    
    <!-- Broken lines -->
    <path d="M0,0 L-10,-17" stroke="#166534" stroke-width="1.5" /> <!-- incomplete line -->
    <path d="M0,0 L5,8" stroke="#166534" stroke-width="1.5" /> <!-- broken piece -->
    <path d="M10,17 L17,9" stroke="#166534" stroke-width="1.5" /> <!-- broken piece -->
    
    <!-- New growth from break -->
    <path d="M5,8 C10,5 15,10 10,17" fill="none" stroke="#166534" stroke-width="0.8" />
    <circle cx="12" cy="13" r="3" fill="#4ade80" />
  </g>
  
  <!-- 6. Shattered Vase with Fresh Sprouts -->
  <g transform="translate(250, 400)">
    <circle cx="0" cy="0" r="30" fill="#dcfce7" stroke="#166534" stroke-width="1" />
    
    <!-- Broken vase pieces -->
    <path d="M-15,-15 L-5,-10 L-15,10 L-25,5 Z" fill="#94a3b8" fill-opacity="0.5" />
    <path d="M5,-10 L15,-15 L25,5 L15,10 Z" fill="#94a3b8" fill-opacity="0.5" />
    <path d="M-5,-10 L5,-10 L15,10 L-15,10 Z" fill="#94a3b8" fill-opacity="0.5" />
    
    <!-- Sprouts growing from broken vase -->
    <path d="M0,0 L0,-20" stroke="#166534" stroke-width="1" />
    <path d="M-5,-5 L-10,-15" stroke="#166534" stroke-width="1" />
    <path d="M5,-5 L10,-15" stroke="#166534" stroke-width="1" />
    
    <!-- Leaves -->
    <path d="M0,-20 L5,-25 L0,-18" fill="#4ade80" stroke="#166534" stroke-width="0.5" />
    <path d="M0,-20 L-5,-25 L0,-18" fill="#4ade80" stroke="#166534" stroke-width="0.5" />
    <path d="M-10,-15 L-15,-18 L-8,-13" fill="#4ade80" stroke="#166534" stroke-width="0.5" />
    <path d="M10,-15 L15,-18 L8,-13" fill="#4ade80" stroke="#166534" stroke-width="0.5" />
  </g>
  
  <!-- Title -->
  <g transform="translate(250, 470)">
    <text x="0" y="0" font-family="Arial" font-size="14" text-anchor="middle" fill="#166534" font-weight="bold">GREEN'S DISILLUSIONMENT CRISIS</text>
  </g>
</svg>
