<?xml version="1.0" encoding="UTF-8" standalone="no"?>
<svg viewBox="0 0 500 500" xmlns="http://www.w3.org/2000/svg">
  <!-- Background - City and Sky gradient -->
  <defs>
    <linearGradient id="skyGradient" x1="0%" y1="0%" x2="0%" y2="100%">
      <stop offset="0%" stop-color="#0a0a2a" />
      <stop offset="60%" stop-color="#2a6b88" />
      <stop offset="100%" stop-color="#40E0D0" />
    </linearGradient>
    
    <!-- Cosmic light rays -->
    <radialGradient id="cosmicLight" cx="50%" cy="20%" r="80%" fx="50%" fy="20%">
      <stop offset="0%" stop-color="#ffffff" stop-opacity="0.9"/>
      <stop offset="20%" stop-color="#40E0D0" stop-opacity="0.7"/>
      <stop offset="100%" stop-color="#40E0D0" stop-opacity="0"/>
    </radialGradient>
    
    <!-- Glow effect for the figure -->
    <filter id="glow" x="-30%" y="-30%" width="160%" height="160%">
      <feGaussianBlur stdDeviation="5" result="blur" />
      <feComposite in="SourceGraphic" in2="blur" operator="over" />
    </filter>
  </defs>
  
  <!-- Background -->
  <rect x="0" y="0" width="500" height="500" fill="url(#skyGradient)" />
  
  <!-- City skyline -->
  <g id="city" transform="translate(0, 300)">
    <!-- Buildings -->
    <rect x="10" y="0" width="30" height="200" fill="#101520" />
    <rect x="45" y="-50" width="40" height="250" fill="#101520" />
    <rect x="90" y="-20" width="35" height="220" fill="#101520" />
    <rect x="130" y="-80" width="50" height="280" fill="#101520" />
    <rect x="185" y="0" width="30" height="200" fill="#101520" />
    <rect x="220" y="-100" width="60" height="300" fill="#101520" />
    <rect x="285" y="-30" width="40" height="230" fill="#101520" />
    <rect x="330" y="-70" width="45" height="270" fill="#101520" />
    <rect x="380" y="0" width="30" height="200" fill="#101520" />
    <rect x="415" y="-40" width="55" height="240" fill="#101520" />
    <rect x="475" y="-20" width="25" height="220" fill="#101520" />
    
    <!-- Windows (small dots of light) -->
    <g fill="#FFFA" opacity="0.7">
      <!-- Building 1 -->
      <rect x="15" y="20" width="5" height="5" />
      <rect x="25" y="40" width="5" height="5" />
      <rect x="15" y="60" width="5" height="5" />
      <rect x="25" y="80" width="5" height="5" />
      
      <!-- Building 2 -->
      <rect x="55" y="-30" width="5" height="5" />
      <rect x="70" y="-10" width="5" height="5" />
      <rect x="55" y="10" width="5" height="5" />
      <rect x="70" y="30" width="5" height="5" />
      
      <!-- Add more windows to other buildings -->
      <rect x="100" y="0" width="5" height="5" />
      <rect x="115" y="20" width="5" height="5" />
      
      <rect x="140" y="-60" width="5" height="5" />
      <rect x="155" y="-40" width="5" height="5" />
      <rect x="170" y="-20" width="5" height="5" />
      
      <rect x="190" y="30" width="5" height="5" />
      <rect x="200" y="50" width="5" height="5" />
      
      <rect x="230" y="-80" width="5" height="5" />
      <rect x="250" y="-60" width="5" height="5" />
      <rect x="270" y="-40" width="5" height="5" />
      <rect x="250" y="-20" width="5" height="5" />
      <rect x="230" y="0" width="5" height="5" />
      
      <rect x="290" y="-10" width="5" height="5" />
      <rect x="305" y="10" width="5" height="5" />
      
      <rect x="340" y="-50" width="5" height="5" />
      <rect x="360" y="-30" width="5" height="5" />
      
      <rect x="390" y="20" width="5" height="5" />
      <rect x="400" y="40" width="5" height="5" />
      
      <rect x="425" y="-20" width="5" height="5" />
      <rect x="440" y="0" width="5" height="5" />
      <rect x="455" y="20" width="5" height="5" />
      
      <rect x="480" y="0" width="5" height="5" />
      <rect x="480" y="20" width="5" height="5" />
    </g>
  </g>
  
  <!-- Cosmic light rays -->
  <ellipse cx="250" cy="100" rx="300" ry="200" fill="url(#cosmicLight)" opacity="0.8" />
  
  <!-- Light beams connecting to humans below -->
  <g id="lightBeams" opacity="0.6">
    <path d="M 250 150 L 180 300" stroke="#40E0D0" stroke-width="4" opacity="0.4" />
    <path d="M 250 150 L 220 320" stroke="#40E0D0" stroke-width="3" opacity="0.5" />
    <path d="M 250 150 L 270 340" stroke="#40E0D0" stroke-width="5" opacity="0.4" />
    <path d="M 250 150 L 320 310" stroke="#40E0D0" stroke-width="3" opacity="0.5" />
  </g>
  
  <!-- Glowing figure -->
  <g id="radiantFigure" transform="translate(250, 150)" filter="url(#glow)">
    <!-- Body outline -->
    <ellipse cx="0" cy="0" rx="30" ry="45" fill="#40E0D0" opacity="0.8" />
    
    <!-- Head -->
    <circle cx="0" cy="-25" r="15" fill="#FFFFFF" opacity="0.9" />
    
    <!-- Arms outstretched -->
    <path d="M -5 -10 Q -40 0, -20 20" stroke="#FFFFFF" stroke-width="3" fill="none" opacity="0.8" />
    <path d="M 5 -10 Q 40 0, 20 20" stroke="#FFFFFF" stroke-width="3" fill="none" opacity="0.8" />
    
    <!-- Subway sandwich (subtle humor) -->
    <g transform="translate(20, 0) rotate(20) scale(0.6)">
      <path d="M -30 0 Q -30 -5, 0 -5 Q 30 -5, 30 0 Q 30 5, 0 5 Q -30 5, -30 0 Z" fill="#D2691E" />
      <path d="M -25 0 Q -25 -3, 0 -3 Q 25 -3, 25 0 Q 25 3, 0 3 Q -25 3, -25 0 Z" fill="#F0E68C" />
      <rect x="-20" y="-2" width="40" height="1" fill="#228B22" opacity="0.8" />
      <rect x="-18" y="0" width="36" height="1" fill="#FF6347" opacity="0.8" />
    </g>
  </g>
  
  <!-- Human hands reaching up -->
  <g id="reachingHands">
    <!-- Hand 1 -->
    <path d="M 180 300 Q 175 290, 170 285 L 168 290 Q 165 282, 162 280 L 160 285 Q 157 275, 155 273 L 153 277 Q 150 270, 148 268 L 145 272 Q 147 280, 150 285 Q 155 295, 165 300 Q 170 305, 180 300 Z" fill="#FFDBAC" stroke="#40E0D0" stroke-width="1" />
    
    <!-- Hand 2 -->
    <path d="M 220 320 Q 225 310, 230 305 L 232 310 Q 235 302, 238 300 L 240 305 Q 243 295, 245 293 L 247 297 Q 250 290, 252 288 L 255 292 Q 253 300, 250 305 Q 245 315, 235 320 Q 230 325, 220 320 Z" fill="#FFDBAC" stroke="#40E0D0" stroke-width="1" />
    
    <!-- Hand 3 -->
    <path d="M 270 340 Q 275 330, 280 325 L 282 330 Q 285 322, 288 320 L 290 325 Q 293 315, 295 313 L 297 317 Q 300 310, 302 308 L 305 312 Q 303 320, 300 325 Q 295 335, 285 340 Q 280 345, 270 340 Z" fill="#FFDBAC" stroke="#40E0D0" stroke-width="1" />
    
    <!-- Hand 4 with coffee cup -->
    <path d="M 320 310 Q 325 300, 330 295 L 332 300 Q 335 292, 338 290 L 340 295 Q 343 285, 345 283 L 347 287 Q 350 280, 352 278 L 355 282 Q 353 290, 350 295 Q 345 305, 335 310 Q 330 315, 320 310 Z" fill="#FFDBAC" stroke="#40E0D0" stroke-width="1" />
    
    <!-- Coffee cup -->
    <g transform="translate(335, 290) rotate(-10) scale(0.6)">
      <path d="M -10 0 L -7 15 L 7 15 L 10 0 Z" fill="#B87333" />
      <path d="M -7 0 L -5 12 L 5 12 L 7 0 Z" fill="#8B4513" />
      <path d="M 10 0 Q 15 5, 15 8 Q 15 10, 10 10 L 12 0 Z" fill="#B87333" />
      
      <!-- Unity WiFi signal -->
      <g transform="translate(0, 5) scale(0.5)">
        <path d="M 0 5 Q -5 0, -10 5 M 0 5 Q 5 0, 10 5 M 0 0 Q -10 -10, -20 0 M 0 0 Q 10 -10, 20 0" stroke="#40E0D0" stroke-width="1.5" fill="none" />
      </g>
    </g>
  </g>
  
  <!-- Easter egg: "WiFi password: oneness123" hidden in a tiny phone screen -->
  <g transform="translate(140, 285) scale(0.4)">
    <rect x="0" y="0" width="40" height="60" rx="5" fill="#333" stroke="#666" stroke-width="1" />
    <rect x="5" y="5" width="30" height="40" rx="2" fill="#222" stroke="#444" stroke-width="0.5" />
    <text x="20" y="15" font-family="Arial" font-size="3.5" text-anchor="middle" fill="#40E0D0">WiFi</text>
    <text x="20" y="20" font-family="Arial" font-size="2.5" text-anchor="middle" fill="#40E0D0">password:</text>
    <text x="20" y="25" font-family="Arial" font-size="2.5" text-anchor="middle" fill="#40E0D0">oneness123</text>
  </g>
  
  <!-- Light descending into streets -->
  <g id="descendingLight">
    <path d="M 100 200 L 120 300" stroke="#40E0D0" stroke-width="2" opacity="0.3" />
    <path d="M 150 180 L 160 320" stroke="#40E0D0" stroke-width="2" opacity="0.3" />
    <path d="M 350 190 L 370 310" stroke="#40E0D0" stroke-width="2" opacity="0.3" />
    <path d="M 400 200 L 410 330" stroke="#40E0D0" stroke-width="2" opacity="0.3" />
  </g>
  
  <!-- Street level details -->
  <g id="streetLevel" transform="translate(0, 450)">
    <rect x="0" y="0" width="500" height="50" fill="#333333" />
    <line x1="50" y1="10" x2="70" y2="10" stroke="#FFFF33" stroke-width="2" />
    <line x1="150" y1="10" x2="170" y2="10" stroke="#FFFF33" stroke-width="2" />
    <line x1="250" y1="10" x2="270" y2="10" stroke="#FFFF33" stroke-width="2" />
    <line x1="350" y1="10" x2="370" y2="10" stroke="#FFFF33" stroke-width="2" />
    <line x1="450" y1="10" x2="470" y2="10" stroke="#FFFF33" stroke-width="2" />
  </g>
</svg>
