<?xml version="1.0" encoding="UTF-8"?>
<svg viewBox="0 0 800 800" xmlns="http://www.w3.org/2000/svg">
  <!-- Definitions -->
  <defs>
    <!-- Gradients -->
    <linearGradient id="yellowTurquoiseGradient" x1="0%" y1="0%" x2="100%" y2="100%">
      <stop offset="0%" stop-color="#FFEB3B" />
      <stop offset="50%" stop-color="#4DD0E1" />
      <stop offset="100%" stop-color="#009688" />
    </linearGradient>
    
    <radialGradient id="centerGlow" cx="50%" cy="50%" r="50%" fx="50%" fy="50%">
      <stop offset="0%" stop-color="#FFEB3B" stop-opacity="0.8" />
      <stop offset="70%" stop-color="#4DD0E1" stop-opacity="0.6" />
      <stop offset="100%" stop-color="#009688" stop-opacity="0.3" />
    </radialGradient>
    
    <!-- Filters -->
    <filter id="blur" x="-50%" y="-50%" width="200%" height="200%">
      <feGaussianBlur in="SourceGraphic" stdDeviation="3" />
    </filter>
    
    <filter id="glow" x="-50%" y="-50%" width="200%" height="200%">
      <feGaussianBlur in="SourceGraphic" stdDeviation="5" />
      <feComposite in="SourceGraphic" operator="over" />
    </filter>
    
    <!-- Spiral Path for Animation -->
    <path id="spiralPath" d="M400,400 
                            Q430,430 450,400 
                            Q470,370 450,340 
                            Q430,310 400,300 
                            Q370,290 340,310 
                            Q310,330 300,360 
                            Q290,390 310,420 
                            Q330,450 360,460 
                            Q390,470 420,450 
                            Q450,430 460,400 
                            Q470,370 450,340 
                            Q430,310 400,300
                            Q370,290 340,310
                            Q310,330 300,360
                            Q290,390 310,420" />
  </defs>
  
  <!-- Background -->
  <rect width="800" height="800" fill="#F4F9F9" />
  
  <!-- Circular Background Glow -->
  <circle cx="400" cy="400" r="350" fill="url(#centerGlow)" opacity="0.3" />
  
  <!-- Interconnected Systems Web -->
  <g opacity="0.6">
    <!-- Main Nodes -->
    <circle cx="400" cy="200" r="10" fill="#FFEB3B" />
    <circle cx="600" cy="400" r="10" fill="#4DD0E1" />
    <circle cx="400" cy="600" r="10" fill="#FFEB3B" />
    <circle cx="200" cy="400" r="10" fill="#4DD0E1" />
    
    <!-- Secondary Nodes -->
    <circle cx="500" cy="250" r="8" fill="#FFEB3B" />
    <circle cx="550" cy="300" r="8" fill="#4DD0E1" />
    <circle cx="550" cy="500" r="8" fill="#FFEB3B" />
    <circle cx="500" cy="550" r="8" fill="#4DD0E1" />
    <circle cx="300" cy="550" r="8" fill="#FFEB3B" />
    <circle cx="250" cy="500" r="8" fill="#4DD0E1" />
    <circle cx="250" cy="300" r="8" fill="#FFEB3B" />
    <circle cx="300" cy="250" r="8" fill="#4DD0E1" />
    
    <!-- Connections -->
    <line x1="400" y1="200" x2="500" y2="250" stroke="#FFEB3B" stroke-width="2" opacity="0.5" />
    <line x1="500" y1="250" x2="550" y2="300" stroke="#4DD0E1" stroke-width="2" opacity="0.5" />
    <line x1="550" y1="300" x2="600" y2="400" stroke="#4DD0E1" stroke-width="2" opacity="0.5" />
    <line x1="600" y1="400" x2="550" y2="500" stroke="#4DD0E1" stroke-width="2" opacity="0.5" />
    <line x1="550" y1="500" x2="500" y2="550" stroke="#FFEB3B" stroke-width="2" opacity="0.5" />
    <line x1="500" y1="550" x2="400" y2="600" stroke="#4DD0E1" stroke-width="2" opacity="0.5" />
    <line x1="400" y1="600" x2="300" y2="550" stroke="#FFEB3B" stroke-width="2" opacity="0.5" />
    <line x1="300" y1="550" x2="250" y2="500" stroke="#4DD0E1" stroke-width="2" opacity="0.5" />
    <line x1="250" y1="500" x2="200" y2="400" stroke="#4DD0E1" stroke-width="2" opacity="0.5" />
    <line x1="200" y1="400" x2="250" y2="300" stroke="#4DD0E1" stroke-width="2" opacity="0.5" />
    <line x1="250" y1="300" x2="300" y2="250" stroke="#FFEB3B" stroke-width="2" opacity="0.5" />
    <line x1="300" y1="250" x2="400" y2="200" stroke="#4DD0E1" stroke-width="2" opacity="0.5" />
    
    <!-- Cross Connections -->
    <line x1="400" y1="200" x2="600" y2="400" stroke="#FFEB3B" stroke-width="1.5" opacity="0.3" />
    <line x1="600" y1="400" x2="400" y2="600" stroke="#4DD0E1" stroke-width="1.5" opacity="0.3" />
    <line x1="400" y1="600" x2="200" y2="400" stroke="#FFEB3B" stroke-width="1.5" opacity="0.3" />
    <line x1="200" y1="400" x2="400" y2="200" stroke="#4DD0E1" stroke-width="1.5" opacity="0.3" />
    <line x1="500" y1="250" x2="550" y2="500" stroke="#FFEB3B" stroke-width="1" opacity="0.2" />
    <line x1="550" y1="300" x2="300" y2="550" stroke="#4DD0E1" stroke-width="1" opacity="0.2" />
    <line x1="500" y1="550" x2="250" y2="300" stroke="#FFEB3B" stroke-width="1" opacity="0.2" />
    <line x1="300" y1="250" x2="250" y2="500" stroke="#4DD0E1" stroke-width="1" opacity="0.2" />
  </g>
  
  <!-- Main Spiral --> 
  <g transform="translate(400, 400)">
    <!-- Dynamic Fibonacci Spiral -->
    <path d="M0,0 
              Q30,30 50,0 
              Q70,-30 50,-60 
              Q30,-90 0,-100 
              Q-30,-110 -60,-90 
              Q-90,-70 -100,-40 
              Q-110,-10 -90,20 
              Q-70,50 -40,60 
              Q-10,70 20,50 
              Q50,30 60,0 
              Q70,-30 50,-60 
              Q30,-90 0,-100 
              Q-30,-110 -60,-90 
              Q-90,-70 -100,-40" 
          fill="none" 
          stroke="url(#yellowTurquoiseGradient)" 
          stroke-width="8" 
          stroke-linecap="round">
      <animate attributeName="stroke-dasharray" values="0,1000;1000,0" dur="8s" repeatCount="indefinite" />
    </path>
    
    <!-- Secondary Spiral (Opposite Direction) -->
    <path d="M0,0 
              Q-30,-30 -50,0 
              Q-70,30 -50,60 
              Q-30,90 0,100 
              Q30,110 60,90 
              Q90,70 100,40 
              Q110,10 90,-20 
              Q70,-50 40,-60 
              Q10,-70 -20,-50 
              Q-50,-30 -60,0 
              Q-70,30 -50,60 
              Q-30,90 0,100 
              Q30,110 60,90" 
          fill="none" 
          stroke="url(#yellowTurquoiseGradient)" 
          stroke-width="4" 
          stroke-linecap="round" 
          opacity="0.6">
      <animate attributeName="stroke-dasharray" values="0,1000;1000,0" dur="12s" repeatCount="indefinite" />
    </path>
  </g>
  
  <!-- Central Eye of Awareness -->
  <g transform="translate(400, 400)">
    <!-- Eye Shape -->
    <ellipse cx="0" cy="0" rx="60" ry="35" fill="white" stroke="#4DD0E1" stroke-width="2" filter="url(#glow)" />
    
    <!-- Iris -->
    <circle cx="0" cy="0" r="25" fill="url(#yellowTurquoiseGradient)">
      <animate attributeName="r" values="25;23;25" dur="3s" repeatCount="indefinite" />
    </circle>
    
    <!-- Pupil -->
    <circle cx="0" cy="0" r="12" fill="#263238">
      <animate attributeName="r" values="12;10;12" dur="3s" repeatCount="indefinite" />
    </circle>
    
    <!-- Light Reflection -->
    <circle cx="-6" cy="-6" r="4" fill="white" opacity="0.8" />
    
    <!-- Mini Spiral in Pupil -->
    <path d="M0,0 Q2,2 4,0 Q6,-2 4,-4 Q2,-6 0,-7 Q-2,-8 -4,-6 Q-6,-4 -7,0" 
          fill="none" stroke="url(#yellowTurquoiseGradient)" stroke-width="0.8" opacity="0.7" />
  </g>
  
  <!-- Moving Particles Along Paths -->
  <g>
    <!-- Yellow Particle -->
    <circle r="6" fill="#FFEB3B" opacity="0.8" filter="url(#blur)">
      <animateMotion dur="12s" repeatCount="indefinite" path="M400,400 
                            Q430,430 450,400 
                            Q470,370 450,340 
                            Q430,310 400,300 
                            Q370,290 340,310 
                            Q310,330 300,360 
                            Q290,390 310,420 
                            Q330,450 360,460 
                            Q390,470 420,450 
                            Q450,430 460,400 
                            Q470,370 450,340 
                            Q430,310 400,300
                            Q370,290 340,310
                            Q310,330 300,360
                            Q290,390 310,420" />
    </circle>
    
    <!-- Turquoise Particle -->
    <circle r="6" fill="#4DD0E1" opacity="0.8" filter="url(#blur)">
      <animateMotion dur="12s" begin="4s" repeatCount="indefinite" path="M400,400 
                            Q430,430 450,400 
                            Q470,370 450,340 
                            Q430,310 400,300 
                            Q370,290 340,310 
                            Q310,330 300,360 
                            Q290,390 310,420 
                            Q330,450 360,460 
                            Q390,470 420,450 
                            Q450,430 460,400 
                            Q470,370 450,340 
                            Q430,310 400,300
                            Q370,290 340,310
                            Q310,330 300,360
                            Q290,390 310,420" />
    </circle>
    
    <!-- Green Particle -->
    <circle r="6" fill="#009688" opacity="0.8" filter="url(#blur)">
      <animateMotion dur="12s" begin="8s" repeatCount="indefinite" path="M400,400 
                            Q430,430 450,400 
                            Q470,370 450,340 
                            Q430,310 400,300 
                            Q370,290 340,310 
                            Q310,330 300,360 
                            Q290,390 310,420 
                            Q330,450 360,460 
                            Q390,470 420,450 
                            Q450,430 460,400 
                            Q470,370 450,340 
                            Q430,310 400,300
                            Q370,290 340,310
                            Q310,330 300,360
                            Q290,390 310,420" />
    </circle>
  </g>
  
  <!-- First-Tier to Second-Tier Representations -->
  <g opacity="0.5">
    <!-- First-Tier Colors (Muted) -->
    <circle cx="400" cy="650" r="15" fill="#A1887F" /> <!-- Beige -->
    <circle cx="330" cy="670" r="15" fill="#9575CD" /> <!-- Purple -->
    <circle cx="270" cy="650" r="15" fill="#EF5350" /> <!-- Red -->
    <circle cx="230" cy="600" r="15" fill="#42A5F5" /> <!-- Blue -->
    <circle cx="210" cy="540" r="15" fill="#FFA726" /> <!-- Orange -->
    <circle cx="230" cy="480" r="15" fill="#66BB6A" /> <!-- Green -->
    
    <!-- Connection to Second-Tier -->
    <path d="M230,480 Q300,450 400,400" fill="none" stroke="#4DD0E1" stroke-width="2" stroke-dasharray="5,5" />
    
    <!-- Second-Tier Colors (Bright) -->
    <circle cx="400" cy="400" r="25" fill="#FFEB3B" /> <!-- Yellow -->
    <circle cx="430" cy="350" r="25" fill="#4DD0E1" /> <!-- Turquoise -->
  </g>
  
  <!-- Systems Theory Symbols -->
  <g transform="translate(650, 150)" opacity="0.7">
    <!-- Yellow Framework Element -->
    <rect x="-30" y="-30" width="60" height="60" rx="5" fill="none" stroke="#FFEB3B" stroke-width="2" />
    <line x1="-20" y1="0" x2="20" y2="0" stroke="#FFEB3B" stroke-width="2" />
    <line x1="0" y1="-20" x2="0" y2="20" stroke="#FFEB3B" stroke-width="2" />
  </g>
  
  <!-- Holistic Unity Symbol -->
  <g transform="translate(150, 150)" opacity="0.7">
    <!-- Turquoise Unified Field -->
    <circle cx="0" cy="0" r="40" fill="none" stroke="#4DD0E1" stroke-width="2" />
    <path d="M-20,-20 L20,20 M-20,20 L20,-20" stroke="#4DD0E1" stroke-width="2" />
    <circle cx="0" cy="0" r="10" fill="#4DD0E1" />
  </g>
  
  <!-- Title -->
  <text x="400" y="750" font-family="Arial, sans-serif" font-size="24" font-weight="bold" text-anchor="middle" fill="#009688">SECOND-TIER AWAKENING</text>
  <text x="400" y="780" font-family="Arial, sans-serif" font-size="16" text-anchor="middle" fill="#009688">Where the Spiral Becomes Self-Aware</text>
</svg>
