<svg width="850" height="1100" viewBox="0 0 850 1100" xmlns="http://www.w3.org/2000/svg">
  <!-- Background gradient -->
  <defs>
    <linearGradient id="bgGradient" x1="0%" y1="0%" x2="100%" y2="100%">
      <stop offset="0%" stop-color="#f8f4ff" />
      <stop offset="100%" stop-color="#e9e1f9" />
    </linearGradient>
    
    <!-- Spiral gradient -->
    <linearGradient id="spiralGradient" x1="0%" y1="0%" x2="100%" y2="100%">
      <stop offset="0%" stop-color="#9B6B9E" />
      <stop offset="100%" stop-color="#4A72B2" />
    </linearGradient>
  </defs>
  
  <!-- Background -->
  <rect width="850" height="1100" fill="url(#bgGradient)" />
  
  <!-- Decorative elements -->
  <path d="M0,1100 C200,1000 650,1050 850,950 V1100 H0Z" fill="#7c3aed" opacity="0.1" />
  <path d="M850,0 C650,100 200,50 0,150 V0 H850Z" fill="#7c3aed" opacity="0.1" />
  
  <!-- Spiral decorative lines -->
  <g transform="translate(425, 450)">
    <path d="M-300,0 A300,300 0 0,1 300,0" stroke="#E25A53" stroke-width="3" fill="none" opacity="0.3" />
    <path d="M-250,50 A250,250 0 0,1 250,50" stroke="#FF7F27" stroke-width="3" fill="none" opacity="0.3" />
    <path d="M-200,100 A200,200 0 0,1 200,100" stroke="#7AB55C" stroke-width="3" fill="none" opacity="0.3" />
    <path d="M-150,150 A150,150 0 0,1 150,150" stroke="#FFD700" stroke-width="3" fill="none" opacity="0.3" />
    <path d="M-100,200 A100,100 0 0,1 100,200" stroke="#40E0D0" stroke-width="3" fill="none" opacity="0.3" />
  </g>
  
  <!-- Logo -->
  <g transform="translate(425, 300) scale(2.5)">
    <path d="m 39.820699,71.916326 q 30,0 30,-30 0,-30 -30,-30 -29.9999995,0 -29.9999995,30" fill="none" stroke="#ff6f61" stroke-width="8" stroke-linecap="round" />
    <path d="m 9.8206995,41.916326 q 0,30 29.9999995,30" fill="none" stroke="#40e0d0" stroke-width="8" stroke-linecap="round" />
    <path d="m 39.820699,71.916326 q 15,0 15,-15 0,-15 -15,-15 -15,0 -15,15" fill="none" stroke="#ffd700" stroke-width="8" stroke-linecap="round" />
    <path d="m 24.820699,56.916326 q 0,15 15,15" fill="none" stroke="#7ab55c" stroke-width="8" stroke-linecap="round" />
    <path d="m 39.820699,71.916326 q 8,0 8,-8 0,-8 -8,-8 -8,0 -8,8" fill="none" stroke="#ff7f27" stroke-width="8" stroke-linecap="round" />
    <path d="m 31.820699,63.916326 q 0,8 8,8" fill="none" stroke="#4a72b2" stroke-width="8" stroke-linecap="round" />
    <path d="m 39.820699,71.916326 q 4,0 4,-4 0,-4 -4,-4 -4,0 -4,4" fill="none" stroke="#e25a53" stroke-width="8" stroke-linecap="round" />
    <path d="m 35.820699,67.916326 q 0,4 4,4" fill="none" stroke="#9b6b9e" stroke-width="8" stroke-linecap="round" />
    <circle cx="39.820698" cy="71.916328" r="4" fill="#e5d0ba" />
  </g>
  
  <!-- Title and subtitle -->
  <g transform="translate(425, 550)">
    <text x="0" y="0" font-family="Arial, sans-serif" font-size="48" font-weight="bold" text-anchor="middle" fill="#614685">
      Spiral-Aware
    </text>
    <text x="0" y="60" font-family="Arial, sans-serif" font-size="48" font-weight="bold" text-anchor="middle" fill="#614685">
      Mental Health &amp; Therapeutic Guide
    </text>
    
    <text x="0" y="120" font-family="Arial, sans-serif" font-size="24" font-style="italic" text-anchor="middle" fill="#614685" opacity="0.9">
      Bridging Developmental Psychology, Therapy, 
    </text>
    <text x="0" y="155" font-family="Arial, sans-serif" font-size="24" font-style="italic" text-anchor="middle" fill="#614685" opacity="0.9">
      and Conscious Evolution
    </text>
  </g>
  
  <!-- Bottom decorative line -->
  <rect x="275" y="780" width="300" height="3" fill="url(#spiralGradient)" />
  
  <!-- Author section -->
  <g transform="translate(425, 830)">
    <text x="0" y="0" font-family="Arial, sans-serif" font-size="24" font-weight="normal" text-anchor="middle" fill="#614685">
      By
    </text>
    <text x="0" y="40" font-family="Arial, sans-serif" font-size="28" font-weight="bold" text-anchor="middle" fill="#614685">
      Björn Kenneth Holmström
    </text>
    <text x="0" y="80" font-family="Arial, sans-serif" font-size="20" font-weight="normal" text-anchor="middle" fill="#614685">
      with Claude and ChatGPT
    </text>
  </g>
  
  <!-- Website -->
  <text x="425" y="950" font-family="Arial, sans-serif" font-size="18" font-weight="normal" text-anchor="middle" fill="#614685">
    Spiralize.org
  </text>
</svg>
