<?xml version="1.0" encoding="UTF-8" standalone="no"?>
<svg
   viewBox="0 0 800 800"
   version="1.1"
   id="svg41"
   sodipodi:docname="clear-essence.svg"
   inkscape:version="1.4 (e7c3feb100, 2024-10-09)"
   xmlns:inkscape="http://www.inkscape.org/namespaces/inkscape"
   xmlns:sodipodi="http://sodipodi.sourceforge.net/DTD/sodipodi-0.dtd"
   xmlns:xlink="http://www.w3.org/1999/xlink"
   xmlns="http://www.w3.org/2000/svg"
   xmlns:svg="http://www.w3.org/2000/svg">
  <sodipodi:namedview
     id="namedview41"
     pagecolor="#ffffff"
     bordercolor="#000000"
     borderopacity="0.25"
     inkscape:showpageshadow="2"
     inkscape:pageopacity="0.0"
     inkscape:pagecheckerboard="0"
     inkscape:deskcolor="#d1d1d1"
     inkscape:zoom="1.0575"
     inkscape:cx="399.52719"
     inkscape:cy="324.34988"
     inkscape:window-width="2520"
     inkscape:window-height="1048"
     inkscape:window-x="0"
     inkscape:window-y="0"
     inkscape:window-maximized="1"
     inkscape:current-layer="svg41" />
  <!-- Definitions -->
  <defs
     id="defs10">
    <!-- Patterns and Effects -->
    <pattern
       id="spiralFade"
       patternUnits="userSpaceOnUse"
       width="200"
       height="200">
      <path
         d="M100,100                 Q120,80 140,100                 Q160,120 140,140                 Q120,160 100,140                 Q80,120 100,100"
         stroke="#F0F0F0"
         stroke-width="0.5"
         fill="none"
         opacity="0.2"
         id="path1" />
      <path
         d="M100,100                 Q140,60 180,100                 Q220,140 180,180                 Q140,220 100,180                 Q60,140 100,100"
         stroke="#F0F0F0"
         stroke-width="0.3"
         fill="none"
         opacity="0.1"
         id="path2" />
    </pattern>
    <filter
       id="eraserEffect"
       x="0"
       y="0"
       width="1"
       height="1">
      <feTurbulence
         type="fractalNoise"
         baseFrequency="0.01"
         numOctaves="3"
         result="noise"
         id="feTurbulence2" />
      <feDisplacementMap
         in="SourceGraphic"
         in2="noise"
         scale="3"
         xChannelSelector="R"
         yChannelSelector="B"
         id="feDisplacementMap2" />
    </filter>
    <filter
       id="subtleBlur"
       x="-0.032059746"
       y="-0.17256725"
       width="1.0574444"
       height="1.3702143">
      <feGaussianBlur
         stdDeviation="1"
         id="feGaussianBlur2" />
    </filter>
    <linearGradient
       id="fadeOut"
       x1="0%"
       y1="0%"
       x2="100%"
       y2="100%">
      <stop
         offset="0%"
         stop-color="#FFFFFF"
         stop-opacity="0.5"
         id="stop2" />
      <stop
         offset="100%"
         stop-color="#FFFFFF"
         stop-opacity="0"
         id="stop3" />
    </linearGradient>
    <!-- Paper Texture -->
    <filter
       id="paperTexture"
       x="0"
       y="0"
       width="1"
       height="1">
      <feTurbulence
         type="fractalNoise"
         baseFrequency="0.04"
         numOctaves="5"
         stitchTiles="stitch"
         result="noise"
         id="feTurbulence3" />
      <feColorMatrix
         type="matrix"
         values="1 0 0 0 0 0 1 0 0 0 0 0 1 0 0 0 0 0 0.1 0"
         in="noise"
         result="textureAlpha"
         id="feColorMatrix3" />
      <feComposite
         operator="in"
         in="SourceGraphic"
         in2="textureAlpha"
         result="texturedGraphic"
         id="feComposite3" />
      <feComposite
         in="texturedGraphic"
         in2="SourceGraphic"
         operator="lighter"
         id="feComposite4" />
    </filter>
    <!-- Prismatic Refraction -->
    <linearGradient
       id="prismGlow"
       x1="0%"
       y1="0%"
       x2="100%"
       y2="100%">
      <stop
         offset="0%"
         stop-color="#FF000001"
         id="stop4" />
      <stop
         offset="16.67%"
         stop-color="#FF770001"
         id="stop5" />
      <stop
         offset="33.33%"
         stop-color="#FFFF0001"
         id="stop6" />
      <stop
         offset="50%"
         stop-color="#00FF0001"
         id="stop7" />
      <stop
         offset="66.67%"
         stop-color="#0000FF01"
         id="stop8" />
      <stop
         offset="83.33%"
         stop-color="#7700FF01"
         id="stop9" />
      <stop
         offset="100%"
         stop-color="#FF00FF01"
         id="stop10" />
    </linearGradient>
    <linearGradient
       inkscape:collect="always"
       xlink:href="#prismGlow"
       id="linearGradient41"
       x1="-101.06066"
       y1="-101.06066"
       x2="101.06066"
       y2="101.06066"
       gradientUnits="userSpaceOnUse" />
    <linearGradient
       inkscape:collect="always"
       xlink:href="#prismGlow"
       id="linearGradient42"
       x1="-101.06066"
       y1="-101.06066"
       x2="101.06066"
       y2="101.06066"
       gradientUnits="userSpaceOnUse" />
    <linearGradient
       inkscape:collect="always"
       xlink:href="#prismGlow"
       id="linearGradient43"
       x1="-12.247449"
       y1="-12.247449"
       x2="12.247449"
       y2="12.247449"
       gradientTransform="scale(8.1649658,0.12247449)"
       gradientUnits="userSpaceOnUse" />
    <linearGradient
       inkscape:collect="always"
       xlink:href="#prismGlow"
       id="linearGradient44"
       x1="-12.247449"
       y1="-12.247449"
       x2="12.247449"
       y2="12.247449"
       gradientTransform="scale(0.12247449,8.1649658)"
       gradientUnits="userSpaceOnUse" />
  </defs>
  <!-- Base Background -->
  <rect
     width="800"
     height="800"
     fill="#FFFFFF"
     filter="url(#paperTexture)"
     id="rect10" />
  <!-- Spiral Watermarks Being Erased -->
  <rect
     width="800"
     height="800"
     fill="url(#spiralFade)"
     opacity="0.4"
     filter="url(#eraserEffect)"
     id="rect11" />
  <!-- Almost Invisible Grid -->
  <g
     opacity="0.04"
     id="g12">
    <path
       d="M0,200 L800,200 M0,400 L800,400 M0,600 L800,600"
       stroke="#CCCCCC"
       stroke-width="0.5"
       id="path11" />
    <path
       d="M200,0 L200,800 M400,0 L400,800 M600,0 L600,800"
       stroke="#CCCCCC"
       stroke-width="0.5"
       id="path12" />
  </g>
  <!-- 404 Not Found -->
  <g
     transform="translate(650, 70)"
     opacity="0.15"
     id="g13">
    <text
       x="0"
       y="0"
       font-family="monospace"
       font-size="24"
       fill="#CCCCCC"
       rotate="3"
       id="text12">404</text>
    <text
       x="-30"
       y="30"
       font-family="monospace"
       font-size="14"
       fill="#CCCCCC"
       id="text13">not found</text>
    <circle
       cx="50"
       cy="-10"
       r="3"
       fill="none"
       stroke="#CCCCCC"
       stroke-width="0.5"
       id="circle13" />
  </g>
  <!-- Central Empty Circle Being Erased -->
  <g
     transform="translate(400,400)"
     id="g24">
    <!-- Almost Invisible Circles -->
    <circle
       cx="0"
       cy="0"
       r="200"
       fill="none"
       stroke="#f0f0f0"
       stroke-width="0.8"
       stroke-dasharray="1, 20"
       opacity="0.5"
       id="circle14" />
    <circle
       cx="0"
       cy="0"
       r="150"
       fill="none"
       stroke="#f0f0f0"
       stroke-width="0.6"
       stroke-dasharray="1, 10"
       opacity="0.4"
       id="circle15" />
    <circle
       cx="0"
       cy="0"
       r="100"
       fill="none"
       stroke="#f0f0f0"
       stroke-width="0.4"
       stroke-dasharray="1, 5"
       opacity="0.3"
       id="circle16" />
    <!-- Main Circle Being Erased -->
    <circle
       cx="0"
       cy="0"
       r="160"
       fill="none"
       stroke="#e0e0e0"
       stroke-width="1"
       stroke-dasharray="30, 10, 5, 15, 20, 10"
       opacity="0.7"
       id="circle17" />
    <!-- Eraser Marks -->
    <g
       opacity="0.9"
       id="g19">
      <path
         d="M -120,40 Q -80,0 -40,20 0,40 40,20 80,0 120,20"
         stroke="#ffffff"
         stroke-width="20"
         stroke-linecap="round"
         id="path17" />
      <path
         d="m -100,-60 q 40,40 80,20 40,-20 80,0 40,20 80,-20"
         stroke="#ffffff"
         stroke-width="25"
         stroke-linecap="round"
         id="path18" />
      <path
         d="M -40,100 Q 0,60 40,80 80,100 120,60"
         stroke="#ffffff"
         stroke-width="15"
         stroke-linecap="round"
         id="path19" />
    </g>
    <!-- Prismatic Refractions -->
    <g
       opacity="0.15"
       filter="url(#subtleBlur)"
       id="g23">
      <path
         d="M -100,-100 100,100"
         stroke="url(#prismGlow)"
         stroke-width="3"
         id="path20"
         style="stroke:url(#linearGradient41)" />
      <path
         d="M 100,-100 -100,100"
         stroke="url(#prismGlow)"
         stroke-width="3"
         id="path21"
         style="stroke:url(#linearGradient42)" />
      <path
         d="M -100,0 H 100"
         stroke="url(#prismGlow)"
         stroke-width="3"
         id="path22"
         style="stroke:url(#linearGradient43)" />
      <path
         d="M 0,-100 V 100"
         stroke="url(#prismGlow)"
         stroke-width="3"
         id="path23"
         style="stroke:url(#linearGradient44)" />
    </g>
  </g>
  <!-- Exhaled Breath -->
  <g
     transform="translate(550, 300)"
     opacity="0.25"
     filter="url(#subtleBlur)"
     id="g26">
    <path
       d="M0,0               Q20,-20 40,-10               Q60,0 80,-5               Q100,-10 120,0"
       fill="none"
       stroke="#F0F0F0"
       stroke-width="5"
       id="path24" />
    <path
       d="M0,0               Q30,-15 50,-5               Q70,5 90,0               Q110,-5 130,10"
       fill="none"
       stroke="#F0F0F0"
       stroke-width="3"
       id="path25" />
    <path
       d="M0,0               Q25,-10 45,0               Q65,10 85,5               Q105,0 125,15"
       fill="none"
       stroke="#F0F0F0"
       stroke-width="8"
       opacity="0.1"
       id="path26" />
  </g>
  <!-- Tea Cup with No Shadow -->
  <g
     transform="translate(200, 550)"
     opacity="0.4"
     id="g29">
    <!-- Cup -->
    <path
       d="M0,0               Q20,-40 40,0               L35,30               Q20,40 5,30               Z"
       fill="#FAFAFA"
       stroke="#E0E0E0"
       stroke-width="0.7"
       id="path27" />
    <!-- Handle -->
    <path
       d="M40,0               Q50,-5 55,-15               Q60,-25 50,-30               Q40,-35 35,-25               Q30,-15 40,-10"
       fill="none"
       stroke="#E0E0E0"
       stroke-width="0.7"
       id="path28" />
    <!-- Steam Spiral -->
    <path
       d="M20,-15               Q25,-25 30,-20               Q35,-30 25,-35               Q15,-40 10,-30"
       fill="none"
       stroke="#F0F0F0"
       stroke-width="0.8"
       stroke-dasharray="1,2"
       opacity="0.3"
       id="path29" />
  </g>
  <!-- Erased Spiral Sketch -->
  <g
     transform="translate(300, 250)"
     opacity="0.15"
     id="g33">
    <path
       d="M0,0               Q20,-20 40,0               Q60,20 40,40               Q20,60 0,40               Q-20,20 0,0"
       fill="none"
       stroke="#CCCCCC"
       stroke-width="0.5"
       stroke-dasharray="5,5"
       id="path30" />
    <path
       d="M0,0               Q40,-40 80,0               Q120,40 80,80               Q40,120 0,80               Q-40,40 0,0"
       fill="none"
       stroke="#CCCCCC"
       stroke-width="0.3"
       stroke-dasharray="2,8"
       id="path31" />
    <!-- Eraser Marks -->
    <path
       d="M-30,-30 L30,30"
       stroke="#FFFFFF"
       stroke-width="10"
       id="path32" />
    <path
       d="M30,-30 L-30,30"
       stroke="#FFFFFF"
       stroke-width="10"
       id="path33" />
  </g>
  <!-- Almost Invisible Zen Circle -->
  <g
     transform="translate(650, 500)"
     opacity="0.2"
     id="g35">
    <path
       d="M0,0               Q30,-50 60,0               Q90,50 60,80               Q30,110 0,80               Q-30,50 0,0"
       fill="none"
       stroke="#EEEEEE"
       stroke-width="1.5"
       stroke-dasharray="0.5,0.5"
       id="path34" />
    <!-- Incomplete Section -->
    <path
       d="M0,0 Q10,-10 20,-5"
       fill="none"
       stroke="#FFFFFF"
       stroke-width="8"
       id="path35" />
  </g>
  <!-- "This page intentionally left blank" -->
  <text
     x="400"
     y="750"
     font-family="monospace"
     font-size="10"
     text-anchor="middle"
     fill="#EEEEEE"
     opacity="0.3"
     id="text35">
    (this page intentionally left blank)
  </text>
  <!-- Meta Text that Fades As You Read It -->
  <g
     opacity="0.1"
     id="g36">
    <text
       x="350"
       y="680"
       font-family="serif"
       font-size="12"
       fill="#CCCCCC"
       id="text36">
      Even this SVG is disappearing as you look at it
    </text>
    <rect
       x="350"
       y="670"
       width="220"
       height="15"
       fill="url(#fadeOut)"
       id="rect36" />
  </g>
  <!-- Minimalist Non-Title -->
  <g
     transform="translate(400, 100)"
     opacity="0.2"
     id="g38">
    <text
       x="0"
       y="0"
       font-family="Arial, sans-serif"
       font-size="24"
       font-weight="300"
       text-anchor="middle"
       fill="#E0E0E0"
       id="text37">
      CLEAR
    </text>
    <text
       x="0"
       y="30"
       font-family="Arial, sans-serif"
       font-size="14"
       font-style="italic"
       text-anchor="middle"
       fill="#E0E0E0"
       id="text38">
      (                    )
    </text>
  </g>
  <!-- No Arrow Here -->
  <path
     d="M100,400 L140,400"
     stroke="#F5F5F5"
     stroke-width="0.5"
     opacity="0.2"
     id="path38" />
  <!-- Trace of Fingerprint -->
  <g
     transform="translate(500, 600)"
     opacity="0.07"
     id="g41">
    <path
       d="M0,0               Q5,-10 10,-5               Q15,0 20,-5               Q25,-10 30,-5               Q35,0 40,-5"
       fill="none"
       stroke="#DDDDDD"
       stroke-width="0.5"
       id="path39" />
    <path
       d="M5,5               Q10,-5 15,0               Q20,5 25,0               Q30,-5 35,0"
       fill="none"
       stroke="#DDDDDD"
       stroke-width="0.5"
       id="path40" />
    <path
       d="M10,10               Q15,0 20,5               Q25,10 30,5"
       fill="none"
       stroke="#DDDDDD"
       stroke-width="0.5"
       id="path41" />
  </g>
</svg>
