<?xml version="1.0" encoding="UTF-8"?>
<svg viewBox="0 0 800 800" xmlns="http://www.w3.org/2000/svg">
  <!-- Definitions -->
  <defs>
    <!-- Patterns and Effects -->
    <pattern id="spiralFade" patternUnits="userSpaceOnUse" width="200" height="200">
      <path d="M100,100 
               Q120,80 140,100 
               Q160,120 140,140 
               Q120,160 100,140 
               Q80,120 100,100" 
            stroke="#F0F0F0" stroke-width="0.5" fill="none" opacity="0.2"/>
      <path d="M100,100 
               Q140,60 180,100 
               Q220,140 180,180 
               Q140,220 100,180 
               Q60,140 100,100" 
            stroke="#F0F0F0" stroke-width="0.3" fill="none" opacity="0.1"/>
    </pattern>
    
    <filter id="eraserEffect" x="-20%" y="-20%" width="140%" height="140%">
      <feTurbulence type="fractalNoise" baseFrequency="0.01" numOctaves="3" result="noise"/>
      <feDisplacementMap in="SourceGraphic" in2="noise" scale="3" xChannelSelector="R" yChannelSelector="B"/>
    </filter>
    
    <filter id="subtleBlur" x="-10%" y="-10%" width="120%" height="120%">
      <feGaussianBlur stdDeviation="1" />
    </filter>
    
    <linearGradient id="fadeOut" x1="0%" y1="0%" x2="100%" y2="100%">
      <stop offset="0%" stop-color="#FFFFFF" stop-opacity="0.5" />
      <stop offset="100%" stop-color="#FFFFFF" stop-opacity="0" />
    </linearGradient>
    
    <!-- Paper Texture -->
    <filter id="paperTexture">
      <feTurbulence type="fractalNoise" baseFrequency="0.04" numOctaves="5" stitchTiles="stitch" result="noise"/>
      <feColorMatrix type="matrix" values="1 0 0 0 0 0 1 0 0 0 0 0 1 0 0 0 0 0 0.1 0" in="noise" result="textureAlpha"/>
      <feComposite operator="in" in="SourceGraphic" in2="textureAlpha" result="texturedGraphic"/>
      <feComposite in="texturedGraphic" in2="SourceGraphic" operator="lighter"/>
    </filter>
    
    <!-- Prismatic Refraction -->
    <linearGradient id="prismGlow" x1="0%" y1="0%" x2="100%" y2="100%">
      <stop offset="0%" stop-color="#FF000001" />
      <stop offset="16.67%" stop-color="#FF770001" />
      <stop offset="33.33%" stop-color="#FFFF0001" />
      <stop offset="50%" stop-color="#00FF0001" />
      <stop offset="66.67%" stop-color="#0000FF01" />
      <stop offset="83.33%" stop-color="#7700FF01" />
      <stop offset="100%" stop-color="#FF00FF01" />
    </linearGradient>
  </defs>
  
  <!-- Base Background -->
  <rect width="800" height="800" fill="#FFFFFF" filter="url(#paperTexture)" />
  
  <!-- Spiral Watermarks Being Erased -->
  <rect width="800" height="800" fill="url(#spiralFade)" opacity="0.4" filter="url(#eraserEffect)" />
  
  <!-- Almost Invisible Grid -->
  <g opacity="0.04">
    <path d="M0,200 L800,200 M0,400 L800,400 M0,600 L800,600" 
          stroke="#CCCCCC" stroke-width="0.5" />
    <path d="M200,0 L200,800 M400,0 L400,800 M600,0 L600,800" 
          stroke="#CCCCCC" stroke-width="0.5" />
  </g>
  
  <!-- 404 Not Found -->
  <g transform="translate(650, 70)" opacity="0.15">
    <text x="0" y="0" font-family="monospace" font-size="24" fill="#CCCCCC" rotate="3">404</text>
    <text x="-30" y="30" font-family="monospace" font-size="14" fill="#CCCCCC">not found</text>
    <circle cx="50" cy="-10" r="3" fill="none" stroke="#CCCCCC" stroke-width="0.5" />
  </g>
  
  <!-- Central Empty Circle Being Erased -->
  <g transform="translate(400, 400)">
    <!-- Almost Invisible Circles -->
    <circle cx="0" cy="0" r="200" fill="none" stroke="#F0F0F0" stroke-width="0.8" stroke-dasharray="1,20" opacity="0.5" />
    <circle cx="0" cy="0" r="150" fill="none" stroke="#F0F0F0" stroke-width="0.6" stroke-dasharray="1,10" opacity="0.4" />
    <circle cx="0" cy="0" r="100" fill="none" stroke="#F0F0F0" stroke-width="0.4" stroke-dasharray="1,5" opacity="0.3" />
    
    <!-- Main Circle Being Erased -->
    <circle cx="0" cy="0" r="160" fill="none" stroke="#E0E0E0" stroke-width="1" stroke-dasharray="30,10,5,15,20,10" opacity="0.7" />
    
    <!-- Eraser Marks -->
    <g opacity="0.9">
      <path d="M-120,40 Q-80,0 -40,20 Q0,40 40,20 Q80,0 120,20" 
            stroke="#FFFFFF" stroke-width="20" stroke-linecap="round" />
      <path d="M-100,-60 Q-60,-20 -20,-40 Q20,-60 60,-40 Q100,-20 140,-60" 
            stroke="#FFFFFF" stroke-width="25" stroke-linecap="round" />
      <path d="M-40,100 Q0,60 40,80 Q80,100 120,60" 
            stroke="#FFFFFF" stroke-width="15" stroke-linecap="round" />
    </g>
    
    <!-- Prismatic Refractions -->
    <g opacity="0.15" filter="url(#subtleBlur)">
      <path d="M-100,-100 L100,100" stroke="url(#prismGlow)" stroke-width="3" />
      <path d="M100,-100 L-100,100" stroke="url(#prismGlow)" stroke-width="3" />
      <path d="M-100,0 L100,0" stroke="url(#prismGlow)" stroke-width="3" />
      <path d="M0,-100 L0,100" stroke="url(#prismGlow)" stroke-width="3" />
    </g>
  </g>
  
  <!-- Exhaled Breath -->
  <g transform="translate(550, 300)" opacity="0.25" filter="url(#subtleBlur)">
    <path d="M0,0 
             Q20,-20 40,-10 
             Q60,0 80,-5 
             Q100,-10 120,0" 
          fill="none" stroke="#F0F0F0" stroke-width="5" />
    
    <path d="M0,0 
             Q30,-15 50,-5 
             Q70,5 90,0 
             Q110,-5 130,10" 
          fill="none" stroke="#F0F0F0" stroke-width="3" />
    
    <path d="M0,0 
             Q25,-10 45,0 
             Q65,10 85,5 
             Q105,0 125,15" 
          fill="none" stroke="#F0F0F0" stroke-width="8" opacity="0.1" />
  </g>
  
  <!-- Tea Cup with No Shadow -->
  <g transform="translate(200, 550)" opacity="0.4">
    <!-- Cup -->
    <path d="M0,0 
             Q20,-40 40,0 
             L35,30 
             Q20,40 5,30 
             Z" 
          fill="#FAFAFA" stroke="#E0E0E0" stroke-width="0.7" />
    
    <!-- Handle -->
    <path d="M40,0 
             Q50,-5 55,-15 
             Q60,-25 50,-30 
             Q40,-35 35,-25 
             Q30,-15 40,-10" 
          fill="none" stroke="#E0E0E0" stroke-width="0.7" />
    
    <!-- Steam Spiral -->
    <path d="M20,-15 
             Q25,-25 30,-20 
             Q35,-30 25,-35 
             Q15,-40 10,-30" 
          fill="none" stroke="#F0F0F0" stroke-width="0.8" stroke-dasharray="1,2" opacity="0.3" />
  </g>
  
  <!-- Erased Spiral Sketch -->
  <g transform="translate(300, 250)" opacity="0.15">
    <path d="M0,0 
             Q20,-20 40,0 
             Q60,20 40,40 
             Q20,60 0,40 
             Q-20,20 0,0" 
          fill="none" stroke="#CCCCCC" stroke-width="0.5" stroke-dasharray="5,5" />
    
    <path d="M0,0 
             Q40,-40 80,0 
             Q120,40 80,80 
             Q40,120 0,80 
             Q-40,40 0,0" 
          fill="none" stroke="#CCCCCC" stroke-width="0.3" stroke-dasharray="2,8" />
    
    <!-- Eraser Marks -->
    <path d="M-30,-30 L30,30" stroke="#FFFFFF" stroke-width="10" />
    <path d="M30,-30 L-30,30" stroke="#FFFFFF" stroke-width="10" />
  </g>
  
  <!-- Almost Invisible Zen Circle -->
  <g transform="translate(650, 500)" opacity="0.2">
    <path d="M0,0 
             Q30,-50 60,0 
             Q90,50 60,80 
             Q30,110 0,80 
             Q-30,50 0,0" 
          fill="none" stroke="#EEEEEE" stroke-width="1.5" stroke-dasharray="0.5,0.5" />
    
    <!-- Incomplete Section -->
    <path d="M0,0 Q10,-10 20,-5" fill="none" stroke="#FFFFFF" stroke-width="8" />
  </g>
  
  <!-- "This page intentionally left blank" -->
  <text x="400" y="750" font-family="monospace" font-size="10" text-anchor="middle" fill="#EEEEEE" opacity="0.3">
    (this page intentionally left blank)
  </text>
  
  <!-- Meta Text that Fades As You Read It -->
  <g opacity="0.1">
    <text x="350" y="680" font-family="serif" font-size="12" fill="#CCCCCC">
      Even this SVG is disappearing as you look at it
    </text>
    <rect x="350" y="670" width="220" height="15" fill="url(#fadeOut)" />
  </g>
  
  <!-- Minimalist Non-Title -->
  <g transform="translate(400, 100)" opacity="0.2">
    <text x="0" y="0" font-family="Arial, sans-serif" font-size="24" font-weight="300" text-anchor="middle" fill="#E0E0E0">
      CLEAR
    </text>
    <text x="0" y="30" font-family="Arial, sans-serif" font-size="14" font-style="italic" text-anchor="middle" fill="#E0E0E0">
      (                    )
    </text>
  </g>
  
  <!-- No Arrow Here -->
  <path d="M100,400 L140,400" stroke="#F5F5F5" stroke-width="0.5" opacity="0.2" />
  
  <!-- Trace of Fingerprint -->
  <g transform="translate(500, 600)" opacity="0.07">
    <path d="M0,0 
             Q5,-10 10,-5 
             Q15,0 20,-5 
             Q25,-10 30,-5 
             Q35,0 40,-5" 
          fill="none" stroke="#DDDDDD" stroke-width="0.5" />
    <path d="M5,5 
             Q10,-5 15,0 
             Q20,5 25,0 
             Q30,-5 35,0" 
          fill="none" stroke="#DDDDDD" stroke-width="0.5" />
    <path d="M10,10 
             Q15,0 20,5 
             Q25,10 30,5" 
          fill="none" stroke="#DDDDDD" stroke-width="0.5" />
  </g>
</svg>
