<?xml version="1.0" encoding="UTF-8"?>
<svg viewBox="0 0 800 800" xmlns="http://www.w3.org/2000/svg">
  <!-- Definitions -->
  <defs>
    <!-- Gradients -->
    <linearGradient id="coralGradient" x1="0%" y1="0%" x2="100%" y2="100%">
      <stop offset="0%" stop-color="#FF7F50" />
      <stop offset="100%" stop-color="#FA8072" />
    </linearGradient>
    
    <linearGradient id="jesterGradient" x1="0%" y1="0%" x2="100%" y2="100%">
      <stop offset="0%" stop-color="#FF7F50" />
      <stop offset="50%" stop-color="#FF6347" />
      <stop offset="100%" stop-color="#FF4500" />
    </linearGradient>
    
    <radialGradient id="glowGradient" cx="50%" cy="50%" r="50%" fx="50%" fy="50%">
      <stop offset="0%" stop-color="#FF7F50" stop-opacity="0.8" />
      <stop offset="100%" stop-color="#FF7F50" stop-opacity="0" />
    </radialGradient>
    
    <!-- Filters -->
    <filter id="shadowBlur" x="-20%" y="-20%" width="140%" height="140%">
      <feGaussianBlur in="SourceAlpha" stdDeviation="15" result="blur" />
      <feFlood flood-color="#333333" flood-opacity="0.3" result="shadowColor"/>
      <feComposite in="shadowColor" in2="blur" operator="in" result="shadow"/>
      <feComposite in="SourceGraphic" in2="shadow" operator="over" />
    </filter>
    
    <filter id="glow" x="-30%" y="-30%" width="160%" height="160%">
      <feGaussianBlur in="SourceGraphic" stdDeviation="5" result="blur" />
      <feComposite in="SourceGraphic" in2="blur" operator="over" />
    </filter>
    
    <filter id="neon" x="-10%" y="-10%" width="120%" height="120%">
      <feGaussianBlur in="SourceGraphic" stdDeviation="2" result="blur" />
      <feComposite in="SourceGraphic" in2="blur" operator="over" />
    </filter>
    
    <!-- Jester Hat Path -->
    <path id="jesterHat" d="M0,0 
               L-40,-20 
               Q-60,-40 -40,-60 
               Q-20,-70 0,-60 
               Q20,-70 40,-60 
               Q60,-40 40,-20 
               L0,0" />
  </defs>
  
  <!-- Background -->
  <rect width="800" height="800" fill="#FFEBE8" />
  
  <!-- Subtle Spiral Background Pattern -->
  <g opacity="0.1">
    <path d="M400,400 
             Q500,300 400,200 
             Q300,100 200,200 
             Q100,300 200,400 
             Q300,500 400,400" 
          stroke="#FF7F50" stroke-width="2" fill="none" />
    
    <path d="M400,400 
             Q300,300 400,200 
             Q500,100 600,200 
             Q700,300 600,400 
             Q500,500 400,400" 
          stroke="#FF7F50" stroke-width="2" fill="none" />
  </g>
  
  <!-- Central Jester Mandala -->
  <g transform="translate(400, 400)">
    <!-- Rotating Mandala -->
    <g>
      <circle cx="0" cy="0" r="200" fill="none" stroke="url(#coralGradient)" stroke-width="3" stroke-dasharray="10,5">
        <animateTransform attributeName="transform" type="rotate" values="0 0 0;360 0 0" dur="60s" repeatCount="indefinite" />
      </circle>
      
      <circle cx="0" cy="0" r="160" fill="none" stroke="url(#coralGradient)" stroke-width="2" stroke-dasharray="5,5">
        <animateTransform attributeName="transform" type="rotate" values="360 0 0;0 0 0" dur="45s" repeatCount="indefinite" />
      </circle>
      
      <circle cx="0" cy="0" r="120" fill="none" stroke="url(#coralGradient)" stroke-width="2" stroke-dasharray="3,3">
        <animateTransform attributeName="transform" type="rotate" values="0 0 0;360 0 0" dur="30s" repeatCount="indefinite" />
      </circle>
    </g>
    
    <!-- Central Yin-Yang -->
    <g filter="url(#glow)">
      <circle cx="0" cy="0" r="80" fill="#FFFFFF" />
      <path d="M0,-80 A80,80 0 0,1 0,80 A40,40 0 0,0 0,-80" fill="#FF7F50" />
      <circle cx="0" cy="-40" r="15" fill="#FF7F50" />
      <circle cx="0" cy="40" r="15" fill="#FFFFFF" />
      
      <!-- Small shadow element within -->
      <path d="M-10,-40 Q0,-50 10,-40 Q15,-35 10,-30 Q0,-25 -10,-30 Q-15,-35 -10,-40" fill="#333333" opacity="0.6" />
      <path d="M-10,40 Q0,50 10,40 Q15,35 10,30 Q0,25 -10,30 Q-15,35 -10,40" fill="#FF7F50" opacity="0.6" />
      
      <animateTransform attributeName="transform" type="rotate" values="0 0 0;360 0 0" dur="20s" repeatCount="indefinite" />
    </g>
  </g>
  
  <!-- Jester Elements -->
  <g>
    <!-- Jester Hat 1 -->
    <g transform="translate(250, 200) rotate(-15)">
      <use href="#jesterHat" fill="url(#jesterGradient)" filter="url(#shadowBlur)" />
      <circle cx="-40" cy="-60" r="15" fill="#FFD700" />
      <circle cx="40" cy="-60" r="15" fill="#FFD700" />
      <circle cx="0" cy="0" r="10" fill="#FFD700" />
      
      <animateTransform attributeName="transform" type="rotate" values="-15 250 200;15 250 200;-15 250 200" dur="5s" repeatCount="indefinite" additive="sum" />
    </g>
    
    <!-- Jester Hat 2 -->
    <g transform="translate(550, 200) rotate(15)">
      <use href="#jesterHat" fill="url(#jesterGradient)" filter="url(#shadowBlur)" />
      <circle cx="-40" cy="-60" r="15" fill="#FFD700" />
      <circle cx="40" cy="-60" r="15" fill="#FFD700" />
      <circle cx="0" cy="0" r="10" fill="#FFD700" />
      
      <animateTransform attributeName="transform" type="rotate" values="15 550 200;-15 550 200;15 550 200" dur="6s" repeatCount="indefinite" additive="sum" />
    </g>
  </g>
  
  <!-- Shadow Puppets -->
  <g filter="url(#shadowBlur)">
    <!-- Hand Silhouette -->
    <path d="M300,600 
             C320,590 340,580 350,570 
             C360,560 370,540 380,550 
             C390,560 395,580 400,590 
             C405,580 410,560 420,550 
             C430,540 440,560 450,570 
             C460,580 480,590 500,600" 
          fill="#333333" opacity="0.7">
      <animate attributeName="d" values="M300,600 
                                        C320,590 340,580 350,570 
                                        C360,560 370,540 380,550 
                                        C390,560 395,580 400,590 
                                        C405,580 410,560 420,550 
                                        C430,540 440,560 450,570 
                                        C460,580 480,590 500,600;
                                        
                                        M300,600 
                                        C320,585 340,575 350,565
                                        C360,555 370,535 380,545 
                                        C390,555 395,575 400,585
                                        C405,575 410,555 420,545
                                        C430,535 440,555 450,565
                                        C460,575 480,585 500,600;
                                        
                                        M300,600 
                                        C320,590 340,580 350,570 
                                        C360,560 370,540 380,550 
                                        C390,560 395,580 400,590 
                                        C405,580 410,560 420,550 
                                        C430,540 440,560 450,570 
                                        C460,580 480,590 500,600" 
               dur="5s" repeatCount="indefinite" />
    </path>
    
    <!-- Shadow Animal Shapes -->
    <g transform="translate(400, 550)">
      <!-- Bird Shadow -->
      <path d="M-80,0 
               Q-70,-10 -60,0 
               Q-50,10 -40,0 
               Q-30,-10 -20,0" 
            fill="#333333" opacity="0.6">
        <animate attributeName="d" values="M-80,0 
                                          Q-70,-10 -60,0 
                                          Q-50,10 -40,0 
                                          Q-30,-10 -20,0;
                                          
                                          M-80,0 
                                          Q-70,-15 -60,-5 
                                          Q-50,5 -40,-5 
                                          Q-30,-15 -20,0;
                                          
                                          M-80,0 
                                          Q-70,-10 -60,0 
                                          Q-50,10 -40,0 
                                          Q-30,-10 -20,0" 
                 dur="3s" repeatCount="indefinite" />
      </path>
      
      <!-- Rabbit Shadow -->
      <path d="M20,0 
               Q30,-20 40,-10 
               Q50,0 40,10 
               Q30,20 20,0" 
            fill="#333333" opacity="0.6">
        <animate attributeName="d" values="M20,0 
                                          Q30,-20 40,-10 
                                          Q50,0 40,10 
                                          Q30,20 20,0;
                                          
                                          M20,0 
                                          Q25,-15 40,-5 
                                          Q55,5 40,15 
                                          Q25,25 20,0;
                                          
                                          M20,0 
                                          Q30,-20 40,-10 
                                          Q50,0 40,10 
                                          Q30,20 20,0" 
                 dur="4s" repeatCount="indefinite" />
      </path>
    </g>
  </g>
  
  <!-- Cosmic Laughter Elements -->
  <g filter="url(#neon)">
    <!-- HAHAHA Text Trail -->
    <text x="200" y="350" font-family="Comic Sans MS, cursive" font-size="20" fill="#FF7F50" opacity="0.7">HA</text>
    <text x="250" y="330" font-family="Comic Sans MS, cursive" font-size="24" fill="#FF7F50" opacity="0.8">HA</text>
    <text x="310" y="320" font-family="Comic Sans MS, cursive" font-size="30" fill="#FF7F50" opacity="0.9">HA</text>
    <text x="380" y="330" font-family="Comic Sans MS, cursive" font-size="24" fill="#FF7F50" opacity="0.8">HA</text>
    <text x="430" y="350" font-family="Comic Sans MS, cursive" font-size="20" fill="#FF7F50" opacity="0.7">HA</text>
  </g>
  
  <!-- Comic Elements -->
  <g>
    <!-- Speech Bubble with Zen Koan Joke -->
    <g transform="translate(200, 450)" filter="url(#glow)">
      <path d="M0,0 
               Q50,-20 100,0 
               Q120,30 100,60 
               Q50,80 0,60 
               Q-20,30 0,0" 
            fill="#FFFFFF" stroke="#FF7F50" stroke-width="2" />
      <path d="M30,60 L20,80" fill="none" stroke="#FF7F50" stroke-width="2" />
      <text x="50" y="30" font-family="Comic Sans MS, cursive" font-size="12" text-anchor="middle" fill="#333333">What did the Zen master</text>
      <text x="50" y="50" font-family="Comic Sans MS, cursive" font-size="12" text-anchor="middle" fill="#333333">say to the hot dog vendor?</text>
    </g>
    
    <!-- Response Bubble -->
    <g transform="translate(600, 450)" filter="url(#glow)">
      <path d="M0,0 
               Q50,-20 100,0 
               Q120,30 100,60 
               Q50,80 0,60 
               Q-20,30 0,0" 
            fill="#FFFFFF" stroke="#FF7F50" stroke-width="2" />
      <path d="M70,60 L80,80" fill="none" stroke="#FF7F50" stroke-width="2" />
      <text x="50" y="40" font-family="Comic Sans MS, cursive" font-size="14" text-anchor="middle" fill="#333333">"Make me one with</text>
      <text x="50" y="60" font-family="Comic Sans MS, cursive" font-size="14" text-anchor="middle" fill="#333333">everything!"</text>
    </g>
  </g>
  
  <!-- Animated Fractals (Evolutionary Play) -->
  <g transform="translate(400, 300)">
    <!-- Fractal Growth -->
    <g stroke="#FF7F50" stroke-width="1.5" fill="none" opacity="0.6">
      <path d="M0,0 
               L30,0 
               M30,0 
               L45,15 
               M30,0 
               L45,-15">
        <animate attributeName="opacity" values="0.6;1;0.6" dur="5s" repeatCount="indefinite" />
      </path>
      
      <path d="M0,0 
               L-30,0 
               M-30,0 
               L-45,15 
               M-30,0 
               L-45,-15">
        <animate attributeName="opacity" values="0.6;1;0.6" dur="5s" begin="1s" repeatCount="indefinite" />
      </path>
      
      <path d="M0,0 
               L0,30 
               M0,30 
               L15,45 
               M0,30 
               L-15,45">
        <animate attributeName="opacity" values="0.6;1;0.6" dur="5s" begin="2s" repeatCount="indefinite" />
      </path>
      
      <path d="M0,0 
               L0,-30 
               M0,-30 
               L15,-45 
               M0,-30 
               L-15,-45">
        <animate attributeName="opacity" values="0.6;1;0.6" dur="5s" begin="3s" repeatCount="indefinite" />
      </path>
    </g>
  </g>
  
  <!-- Subtle Stage Markers -->
  <g transform="translate(400, 130)" opacity="0.3">
    <line x1="-120" y1="0" x2="120" y2="0" stroke="#FF7F50" stroke-width="1" />
    <circle cx="-80" cy="0" r="5" fill="#FFD700" />
    <text x="-80" y="-10" font-family="Arial, sans-serif" font-size="10" text-anchor="middle" fill="#666666">Turquoise</text>
    <circle cx="0" cy="0" r="8" fill="#FF7F50" />
    <text x="0" y="-10" font-family="Arial, sans-serif" font-size="10" text-anchor="middle" fill="#666666">Coral</text>
    <circle cx="80" cy="0" r="5" fill="#8A2BE2" />
    <text x="80" y="-10" font-family="Arial, sans-serif" font-size="10" text-anchor="middle" fill="#666666">Ultra-Violet</text>
  </g>
  
  <!-- Title -->
  <g transform="translate(400, 700)">
    <text x="0" y="0" font-family="Arial, sans-serif" font-size="32" font-weight="bold" text-anchor="middle" fill="#FF7F50" filter="url(#glow)">CORAL ESSENCE</text>
    <text x="0" y="40" font-family="Arial, sans-serif" font-size="18" font-style="italic" text-anchor="middle" fill="#FF7F50">Evolutionary Play</text>
  </g>
  
  <!-- Meta Comment -->
  <g transform="translate(400, 765)">
    <text x="0" y="0" font-family="Arial, sans-serif" font-size="12" font-style="italic" text-anchor="middle" fill="#666666" opacity="0.7">*This SVG is having more fun than you are right now*</text>
  </g>
</svg>
