<?xml version="1.0" encoding="UTF-8"?>
<svg viewBox="0 0 800 600" xmlns="http://www.w3.org/2000/svg">
  <!-- Definitions -->
  <defs>
    <!-- Gradients -->
    <linearGradient id="fadeout" x1="0%" y1="0%" x2="100%" y2="100%">
      <stop offset="0%" stop-color="#FFFFFF" stop-opacity="0" />
      <stop offset="70%" stop-color="#FFFFFF" stop-opacity="0.1" />
      <stop offset="100%" stop-color="#FFFFFF" stop-opacity="0.3" />
    </linearGradient>
    
    <linearGradient id="coralGradient" x1="0%" y1="0%" x2="100%" y2="100%">
      <stop offset="0%" stop-color="#FF7F50" />
      <stop offset="100%" stop-color="#FA8072" />
    </linearGradient>
    
    <linearGradient id="ultravioletGradient" x1="0%" y1="0%" x2="100%" y2="100%">
      <stop offset="0%" stop-color="#8A2BE2" stop-opacity="0.7" />
      <stop offset="100%" stop-color="#9370DB" stop-opacity="0.5" />
    </linearGradient>
    
    <linearGradient id="clearGradient" x1="0%" y1="0%" x2="100%" y2="100%">
      <stop offset="0%" stop-color="#FFFFFF" stop-opacity="0.1" />
      <stop offset="100%" stop-color="#F0F0F0" stop-opacity="0.1" />
    </linearGradient>
    
    <!-- Filters -->
    <filter id="blur" x="-50%" y="-50%" width="200%" height="200%">
      <feGaussianBlur in="SourceGraphic" stdDeviation="3" />
    </filter>
    
    <filter id="dissolve" x="-50%" y="-50%" width="200%" height="200%">
      <feTurbulence type="fractalNoise" baseFrequency="0.05" numOctaves="2" seed="5" />
      <feDisplacementMap in="SourceGraphic" scale="5" />
    </filter>
    
    <filter id="glow" x="-50%" y="-50%" width="200%" height="200%">
      <feGaussianBlur in="SourceGraphic" stdDeviation="5" />
      <feComposite in="SourceGraphic" operator="over" />
    </filter>
    
    <!-- Masks -->
    <mask id="fadeEdgesMask">
      <rect width="800" height="600" fill="white" />
      <rect x="-100" y="-100" width="1000" height="800" fill="url(#fadeout)" />
    </mask>
    
    <!-- Patterns for background -->
    <pattern id="spiralWatermark" width="300" height="300" patternUnits="userSpaceOnUse">
      <path d="M150,150 
               Q175,125 200,150 
               Q225,175 200,200 
               Q175,225 150,200 
               Q125,175 150,150" 
            fill="none" stroke="#DDDDDD" stroke-width="0.5" opacity="0.1" />
      <path d="M150,150 
               Q200,100 250,150 
               Q300,200 250,250 
               Q200,300 150,250 
               Q100,200 150,150" 
            fill="none" stroke="#DDDDDD" stroke-width="0.5" opacity="0.1" />
      <path d="M150,150 
               Q225,75 300,150 
               Q375,225 300,300 
               Q225,375 150,300 
               Q75,225 150,150" 
            fill="none" stroke="#DDDDDD" stroke-width="0.5" opacity="0.1" />
    </pattern>
  </defs>
  
  <!-- Background with spiral watermarks -->
  <rect width="800" height="600" fill="#FFFFFF" />
  <rect width="800" height="600" fill="url(#spiralWatermark)" />
  
  <!-- Fading edges effect -->
  <rect width="800" height="600" fill="white" mask="url(#fadeEdgesMask)" />
  
  <!-- Coral Section (Left) -->
  <g transform="translate(200, 300)" filter="url(#dissolve)">
    <!-- Fractal patterns -->
    <g stroke="#FF7F50" fill="none">
      <path d="M-120,0 
               Q-90,-60 -60,-30 
               Q-30,0 -60,30 
               Q-90,60 -120,0" 
            stroke-width="3" opacity="0.8" />
      
      <path d="M-90,-30 
               Q-75,-60 -60,-45 
               Q-45,-30 -60,-15 
               Q-75,0 -90,-30" 
            stroke-width="2" opacity="0.7" />
      
      <path d="M-60,30 
               Q-45,0 -30,15 
               Q-15,30 -30,45 
               Q-45,60 -60,30" 
            stroke-width="2" opacity="0.7" />
      
      <!-- More fractal branches -->
      <path d="M-75,-45 
               Q-65,-60 -55,-50 
               Q-45,-40 -55,-30 
               Q-65,-20 -75,-45" 
            stroke-width="1.5" opacity="0.6" />
      
      <path d="M-45,45 
               Q-35,30 -25,40 
               Q-15,50 -25,60 
               Q-35,70 -45,45" 
            stroke-width="1.5" opacity="0.6" />
    </g>
    
    <!-- Playful elements -->
    <g fill="url(#coralGradient)">
      <circle cx="-100" cy="-20" r="15" opacity="0.7">
        <animate attributeName="r" values="15;18;15" dur="3s" repeatCount="indefinite" />
      </circle>
      <circle cx="-40" cy="-40" r="10" opacity="0.8">
        <animate attributeName="r" values="10;12;10" dur="2.5s" repeatCount="indefinite" />
      </circle>
      <circle cx="-70" cy="40" r="12" opacity="0.7">
        <animate attributeName="r" values="12;15;12" dur="3.5s" repeatCount="indefinite" />
      </circle>
    </g>
    
    <!-- Text label -->
    <text x="-70" y="80" font-family="Arial, sans-serif" font-size="16" fill="#FF7F50" text-anchor="middle">CORAL</text>
  </g>
  
  <!-- Ultra-Violet Section (Center) -->
  <g transform="translate(400, 300)" filter="url(#glow)">
    <!-- Transparent prism -->
    <g opacity="0.7">
      <path d="M-60,-70 L60,-70 L0,70 Z" fill="url(#ultravioletGradient)" />
      
      <!-- Light refraction -->
      <path d="M-20,-70 L-10,70" stroke="#FFFFFF" stroke-width="1" opacity="0.3" />
      <path d="M0,-70 L0,70" stroke="#FFFFFF" stroke-width="1" opacity="0.4" />
      <path d="M20,-70 L10,70" stroke="#FFFFFF" stroke-width="1" opacity="0.3" />
      
      <!-- Spectrum colors -->
      <path d="M-40,0 L40,0" stroke="#FF0000" stroke-width="1" opacity="0.2" />
      <path d="M-35,10 L35,10" stroke="#FF7F00" stroke-width="1" opacity="0.2" />
      <path d="M-30,20 L30,20" stroke="#FFFF00" stroke-width="1" opacity="0.2" />
      <path d="M-25,30 L25,30" stroke="#00FF00" stroke-width="1" opacity="0.2" />
      <path d="M-20,40 L20,40" stroke="#0000FF" stroke-width="1" opacity="0.2" />
      <path d="M-15,50 L15,50" stroke="#4B0082" stroke-width="1" opacity="0.2" />
      <path d="M-10,60 L10,60" stroke="#9400D3" stroke-width="1" opacity="0.2" />
    </g>
    
    <!-- Transparent outer layer -->
    <path d="M-60,-70 L60,-70 L0,70 Z" fill="none" stroke="#8A2BE2" stroke-width="2" opacity="0.5" />
    
    <!-- Text label -->
    <text x="0" y="100" font-family="Arial, sans-serif" font-size="16" fill="#8A2BE2" text-anchor="middle">ULTRA-VIOLET</text>
  </g>
  
  <!-- Clear Section (Right) -->
  <g transform="translate(600, 300)">
    <!-- Empty page with faint spiral watermark -->
    <rect x="-80" y="-100" width="160" height="200" fill="url(#clearGradient)" stroke="#DDDDDD" stroke-width="0.5" stroke-dasharray="2,2" />
    
    <!-- Almost invisible spiral -->
    <path d="M0,0 
             Q20,-20 40,0 
             Q60,20 40,40 
             Q20,60 0,40 
             Q-20,20 0,0" 
          fill="none" stroke="#EEEEEE" stroke-width="0.5" opacity="0.2" />
          
    <path d="M0,0 
             Q30,-30 60,0 
             Q90,30 60,60 
             Q30,90 0,60 
             Q-30,30 0,0" 
          fill="none" stroke="#EEEEEE" stroke-width="0.5" opacity="0.1" />
    
    <!-- Dissolving corners -->
    <rect x="-80" y="-100" width="160" height="200" fill="none" stroke="#EEEEEE" stroke-width="0.5" stroke-dasharray="0.5,2.5" opacity="0.3" filter="url(#blur)" />
    
    <!-- Text label that's barely visible -->
    <text x="0" y="120" font-family="Arial, sans-serif" font-size="16" fill="#AAAAAA" text-anchor="middle" opacity="0.5">CLEAR</text>
  </g>
  
  <!-- Connecting Elements -->
  <g opacity="0.3" stroke="#DDDDDD" stroke-width="0.5" stroke-dasharray="3,3">
    <path d="M200,300 C250,200 350,200 400,300" />
    <path d="M400,300 C450,200 550,200 600,300" />
  </g>
  
  <!-- Subtle questions floating around -->
  <g font-family="Arial, sans-serif" font-size="10" fill="#AAAAAA" opacity="0.2">
    <text x="150" y="200" transform="rotate(-15, 150, 200)">Who's developing?</text>
    <text x="450" y="200" transform="rotate(10, 450, 200)">What's witnessing?</text>
    <text x="650" y="180" transform="rotate(5, 650, 180)">Where's the spiral?</text>
    <text x="300" y="450" transform="rotate(-5, 300, 450)">Why map the territory?</text>
    <text x="500" y="450" transform="rotate(15, 500, 450)">When does now end?</text>
  </g>
  
  <!-- "Dissolving" Title -->
  <g>
    <text x="400" y="70" font-family="Arial, sans-serif" font-size="28" font-weight="300" fill="#666666" text-anchor="middle" filter="url(#dissolve)" opacity="0.9">THIRD-TIER ESSENCE</text>
    <text x="400" y="100" font-family="Arial, sans-serif" font-size="16" font-style="italic" fill="#888888" text-anchor="middle" opacity="0.6">Where the Spiral Forgets Itself</text>
  </g>
  
  <!-- Subtle footer note -->
  <text x="400" y="550" font-family="Arial, sans-serif" font-size="8" fill="#AAAAAA" text-anchor="middle" opacity="0.4">This diagram is self-erasing. If you can still see it, you're not looking correctly.</text>
</svg>
