<?xml version="1.0" encoding="UTF-8"?>
<svg viewBox="0 0 800 800" xmlns="http://www.w3.org/2000/svg">
  <!-- Definitions -->
  <defs>
    <!-- Gradients -->
    <radialGradient id="ultravioletGlow" cx="50%" cy="50%" r="70%" fx="45%" fy="45%">
      <stop offset="0%" stop-color="#2E0B8C" /> <!-- Deep indigo -->
      <stop offset="50%" stop-color="#6A3093" /> <!-- Cosmic purple -->
      <stop offset="100%" stop-color="#9D6BB7" stop-opacity="0.3" /> <!-- Faded UV -->
    </radialGradient>
    
    <linearGradient id="lightBeam" x1="0%" y1="0%" x2="100%" y2="100%">
      <stop offset="0%" stop-color="#FFFFFF" stop-opacity="0.8" />
      <stop offset="100%" stop-color="#E6D1FF" stop-opacity="0.1" />
    </linearGradient>
    
    <linearGradient id="chairGradient" x1="0%" y1="0%" x2="100%" y2="100%">
      <stop offset="0%" stop-color="#8A2BE2" stop-opacity="0.2" />
      <stop offset="100%" stop-color="#9D6BB7" stop-opacity="0.1" />
    </linearGradient>
    
    <!-- Filters -->
    <filter id="glow" x="-30%" y="-30%" width="160%" height="160%">
      <feGaussianBlur in="SourceGraphic" stdDeviation="8" result="blur" />
      <feComposite in="SourceGraphic" in2="blur" operator="over" />
    </filter>
    
    <filter id="softBlur" x="-10%" y="-10%" width="120%" height="120%">
      <feGaussianBlur in="SourceGraphic" stdDeviation="3" result="blur" />
      <feComposite in="SourceGraphic" in2="blur" operator="over" />
    </filter>
    
    <filter id="subtleGlow" x="-10%" y="-10%" width="120%" height="120%">
      <feGaussianBlur in="SourceGraphic" stdDeviation="1" result="blur" />
      <feComposite in="SourceGraphic" in2="blur" operator="over" />
    </filter>
    
    <!-- Clip Paths -->
    <clipPath id="spiralClip">
      <path d="M400,400 
              Q500,300 400,200 
              Q300,100 200,200 
              Q100,300 200,400 
              Q300,500 400,400" />
    </clipPath>
  </defs>
  
  <!-- Background -->
  <rect width="800" height="800" fill="#F8F5FF" />
  
  <!-- Subtle Grid Pattern -->
  <g opacity="0.05">
    <path d="M0,100 L800,100 M0,200 L800,200 M0,300 L800,300 M0,400 L800,400 M0,500 L800,500 M0,600 L800,600 M0,700 L800,700" 
          stroke="#8A2BE2" stroke-width="0.5" />
    <path d="M100,0 L100,800 M200,0 L200,800 M300,0 L300,800 M400,0 L400,800 M500,0 L500,800 M600,0 L600,800 M700,0 L700,800" 
          stroke="#8A2BE2" stroke-width="0.5" />
  </g>
  
  <!-- Center Luminous Field -->
  <circle cx="400" cy="400" r="350" fill="url(#ultravioletGlow)" opacity="0.3" filter="url(#glow)" />
  
  <!-- Empty Chair with Sunlight -->
  <g transform="translate(300, 400)">
    <!-- Chair Outline -->
    <g fill="none" stroke="#8A2BE2" stroke-width="1" opacity="0.6">
      <!-- Chair Seat -->
      <rect x="-60" y="-20" width="120" height="20" fill="url(#chairGradient)" />
      
      <!-- Chair Back -->
      <path d="M-60,-20 L-60,-100 L60,-100 L60,-20" />
      <path d="M-40,-100 L-40,-20 M0,-100 L0,-20 M40,-100 L40,-20" />
      
      <!-- Chair Legs -->
      <path d="M-60,-20 L-70,40 M60,-20 L70,40 M-40,0 L-50,40 M40,0 L50,40" />
    </g>
    
    <!-- Sunlight Beams -->
    <g filter="url(#softBlur)">
      <path d="M-40,-150 L0,40" stroke="url(#lightBeam)" stroke-width="15" opacity="0.3" />
      <path d="M0,-150 L0,40" stroke="url(#lightBeam)" stroke-width="20" opacity="0.4" />
      <path d="M40,-150 L0,40" stroke="url(#lightBeam)" stroke-width="15" opacity="0.3" />
    </g>
    
    <!-- Empty Space Where Someone Would Sit -->
    <ellipse cx="0" cy="-10" rx="40" ry="10" fill="url(#ultravioletGlow)" opacity="0.15" />
  </g>
  
  <!-- Dissolving Spiral -->
  <g transform="translate(550, 400)" filter="url(#subtleGlow)">
    <!-- Spiral Path -->
    <path d="M0,0 
             Q20,-20 40,0 
             Q60,20 40,40 
             Q20,60 0,40 
             Q-20,20 0,0" 
          fill="none" stroke="#8A2BE2" stroke-width="2" stroke-dasharray="2,2" opacity="0.7" />
    
    <path d="M0,0 
             Q40,-40 80,0 
             Q120,40 80,80 
             Q40,120 0,80 
             Q-40,40 0,0" 
          fill="none" stroke="#8A2BE2" stroke-width="1.5" stroke-dasharray="2,3" opacity="0.5" />
    
    <path d="M0,0 
             Q60,-60 120,0 
             Q180,60 120,120 
             Q60,180 0,120 
             Q-60,60 0,0" 
          fill="none" stroke="#8A2BE2" stroke-width="1" stroke-dasharray="1,4" opacity="0.3" />
    
    <!-- Dissolving Point -->
    <circle cx="0" cy="0" r="5" fill="#FFFFFF" stroke="#8A2BE2" stroke-width="0.5" opacity="0.9">
      <animate attributeName="r" values="5;8;5" dur="8s" repeatCount="indefinite" />
      <animate attributeName="opacity" values="0.9;0.6;0.9" dur="8s" repeatCount="indefinite" />
    </circle>
    
    <!-- Subtle Particle Trails -->
    <g opacity="0.4">
      <circle cx="30" cy="-30" r="2" fill="#E6D1FF">
        <animate attributeName="opacity" values="0.4;0.1;0.4" dur="5s" repeatCount="indefinite" />
      </circle>
      <circle cx="60" cy="0" r="2" fill="#E6D1FF">
        <animate attributeName="opacity" values="0.4;0.1;0.4" dur="6s" repeatCount="indefinite" />
      </circle>
      <circle cx="30" cy="30" r="2" fill="#E6D1FF">
        <animate attributeName="opacity" values="0.4;0.1;0.4" dur="4s" repeatCount="indefinite" />
      </circle>
      <circle cx="-30" cy="30" r="2" fill="#E6D1FF">
        <animate attributeName="opacity" values="0.4;0.1;0.4" dur="7s" repeatCount="indefinite" />
      </circle>
      <circle cx="-30" cy="-30" r="2" fill="#E6D1FF">
        <animate attributeName="opacity" values="0.4;0.1;0.4" dur="4.5s" repeatCount="indefinite" />
      </circle>
    </g>
  </g>
  
  <!-- Single-Line Buddha -->
  <g transform="translate(250, 250)" filter="url(#subtleGlow)">
    <path d="M0,0 
             C10,-20 30,-30 50,-20 
             C70,-10 80,10 70,30 
             C60,50 40,60 20,50 
             C0,40 -10,20 0,0 
             Z" 
          fill="none" stroke="#8A2BE2" stroke-width="2" opacity="0.7" />
    
    <!-- Subtle Smile -->
    <path d="M20,10 C30,20 40,20 50,10" fill="none" stroke="#8A2BE2" stroke-width="1" opacity="0.7" />
    
    <!-- Buddha's Aura -->
    <circle cx="35" cy="15" r="60" fill="none" stroke="#8A2BE2" stroke-width="0.5" stroke-dasharray="1,6" opacity="0.3" />
  </g>
  
  <!-- Transparent Awareness Field Elements -->
  <g>
    <!-- Field Lines -->
    <g stroke="#9D6BB7" stroke-width="0.5" opacity="0.2">
      <path d="M100,100 Q400,300 700,100" fill="none" />
      <path d="M100,700 Q400,500 700,700" fill="none" />
      <path d="M100,100 Q300,400 100,700" fill="none" />
      <path d="M700,100 Q500,400 700,700" fill="none" />
    </g>
    
    <!-- Subtle Light Points -->
    <g>
      <circle cx="200" cy="200" r="3" fill="#FFFFFF" opacity="0.3">
        <animate attributeName="opacity" values="0.3;0.7;0.3" dur="7s" repeatCount="indefinite" />
      </circle>
      <circle cx="600" cy="200" r="2" fill="#FFFFFF" opacity="0.3">
        <animate attributeName="opacity" values="0.3;0.7;0.3" dur="5s" repeatCount="indefinite" />
      </circle>
      <circle cx="400" cy="600" r="3" fill="#FFFFFF" opacity="0.3">
        <animate attributeName="opacity" values="0.3;0.7;0.3" dur="6s" repeatCount="indefinite" />
      </circle>
    </g>
  </g>
  
  <!-- Zen Circle (Enso) -->
  <g transform="translate(580, 250)" filter="url(#subtleGlow)">
    <path d="M0,0 
             C20,-40 60,-40 80,0 
             C100,40 80,80 40,80 
             C0,80 -20,40 0,0"
          fill="none" stroke="#8A2BE2" stroke-width="2" opacity="0.5" stroke-dasharray="0,0 60,80">
      <animate attributeName="stroke-dasharray" values="0,0 60,80;60,0 0,80;0,0 60,80" dur="15s" repeatCount="indefinite" />
    </path>
  </g>
  
  <!-- Transparent Text Elements -->
  <g font-family="Arial, sans-serif" font-weight="300" opacity="0.3" text-anchor="middle" fill="#8A2BE2">
    <text x="250" y="400" font-size="16" transform="rotate(-10 250,400)">"What seeker?"</text>
    <text x="550" y="550" font-size="16" transform="rotate(10 550,550)">"Ordinary magic"</text>
    <text x="400" y="180" font-size="16">"Just this"</text>
  </g>
  
  <!-- Transparent Overlay Indicating "Nothing Special" -->
  <rect width="800" height="800" fill="none" stroke="#8A2BE2" stroke-width="1" stroke-dasharray="5,15" opacity="0.3" />
  
  <!-- Title - Barely Visible -->
  <g transform="translate(400, 700)" opacity="0.5" filter="url(#subtleGlow)">
    <text x="0" y="0" font-family="Arial, sans-serif" font-size="28" font-weight="300" text-anchor="middle" fill="#8A2BE2">ULTRA-VIOLET ESSENCE</text>
    <text x="0" y="40" font-family="Arial, sans-serif" font-size="16" font-style="italic" font-weight="300" text-anchor="middle" fill="#8A2BE2">Transparent Being</text>
  </g>
  
  <!-- Meta Comment -->
  <g transform="translate(400, 765)">
    <text x="0" y="0" font-family="Arial, sans-serif" font-size="10" font-style="italic" text-anchor="middle" fill="#9D6BB7" opacity="0.4">This SVG is already disappearing as you look at it</text>
  </g>
</svg>
