<svg xmlns="http://www.w3.org/2000/svg" viewBox="0 0 500 500">
  <!-- Background with earth tones -->
  <defs>
    <linearGradient id="earthGradient" x1="0%" y1="0%" x2="100%" y2="100%">
      <stop offset="0%" style="stop-color:#f5f5f4;stop-opacity:1" />
      <stop offset="100%" style="stop-color:#e7e5e4;stop-opacity:1" />
    </linearGradient>
    
    <pattern id="soilPattern" patternUnits="userSpaceOnUse" width="100" height="100">
      <rect width="100" height="100" fill="none" />
      <g fill="#a8a29e" fill-opacity="0.1">
        <circle cx="10" cy="10" r="1" />
        <circle cx="30" cy="20" r="0.8" />
        <circle cx="50" cy="10" r="1.2" />
        <circle cx="70" cy="30" r="0.7" />
        <circle cx="90" cy="15" r="1" />
        <circle cx="20" cy="40" r="1.1" />
        <circle cx="40" cy="35" r="0.9" />
        <circle cx="60" cy="45" r="1" />
        <circle cx="80" cy="50" r="0.8" />
        <circle cx="15" cy="60" r="1.2" />
        <circle cx="35" cy="70" r="0.7" />
        <circle cx="55" cy="65" r="1" />
        <circle cx="75" cy="80" r="0.9" />
        <circle cx="95" cy="75" r="1.1" />
        <circle cx="25" cy="90" r="0.8" />
        <circle cx="45" cy="85" r="1" />
        <circle cx="65" cy="95" r="1.2" />
        <circle cx="85" cy="90" r="0.7" />
      </g>
    </pattern>
    
    <filter id="earthGlow" height="300%" width="300%" x="-100%" y="-100%">
      <feMorphology operator="dilate" radius="3" in="SourceAlpha" result="thicken" />
      <feGaussianBlur in="thicken" stdDeviation="5" result="blurred" />
      <feFlood flood-color="#78716c" result="glowColor" />
      <feComposite in="glowColor" in2="blurred" operator="in" result="softGlow_colored" />
      <feComposite in="SourceGraphic" in2="softGlow_colored" operator="over" result="softGlow_colored" />
    </filter>
    
    <filter id="starlight" height="300%" width="300%" x="-100%" y="-100%">
      <feMorphology operator="dilate" radius="1" in="SourceAlpha" result="thicken" />
      <feGaussianBlur in="thicken" stdDeviation="2" result="blurred" />
      <feFlood flood-color="#fef3c7" result="glowColor" />
      <feComposite in="glowColor" in2="blurred" operator="in" result="softGlow_colored" />
      <feComposite in="SourceGraphic" in2="softGlow_colored" operator="over" result="softGlow_colored" />
    </filter>
  </defs>
  
  <!-- Background -->
  <rect x="0" y="0" width="500" height="500" fill="url(#earthGradient)" />
  <rect x="0" y="0" width="500" height="500" fill="url(#soilPattern)" />
  
  <!-- Living Landscape - Earth and Sky Circle -->
  <circle cx="250" cy="250" r="200" fill="none" stroke="#78716c" stroke-width="8" />
  
  <!-- Sky portion (top half) -->
  <path d="M250,50 A200,200 0 0,1 450,250 A200,200 0 0,1 250,450" fill="#0c4a6e" fill-opacity="0.1" />
  
  <!-- Earth portion (bottom half) -->
  <path d="M250,450 A200,200 0 0,1 50,250 A200,200 0 0,1 250,50" fill="#713f12" fill-opacity="0.2" />
  
  <!-- Mountain silhouettes -->
  <path d="M75,250 L125,175 L175,230 L225,150 L275,200 L325,160 L375,230 L425,180 L450,250" fill="#57534e" fill-opacity="0.3" />
  
  <!-- River/water element flowing through -->
  <path d="M250,50 C220,100 300,150 230,200 C180,250 270,300 240,350 C210,400 275,420 250,450" fill="none" stroke="#0284c7" stroke-width="4" stroke-opacity="0.6" stroke-dasharray="1,8" />
  
  <!-- Central Elements -->
  
  <!-- 1. Petroglyph Hand (Ancestral Connection) -->
  <g transform="translate(180, 200)" filter="url(#earthGlow)">
    <circle cx="0" cy="0" r="60" fill="#a16207" fill-opacity="0.2" />
    
    <!-- Cave wall texture -->
    <rect x="-45" y="-45" width="90" height="90" rx="10" ry="10" fill="#d6d3d1" fill-opacity="0.3" />
    
    <!-- Handprint -->
    <path d="M0,-20 C-5,-25 -15,-15 -15,-5 C-15,5 -15,15 -10,25 L-5,25 C-5,15 -5,5 0,-5 C5,5 5,15 5,25 L10,25 C15,15 15,5 15,-5 C15,-15 5,-25 0,-20" fill="#7c2d12" fill-opacity="0.8" />
    
    <!-- Finger dots -->
    <circle cx="-15" cy="-10" r="3" fill="#7c2d12" fill-opacity="0.8" />
    <circle cx="-5" cy="-15" r="3" fill="#7c2d12" fill-opacity="0.8" />
    <circle cx="5" cy="-15" r="3" fill="#7c2d12" fill-opacity="0.8" />
    <circle cx="15" cy="-10" r="3" fill="#7c2d12" fill-opacity="0.8" />
  </g>
  
  <!-- 2. Sprouting Seed with Storylines (Regeneration) -->
  <g transform="translate(320, 200)" filter="url(#earthGlow)">
    <circle cx="0" cy="0" r="60" fill="#4d7c0f" fill-opacity="0.2" />
    
    <!-- Corn/Seed -->
    <path d="M0,20 L0,-20" stroke="#4d7c0f" stroke-width="3" />
    <path d="M0,-20 C-5,-30 5,-30 0,-20" fill="#65a30d" />
    
    <!-- Leaves -->
    <path d="M0,-10 C-20,-5 -25,0 -15,5" fill="none" stroke="#65a30d" stroke-width="2" />
    <path d="M0,-15 C20,-10 25,-5 15,0" fill="none" stroke="#65a30d" stroke-width="2" />
    
    <!-- Roots -->
    <path d="M0,20 C-10,25 -15,35 -5,40" fill="none" stroke="#78350f" stroke-width="2" />
    <path d="M0,20 C10,25 15,35 5,40" fill="none" stroke="#78350f" stroke-width="2" />
    
    <!-- Book/Codex under the plant -->
    <rect x="-15" y="10" width="30" height="20" fill="#fef3c7" fill-opacity="0.7" stroke="#78350f" stroke-width="1" />
    <line x1="-10" y1="15" x2="10" y2="15" stroke="#78350f" stroke-width="0.5" />
    <line x1="-10" y1="20" x2="10" y2="20" stroke="#78350f" stroke-width="0.5" />
    <line x1="-10" y1="25" x2="10" y2="25" stroke="#78350f" stroke-width="0.5" />
    
    <!-- Spiral storylines -->
    <path d="M-30,0 C-20,-20 20,-20 30,0 C20,20 -20,20 -30,0" fill="none" stroke="#78350f" stroke-width="1" stroke-dasharray="2,2" />
  </g>
  
  <!-- 3. Drum with Heartbeat (Rhythm) -->
  <g transform="translate(250, 300)" filter="url(#earthGlow)">
    <circle cx="0" cy="0" r="60" fill="#b45309" fill-opacity="0.2" />
    
    <!-- Drum -->
    <ellipse cx="0" cy="0" rx="30" ry="25" fill="#fef3c7" stroke="#78350f" stroke-width="2" />
    <ellipse cx="0" cy="0" rx="25" ry="20" fill="none" stroke="#78350f" stroke-width="1" stroke-dasharray="3,2" />
    
    <!-- Drum mallets -->
    <line x1="-40" y1="-20" x2="-10" y2="0" stroke="#78350f" stroke-width="2" />
    <line x1="40" y1="-20" x2="10" y2="0" stroke="#78350f" stroke-width="2" />
    <circle cx="-45" cy="-23" r="5" fill="#78350f" />
    <circle cx="45" cy="-23" r="5" fill="#78350f" />
    
    <!-- Heartbeat line -->
    <path d="M-50,15 L-30,15 L-25,5 L-20,25 L-15,15 L0,15 L5,5 L10,25 L15,15 L30,15 L35,5 L40,25 L45,15 L50,15" fill="none" stroke="#dc2626" stroke-width="2" />
    
    <!-- Stars/starlight pulse -->
    <g filter="url(#starlight)">
      <circle cx="-20" cy="25" r="2" fill="#fef3c7" />
      <circle cx="10" cy="25" r="2" fill="#fef3c7" />
      <circle cx="40" cy="25" r="2" fill="#fef3c7" />
    </g>
  </g>
  
  <!-- Connecting Elements -->
  
  <!-- Interwoven strands connecting elements - plant fibers -->
  <path d="M180,200 C220,150 300,170 320,200" fill="none" stroke="#92400e" stroke-width="1" stroke-dasharray="5,3" />
  <path d="M320,200 C290,250 270,270 250,300" fill="none" stroke="#92400e" stroke-width="1" stroke-dasharray="5,3" />
  <path d="M250,300 C220,280 200,230 180,200" fill="none" stroke="#92400e" stroke-width="1" stroke-dasharray="5,3" />
  
  <!-- Animal tracks -->
  <g fill="#44403c" opacity="0.7">
    <ellipse cx="215" cy="175" rx="3" ry="5" transform="rotate(30)" />
    <ellipse cx="225" cy="170" rx="3" ry="5" transform="rotate(30)" />
    <ellipse cx="235" cy="165" rx="3" ry="5" transform="rotate(30)" />
    
    <ellipse cx="310" cy="250" rx="2" ry="2" />
    <ellipse cx="300" cy="260" rx="2" ry="2" />
    <ellipse cx="290" cy="270" rx="2" ry="2" />
    <ellipse cx="280" cy="280" rx="2" ry="2" />
    
    <ellipse cx="200" cy="320" rx="4" ry="2" transform="rotate(-30)" />
    <ellipse cx="215" cy="315" rx="4" ry="2" transform="rotate(-30)" />
    <ellipse cx="230" cy="310" rx="4" ry="2" transform="rotate(-30)" />
  </g>
  
  <!-- Stars in sky portion -->
  <g fill="#fef3c7" filter="url(#starlight)">
    <circle cx="100" cy="100" r="1" />
    <circle cx="150" cy="80" r="1.5" />
    <circle cx="200" cy="100" r="1" />
    <circle cx="250" cy="70" r="2" />
    <circle cx="300" cy="100" r="1" />
    <circle cx="350" cy="80" r="1.5" />
    <circle cx="400" cy="100" r="1" />
  </g>
  
  <!-- Four directional markers -->
  <g fill="#57534e" fill-opacity="0.7">
    <circle cx="250" cy="50" r="5" /> <!-- North -->
    <circle cx="450" cy="250" r="5" /> <!-- East -->
    <circle cx="250" cy="450" r="5" /> <!-- South -->
    <circle cx="50" cy="250" r="5" /> <!-- West -->
  </g>
  
  <!-- Title -->
  <g transform="translate(250, 480)">
    <text x="0" y="0" font-family="Arial" font-size="14" text-anchor="middle" fill="#44403c" font-weight="bold">INDIGENOUS WISDOM</text>
  </g>
</svg>
