<svg xmlns="http://www.w3.org/2000/svg" viewBox="0 0 500 500">
  <!-- Background with subtle gradient -->
  <defs>
    <linearGradient id="metaGradient" x1="0%" y1="0%" x2="100%" y2="100%">
      <stop offset="0%" style="stop-color:#f8fafc;stop-opacity:1" />
      <stop offset="100%" style="stop-color:#e2e8f0;stop-opacity:1" />
    </linearGradient>
    
    <pattern id="gridPattern" patternUnits="userSpaceOnUse" width="20" height="20">
      <rect width="20" height="20" fill="none" />
      <path d="M 0 10 L 20 10 M 10 0 L 10 20" stroke="#94a3b8" stroke-width="0.2" />
    </pattern>
    
    <filter id="constructDeconstruct" x="-20%" y="-20%" width="140%" height="140%">
      <feTurbulence type="fractalNoise" baseFrequency="0.03" numOctaves="2" result="noise" />
      <feDisplacementMap in="SourceGraphic" in2="noise" scale="3" xChannelSelector="R" yChannelSelector="G" />
    </filter>
    
    <!-- Optical illusion pattern - is it a cube or corners? -->
    <pattern id="illusionCube" patternUnits="userSpaceOnUse" width="30" height="30">
      <rect width="30" height="30" fill="none" />
      <path d="M 10 10 L 20 10 L 20 20 L 10 20 Z" fill="none" stroke="#64748b" stroke-width="0.5" />
      <path d="M 15 5 L 25 5 L 25 15 L 15 15 Z" fill="none" stroke="#64748b" stroke-width="0.5" />
      <line x1="10" y1="10" x2="15" y2="5" stroke="#64748b" stroke-width="0.5" />
      <line x1="20" y1="10" x2="25" y2="5" stroke="#64748b" stroke-width="0.5" />
      <line x1="20" y1="20" x2="25" y2="15" stroke="#64748b" stroke-width="0.5" />
    </pattern>
  </defs>
  
  <!-- Background -->
  <rect x="0" y="0" width="500" height="500" fill="url(#metaGradient)" />
  <rect x="50" y="50" width="400" height="400" fill="url(#gridPattern)" opacity="0.3" />
  
  <!-- Central Fractal Spiral -->
  <g transform="translate(250, 250)">
    <!-- Outer spiral -->
    <path d="M0,0 Q30,-30 60,-20 Q100,-10 110,-50 Q120,-100 80,-110 Q40,-120 -10,-100 Q-60,-80 -100,-40 Q-120,0 -100,40 Q-80,80 -40,100 Q0,110 40,90 Q80,70 90,20 Q100,-20 60,-20 Q30,-20 0,0" 
          fill="none" stroke="#eab308" stroke-width="2" opacity="0.7" filter="url(#constructDeconstruct)" />
    
    <!-- Inner spiral -->
    <path d="M0,0 Q15,-15 30,-10 Q50,-5 55,-25 Q60,-50 40,-55 Q20,-60 -5,-50 Q-30,-40 -50,-20 Q-60,0 -50,20 Q-40,40 -20,50 Q0,55 20,45 Q40,35 45,10 Q50,-10 30,-10 Q15,-10 0,0" 
          fill="none" stroke="#eab308" stroke-width="1.5" opacity="0.8" />
    
    <!-- Central spirals - fractal self-similarity -->
    <path d="M0,0 Q5,-5 10,-3 Q15,-1 17,-8 Q19,-15 13,-17 Q7,-19 -2,-16 Q-10,-13 -16,-7 Q-19,0 -16,7 Q-13,13 -7,16 Q0,17 7,15 Q13,12 15,3 Q16,-3 10,-3 Q5,-3 0,0" 
          fill="none" stroke="#eab308" stroke-width="1" opacity="0.9" />
  </g>
  
  <!-- Nested Quadrants -->
  <g transform="translate(250, 250)">
    <!-- Large outer quadrants -->
    <path d="M-100,-100 L100,-100 L100,100 L-100,100 Z" fill="none" stroke="#475569" stroke-width="1" />
    <line x1="0" y1="-100" x2="0" y2="100" stroke="#475569" stroke-width="1" />
    <line x1="-100" y1="0" x2="100" y2="0" stroke="#475569" stroke-width="1" />
    
    <!-- Labels for outer quadrants -->
    <text x="-50" y="-50" font-family="Arial" font-size="12" fill="#475569" text-anchor="middle">I</text>
    <text x="50" y="-50" font-family="Arial" font-size="12" fill="#475569" text-anchor="middle">IT</text>
    <text x="-50" y="50" font-family="Arial" font-size="12" fill="#475569" text-anchor="middle">WE</text>
    <text x="50" y="50" font-family="Arial" font-size="12" fill="#475569" text-anchor="middle">ITS</text>
    
    <!-- Medium inner quadrants - partially constructed/deconstructed -->
    <g opacity="0.7" filter="url(#constructDeconstruct)">
      <path d="M-60,-60 L60,-60 L60,60 L-60,60 Z" fill="none" stroke="#64748b" stroke-width="0.8" stroke-dasharray="5,3" />
      <line x1="0" y1="-60" x2="0" y2="60" stroke="#64748b" stroke-width="0.8" stroke-dasharray="5,3" />
      <line x1="-60" y1="0" x2="60" y2="0" stroke="#64748b" stroke-width="0.8" stroke-dasharray="5,3" />
    </g>
    
    <!-- Small inner quadrants - optical illusion pattern -->
    <rect x="-30" y="-30" width="60" height="60" fill="url(#illusionCube)" />
  </g>
  
  <!-- Brain Scan Element -->
  <g transform="translate(150, 150)">
    <circle cx="0" cy="0" r="50" fill="#fef3c7" fill-opacity="0.2" stroke="#eab308" stroke-width="0.5" />
    
    <!-- Brain outline -->
    <path d="M-30,-20 Q-20,-40 0,-40 Q20,-40 30,-20 Q40,0 30,20 Q20,40 0,40 Q-20,40 -30,20 Q-40,0 -30,-20" 
          fill="none" stroke="#334155" stroke-width="1" />
    
    <!-- Brain sections -->
    <path d="M-20,-30 Q-10,-20 0,-30" fill="none" stroke="#334155" stroke-width="0.8" />
    <path d="M0,-30 Q10,-20 20,-30" fill="none" stroke="#334155" stroke-width="0.8" />
    <path d="M-30,-10 Q-20,-5 -30,0" fill="none" stroke="#334155" stroke-width="0.8" />
    <path d="M30,-10 Q20,-5 30,0" fill="none" stroke="#334155" stroke-width="0.8" />
    <path d="M-30,10 Q-20,5 -30,0" fill="none" stroke="#334155" stroke-width="0.8" />
    <path d="M30,10 Q20,5 30,0" fill="none" stroke="#334155" stroke-width="0.8" />
    <path d="M-20,30 Q-10,20 0,30" fill="none" stroke="#334155" stroke-width="0.8" />
    <path d="M0,30 Q10,20 20,30" fill="none" stroke="#334155" stroke-width="0.8" />
    
    <!-- Scan lines -->
    <line x1="-35" y1="-30" x2="35" y2="-30" stroke="#eab308" stroke-width="0.5" stroke-dasharray="1,1" />
    <line x1="-35" y1="-20" x2="35" y2="-20" stroke="#eab308" stroke-width="0.5" stroke-dasharray="1,1" />
    <line x1="-35" y1="-10" x2="35" y2="-10" stroke="#eab308" stroke-width="0.5" stroke-dasharray="1,1" />
    <line x1="-35" y1="0" x2="35" y2="0" stroke="#eab308" stroke-width="0.5" stroke-dasharray="1,1" />
    <line x1="-35" y1="10" x2="35" y2="10" stroke="#eab308" stroke-width="0.5" stroke-dasharray="1,1" />
    <line x1="-35" y1="20" x2="35" y2="20" stroke="#eab308" stroke-width="0.5" stroke-dasharray="1,1" />
    <line x1="-35" y1="30" x2="35" y2="30" stroke="#eab308" stroke-width="0.5" stroke-dasharray="1,1" />
  </g>
  
  <!-- Stick Figure with "You Are Here" Sign -->
  <g transform="translate(350, 350)">
    <circle cx="0" cy="0" r="35" fill="#fef3c7" fill-opacity="0.2" stroke="#eab308" stroke-width="0.5" />
    
    <!-- Stick figure -->
    <circle cx="0" cy="-15" r="8" fill="none" stroke="#334155" stroke-width="1" /> <!-- head -->
    <line x1="0" y1="-7" x2="0" y2="10" stroke="#334155" stroke-width="1" /> <!-- body -->
    <line x1="0" y1="10" x2="-10" y2="25" stroke="#334155" stroke-width="1" /> <!-- left leg -->
    <line x1="0" y1="10" x2="10" y2="25" stroke="#334155" stroke-width="1" /> <!-- right leg -->
    <line x1="0" y1="0" x2="-12" y2="-5" stroke="#334155" stroke-width="1" /> <!-- left arm -->
    
    <!-- "You Are Here" sign -->
    <rect x="-25" y="-15" width="15" height="10" fill="#fef3c7" stroke="#334155" stroke-width="0.5" />
    <path d="M-25,-10 L-30,-5" stroke="#334155" stroke-width="0.5" /> <!-- sign stick -->
    <text x="-17" y="-8" font-family="Arial" font-size="3" fill="#334155" text-anchor="middle">YOU ARE</text>
    <text x="-17" y="-5" font-family="Arial" font-size="3" fill="#334155" text-anchor="middle">HERE</text>
    
    <!-- Scarf labeled "Spiral Theory" -->
    <path d="M0,-7 Q5,-3 10,-5 Q15,-8 15,-12" fill="none" stroke="#eab308" stroke-width="1" />
    <text x="10" y="-8" font-family="Arial" font-size="3" fill="#eab308" transform="rotate(15,10,-8)">SPIRAL</text>
    <text x="13" y="-5" font-family="Arial" font-size="3" fill="#eab308" transform="rotate(15,13,-5)">THEORY</text>
  </g>
  
  <!-- UFO abducting the "I" quadrant - Playful absurdity -->
  <g transform="translate(200, 150)">
    <!-- UFO body -->
    <ellipse cx="0" cy="0" r="10" ry="5" fill="#a855f7" fill-opacity="0.4" />
    <ellipse cx="0" cy="-2" r="5" ry="3" fill="#a855f7" fill-opacity="0.6" />
    
    <!-- Beam -->
    <path d="M0,0 L-5,20 L5,20 Z" fill="#a855f7" fill-opacity="0.2" />
    
    <!-- Abducting the "I" -->
    <text x="0" y="15" font-family="Arial" font-size="12" fill="#475569" text-anchor="middle" opacity="0.7">I</text>
    
    <!-- UFO lights -->
    <circle cx="-6" cy="0" r="1" fill="#f8fafc">
      <animate attributeName="opacity" values="0.5;1;0.5" dur="2s" repeatCount="indefinite" />
    </circle>
    <circle cx="-3" cy="0" r="1" fill="#f8fafc">
      <animate attributeName="opacity" values="0.5;1;0.5" dur="1.5s" repeatCount="indefinite" />
    </circle>
    <circle cx="0" cy="0" r="1" fill="#f8fafc">
      <animate attributeName="opacity" values="0.5;1;0.5" dur="1s" repeatCount="indefinite" />
    </circle>
    <circle cx="3" cy="0" r="1" fill="#f8fafc">
      <animate attributeName="opacity" values="0.5;1;0.5" dur="1.5s" repeatCount="indefinite" />
    </circle>
    <circle cx="6" cy="0" r="1" fill="#f8fafc">
      <animate attributeName="opacity" values="0.5;1;0.5" dur="2s" repeatCount="indefinite" />
    </circle>
  </g>
  
  <!-- Meta-commentary element - constructing/deconstructing -->
  <g transform="translate(350, 150)" filter="url(#constructDeconstruct)">
    <circle cx="0" cy="0" r="40" fill="none" stroke="#64748b" stroke-width="0.5" stroke-dasharray="3,3" />
    
    <!-- A ruler/measuring tool -->
    <rect x="-30" y="-5" width="60" height="10" fill="#f8fafc" fill-opacity="0.5" stroke="#64748b" stroke-width="0.5" />
    <line x1="-25" y1="-5" x2="-25" y2="5" stroke="#64748b" stroke-width="0.5" />
    <line x1="-20" y1="-5" x2="-20" y2="5" stroke="#64748b" stroke-width="0.5" />
    <line x1="-15" y1="-5" x2="-15" y2="5" stroke="#64748b" stroke-width="0.5" />
    <line x1="-10" y1="-5" x2="-10" y2="5" stroke="#64748b" stroke-width="0.5" />
    <line x1="-5" y1="-5" x2="-5" y2="5" stroke="#64748b" stroke-width="0.5" />
    <line x1="0" y1="-5" x2="0" y2="5" stroke="#64748b" stroke-width="0.5" />
    <line x1="5" y1="-5" x2="5" y2="5" stroke="#64748b" stroke-width="0.5" />
    <line x1="10" y1="-5" x2="10" y2="5" stroke="#64748b" stroke-width="0.5" />
    <line x1="15" y1="-5" x2="15" y2="5" stroke="#64748b" stroke-width="0.5" />
    <line x1="20" y1="-5" x2="20" y2="5" stroke="#64748b" stroke-width="0.5" />
    <line x1="25" y1="-5" x2="25" y2="5" stroke="#64748b" stroke-width="0.5" />
    
    <!-- Pencil drawing/erasing -->
    <path d="M-15,-20 L-10,-15 L-5,-25" fill="none" stroke="#64748b" stroke-width="1" />
    <path d="M10,10 Q15,15 20,10" fill="none" stroke="#64748b" stroke-width="1" stroke-dasharray="2,2" />
    
    <!-- Eraser marks -->
    <path d="M-5,15 Q0,20 5,15" fill="none" stroke="#64748b" stroke-width="1.5" stroke-dasharray="1,2" opacity="0.5" />
    <path d="M-15,10 L-10,20" fill="none" stroke="#64748b" stroke-width="1" stroke-dasharray="1,1" opacity="0.3" />
  </g>
  
  <!-- Title -->
  <g transform="translate(250, 480)">
    <text x="0" y="0" font-family="Arial" font-size="14" text-anchor="middle" fill="#475569" font-weight="bold">INTEGRAL FRAMEWORKS</text>
  </g>
</svg>
