<svg xmlns="http://www.w3.org/2000/svg" viewBox="0 0 500 500">
  <!-- Background with stone texture -->
  <defs>
    <linearGradient id="stoneGradient" x1="0%" y1="0%" x2="100%" y2="100%">
      <stop offset="0%" style="stop-color:#f8fafc;stop-opacity:1" />
      <stop offset="100%" style="stop-color:#e2e8f0;stop-opacity:1" />
    </linearGradient>
    
    <pattern id="stonePattern" patternUnits="userSpaceOnUse" width="100" height="100">
      <rect width="100" height="100" fill="none" />
      <g fill="#94a3b8" fill-opacity="0.1">
        <rect x="10" y="10" width="20" height="30" rx="2" ry="2" />
        <rect x="40" y="15" width="25" height="20" rx="2" ry="2" />
        <rect x="75" y="10" width="15" height="25" rx="2" ry="2" />
        <rect x="15" y="50" width="30" height="20" rx="2" ry="2" />
        <rect x="55" y="45" width="20" height="30" rx="2" ry="2" />
        <rect x="80" y="50" width="15" height="20" rx="2" ry="2" />
        <rect x="10" y="80" width="25" height="15" rx="2" ry="2" />
        <rect x="45" y="75" width="15" height="20" rx="2" ry="2" />
        <rect x="70" y="75" width="25" height="20" rx="2" ry="2" />
      </g>
    </pattern>
    
    <filter id="softGlow" height="300%" width="300%" x="-100%" y="-100%">
      <feMorphology operator="dilate" radius="3" in="SourceAlpha" result="thicken" />
      <feGaussianBlur in="thicken" stdDeviation="5" result="blurred" />
      <feFlood flood-color="#94a3b8" result="glowColor" />
      <feComposite in="glowColor" in2="blurred" operator="in" result="softGlow_colored" />
      <feComposite in="SourceGraphic" in2="softGlow_colored" operator="over" result="softGlow_colored" />
    </filter>
    
    <linearGradient id="lightGradient" x1="0%" y1="0%" x2="100%" y2="100%">
      <stop offset="0%" style="stop-color:#fef9c3;stop-opacity:0.8" />
      <stop offset="100%" style="stop-color:#fde68a;stop-opacity:0.2" />
    </linearGradient>
  </defs>
  
  <!-- Background -->
  <rect x="0" y="0" width="500" height="500" fill="url(#stoneGradient)" />
  <rect x="0" y="0" width="500" height="500" fill="url(#stonePattern)" />
  
  <!-- Gothic Arch structure with Zen minimalism -->
  <g filter="url(#softGlow)">
    <!-- Outer arch - Gothic style -->
    <path d="M100,400 L100,200 Q250,50 400,200 L400,400" fill="none" stroke="#475569" stroke-width="10" />
    
    <!-- Inner arch - Zen simplicity -->
    <path d="M140,400 L140,220 Q250,100 360,220 L360,400" fill="none" stroke="#64748b" stroke-width="5" />
    
    <!-- Floor/ground -->
    <line x1="100" y1="400" x2="400" y2="400" stroke="#475569" stroke-width="10" />
    
    <!-- Stone blocks in the arch -->
    <g fill="#e2e8f0" stroke="#94a3b8" stroke-width="1">
      <rect x="100" y="200" width="20" height="20" />
      <rect x="120" y="190" width="20" height="20" />
      <rect x="140" y="180" width="20" height="20" />
      <rect x="160" y="170" width="20" height="20" />
      <rect x="180" y="160" width="20" height="20" />
      <rect x="200" y="150" width="20" height="20" />
      <rect x="220" y="145" width="20" height="20" />
      <rect x="240" y="145" width="20" height="20" />
      <rect x="260" y="150" width="20" height="20" />
      <rect x="280" y="160" width="20" height="20" />
      <rect x="300" y="170" width="20" height="20" />
      <rect x="320" y="180" width="20" height="20" />
      <rect x="340" y="190" width="20" height="20" />
      <rect x="360" y="200" width="20" height="20" />
      
      <rect x="100" y="220" width="20" height="20" />
      <rect x="100" y="240" width="20" height="20" />
      <rect x="100" y="260" width="20" height="20" />
      <rect x="100" y="280" width="20" height="20" />
      <rect x="100" y="300" width="20" height="20" />
      <rect x="100" y="320" width="20" height="20" />
      <rect x="100" y="340" width="20" height="20" />
      <rect x="100" y="360" width="20" height="20" />
      <rect x="100" y="380" width="20" height="20" />
      
      <rect x="380" y="220" width="20" height="20" />
      <rect x="380" y="240" width="20" height="20" />
      <rect x="380" y="260" width="20" height="20" />
      <rect x="380" y="280" width="20" height="20" />
      <rect x="380" y="300" width="20" height="20" />
      <rect x="380" y="320" width="20" height="20" />
      <rect x="380" y="340" width="20" height="20" />
      <rect x="380" y="360" width="20" height="20" />
      <rect x="380" y="380" width="20" height="20" />
    </g>
  </g>
  
  <!-- Stained Glass Window - with crack revealing sky -->
  <g transform="translate(250, 175)">
    <circle cx="0" cy="0" r="70" fill="#1e3a8a" fill-opacity="0.5" stroke="#64748b" stroke-width="2" />
    
    <!-- Stained glass pattern -->
    <path d="M0,0 L0,-70 M0,0 L0,70 M0,0 L-70,0 M0,0 L70,0 M0,0 L-50,-50 M0,0 L50,-50 M0,0 L-50,50 M0,0 L50,50" stroke="#64748b" stroke-width="1" />
    
    <!-- Colored glass sections -->
    <path d="M0,0 L0,-70 L-50,-50 Z" fill="#ef4444" fill-opacity="0.3" />
    <path d="M0,0 L-50,-50 L-70,0 Z" fill="#3b82f6" fill-opacity="0.3" />
    <path d="M0,0 L-70,0 L-50,50 Z" fill="#22c55e" fill-opacity="0.3" />
    <path d="M0,0 L-50,50 L0,70 Z" fill="#eab308" fill-opacity="0.3" />
    <path d="M0,0 L0,70 L50,50 Z" fill="#8b5cf6" fill-opacity="0.3" />
    <path d="M0,0 L50,50 L70,0 Z" fill="#ec4899" fill-opacity="0.3" />
    <path d="M0,0 L70,0 L50,-50 Z" fill="#0ea5e9" fill-opacity="0.3" />
    <path d="M0,0 L50,-50 L0,-70 Z" fill="#f97316" fill-opacity="0.3" />
    
    <!-- Crack in the glass revealing sky -->
    <path d="M0,-70 Q10,-40 -20,-30 Q-10,-10 10,10 Q30,30 20,70" fill="#0ea5e9" fill-opacity="0.4" />
    <path d="M0,-70 Q10,-40 -20,-30 Q-10,-10 10,10 Q30,30 20,70" fill="none" stroke="#f8fafc" stroke-width="2" stroke-dasharray="2,1" />
    
    <!-- Hidden tiny reclining Buddha in the stained glass -->
    <g transform="translate(40,-20) scale(0.15) rotate(45)">
      <ellipse cx="0" cy="0" rx="30" ry="15" fill="#fde68a" fill-opacity="0.6" />
      <path d="M-20,0 Q-10,-10 0,-5 Q10,-10 20,0" fill="none" stroke="#fde68a" stroke-width="3" />
      <circle cx="-10" cy="-2" r="3" fill="#fde68a" />
      <circle cx="10" cy="-2" r="3" fill="#fde68a" />
    </g>
    
    <!-- Light streaming through the crack -->
    <path d="M0,-70 Q10,-40 -20,-30 Q-10,-10 10,10 Q30,30 20,70" fill="none" stroke="url(#lightGradient)" stroke-width="20" stroke-opacity="0.3" filter="url(#softGlow)" />
  </g>
  
  <!-- Bell -->
  <g transform="translate(130, 320)">
    <circle cx="0" cy="0" r="40" fill="#64748b" fill-opacity="0.1" />
    
    <!-- Bell shape -->
    <path d="M0,-25 C-15,-25 -20,-10 -20,10 C-20,20 -10,25 0,25 C10,25 20,20 20,10 C20,-10 15,-25 0,-25" fill="#cbd5e1" stroke="#64748b" stroke-width="2" />
    
    <!-- Bell clapper -->
    <line x1="0" y1="-25" x2="0" y2="0" stroke="#64748b" stroke-width="1" />
    <circle cx="0" cy="5" r="3" fill="#64748b" />
    
    <!-- Sound waves -->
    <path d="M-30,-15 Q-25,-10 -30,-5" fill="none" stroke="#64748b" stroke-width="1" stroke-dasharray="2,2" />
    <path d="M-35,-10 Q-30,-5 -35,0" fill="none" stroke="#64748b" stroke-width="1" stroke-dasharray="2,2" />
    <path d="M30,-15 Q25,-10 30,-5" fill="none" stroke="#64748b" stroke-width="1" stroke-dasharray="2,2" />
    <path d="M35,-10 Q30,-5 35,0" fill="none" stroke="#64748b" stroke-width="1" stroke-dasharray="2,2" />
  </g>
  
  <!-- Prayer Kneeler -->
  <g transform="translate(250, 350)">
    <circle cx="0" cy="0" r="40" fill="#64748b" fill-opacity="0.1" />
    
    <!-- Kneeler structure -->
    <rect x="-20" y="-10" width="40" height="10" fill="#7f1d1d" stroke="#64748b" stroke-width="1" />
    <rect x="-20" y="0" width="40" height="15" fill="#fef3c7" stroke="#64748b" stroke-width="1" />
    
    <!-- Legs -->
    <line x1="-15" y1="15" x2="-15" y2="30" stroke="#7f1d1d" stroke-width="3" />
    <line x1="15" y1="15" x2="15" y2="30" stroke="#7f1d1d" stroke-width="3" />
  </g>
  
  <!-- Open Book -->
  <g transform="translate(370, 320)">
    <circle cx="0" cy="0" r="40" fill="#64748b" fill-opacity="0.1" />
    
    <!-- Book -->
    <path d="M-25,-10 L25,-10 L25,10 L-25,10 Z" fill="#fef3c7" stroke="#64748b" stroke-width="1" />
    <path d="M0,-10 L0,10" stroke="#64748b" stroke-width="1" />
    
    <!-- Pages with text -->
    <line x1="-20" y1="-5" x2="-5" y2="-5" stroke="#64748b" stroke-width="0.5" />
    <line x1="-20" y1="0" x2="-5" y2="0" stroke="#64748b" stroke-width="0.5" />
    <line x1="-20" y1="5" x2="-5" y2="5" stroke="#64748b" stroke-width="0.5" />
    
    <line x1="5" y1="-5" x2="20" y2="-5" stroke="#64748b" stroke-width="0.5" />
    <line x1="5" y1="0" x2="20" y2="0" stroke="#64748b" stroke-width="0.5" />
    <line x1="5" y1="5" x2="20" y2="5" stroke="#64748b" stroke-width="0.5" />
  </g>
  
  <!-- Light Rays -->
  <g opacity="0.4">
    <path d="M250,175 L200,225 M250,175 L300,225 M250,175 L250,225" stroke="url(#lightGradient)" stroke-width="10" filter="url(#softGlow)" />
  </g>
  
  <!-- Subtle Zen elements -->
  <circle cx="250" cy="400" r="50" fill="none" stroke="#64748b" stroke-width="0.5" stroke-dasharray="1,5" />
  <path d="M215,400 C230,380 270,380 285,400" fill="none" stroke="#64748b" stroke-width="0.5" />
  
  <!-- Title -->
  <g transform="translate(250, 470)">
    <text x="0" y="0" font-family="Arial" font-size="14" text-anchor="middle" fill="#334155" font-weight="bold">MONASTIC WISDOM</text>
  </g>
</svg>
