<?xml version="1.0" encoding="UTF-8" standalone="no"?>
<svg
   viewBox="0 0 500 550"
   version="1.1"
   id="svg68"
   sodipodi:docname="ethics-spiral-visual.svg"
   width="500"
   height="550"
   inkscape:version="1.4 (e7c3feb100, 2024-10-09)"
   xmlns:inkscape="http://www.inkscape.org/namespaces/inkscape"
   xmlns:sodipodi="http://sodipodi.sourceforge.net/DTD/sodipodi-0.dtd"
   xmlns="http://www.w3.org/2000/svg"
   xmlns:svg="http://www.w3.org/2000/svg">
  <defs
     id="defs68" />
  <sodipodi:namedview
     id="namedview68"
     pagecolor="#ffffff"
     bordercolor="#000000"
     borderopacity="0.25"
     inkscape:showpageshadow="2"
     inkscape:pageopacity="0.0"
     inkscape:pagecheckerboard="0"
     inkscape:deskcolor="#d1d1d1"
     inkscape:zoom="1.692"
     inkscape:cx="242.02128"
     inkscape:cy="401.89125"
     inkscape:window-width="2520"
     inkscape:window-height="1048"
     inkscape:window-x="0"
     inkscape:window-y="0"
     inkscape:window-maximized="1"
     inkscape:current-layer="svg68" />
  <!-- Background -->
  <rect
     x="0.59101653"
     y="-1.1820331"
     width="500"
     height="550.14941"
     fill="#fafafa"
     id="rect1"
     style="stroke-width:1.04895" />
  <!-- Spiral background guide (for positioning) - invisible in final -->
  <path
     d="m 250,250 c 70,-70 140,-70 210,0 70,70 70,140 0,210 -70,70 -140,70 -210,0 -70,-70 -140,-70 -210,0 -70,70 -70,140 0,210 70,70 140,70 210,0 70,-70 140,-70 210,0"
     fill="none"
     stroke="none"
     opacity="0"
     id="path1" />
  <!-- Shadow traps path (dark, jagged) -->
  <path
     d="m 244,104 c 70,-70 130,-60 190,0 30,40 50,90 20,150 -20,50 -70,90 -125,60 -45,-30 -105,-50 -155,-30 -60,20 -100,90 -90,150 10,60 60,100 120,90 60,-10 110,-60 120,-120"
     fill="none"
     stroke="#333333"
     stroke-width="5"
     stroke-linecap="round"
     stroke-linejoin="round"
     stroke-dasharray="1, 0"
     id="path2" />
  <!-- Ethical gifts path (light, flowing) -->
  <path
     d="m 244,104 c 60,-60 110,-80 170,-20 40,40 50,90 30,140 -20,40 -70,60 -120,40 -60,-20 -110,-20 -160,10 -50,30 -80,80 -70,130 10,50 50,80 100,70 50,-10 90,-50 100,-100"
     fill="none"
     stroke="#999999"
     stroke-width="4"
     stroke-linecap="round"
     stroke-dasharray="1, 0"
     id="path3" />
  <!-- Center of the spiral with "Humility = Home" Easter egg -->
  <circle
     cx="244"
     cy="104"
     r="30"
     fill="#f0f0f0"
     stroke="#cccccc"
     stroke-width="1"
     id="circle3" />
  <text
     x="244"
     y="108"
     font-family="serif"
     font-size="6px"
     text-anchor="middle"
     fill="#aaaaaa"
     opacity="0.4"
     id="text3">Humility = Home</text>
  <!-- Stage Icons and Shadow/Gift Markers -->
  <!-- Purple -->
  <path
     d="m 302.03782,85.052009 c -5,5 -5,25.000001 0,30.000001 5,5 15,5 20,0 5,-5 5,-25.000001 0,-30.000001 -5,-5 -15,-5 -20,0 z"
     fill="#8b008b"
     opacity="0.7"
     id="path4" />
  <path
     d="m 307.03782,95.052009 c 0,2 2,2 2,0 0,-2 -2,-2 -2,0 z"
     fill="#000000"
     id="path5" />
  <path
     d="m 317.03782,95.052009 c 0,2 -2,2 -2,0 0,-2 2,-2 2,0 z"
     fill="#000000"
     id="path6" />
  <path
     d="m 312.03782,105.05201 c -3,3 3,3 0,0 z"
     fill="#000000"
     id="path7" />
  <!-- Shadow trap emoji -->
  <text
     x="276.81088"
     y="129.2364"
     font-family="emoji"
     font-size="10px"
     fill="#000000"
     id="text7">💀</text>
  <text
     x="288.81088"
     y="129.2364"
     font-family="sans-serif"
     font-size="8px"
     fill="#111111"
     id="text8">Tribal Absolutism</text>
  <!-- Ethical gift emoji -->
  <text
     x="279.52957"
     y="80.773048"
     font-family="emoji"
     font-size="10px"
     fill="#000000"
     id="text9">🌱</text>
  <text
     x="291.52957"
     y="80.773048"
     font-family="sans-serif"
     font-size="8px"
     fill="#111111"
     id="text10">Honor with Question</text>
  <!-- Red -->
  <circle
     cx="392.08511"
     cy="156.95508"
     r="12"
     fill="#a00000"
     opacity="0.7"
     id="circle10" />
  <path
     d="m 392.08511,149.95508 v 9"
     stroke="#ffffff"
     stroke-width="3"
     stroke-linecap="round"
     id="path10" />
  <circle
     cx="392.08511"
     cy="156.95508"
     r="5"
     fill="none"
     stroke="#ffffff"
     stroke-width="2"
     id="circle11" />
  <!-- Shadow trap emoji -->
  <text
     x="354.49411"
     y="177.27423"
     font-family="emoji"
     font-size="10px"
     fill="#000000"
     id="text11">💀</text>
  <text
     x="366.49411"
     y="177.27423"
     font-family="sans-serif"
     font-size="8px"
     fill="#111111"
     id="text12">Might Makes Right</text>
  <!-- Ethical gift emoji -->
  <text
     x="355.4397"
     y="141.81325"
     font-family="emoji"
     font-size="10px"
     fill="#000000"
     id="text13">🌱</text>
  <text
     x="367.4397"
     y="141.81325"
     font-family="sans-serif"
     font-size="8px"
     fill="#111111"
     id="text14">Protected Power</text>
  <!-- Blue -->
  <rect
     x="321.21985"
     y="215.409"
     width="16"
     height="20"
     rx="2"
     fill="#0000cd"
     opacity="0.7"
     id="rect14" />
  <line
     x1="325.21985"
     y1="220.409"
     x2="333.21985"
     y2="220.409"
     stroke="#ffffff"
     stroke-width="1"
     id="line14" />
  <line
     x1="325.21985"
     y1="225.409"
     x2="333.21985"
     y2="225.409"
     stroke="#ffffff"
     stroke-width="1"
     id="line15" />
  <line
     x1="325.21985"
     y1="230.409"
     x2="333.21985"
     y2="230.409"
     stroke="#ffffff"
     stroke-width="1"
     id="line16" />
  <!-- Shadow trap emoji -->
  <text
     x="296.21985"
     y="248.409"
     font-family="emoji"
     font-size="10px"
     fill="#000000"
     id="text16">💀</text>
  <text
     x="308.21985"
     y="248.409"
     font-family="sans-serif"
     font-size="8px"
     fill="#111111"
     id="text17">Dogmatic Righteousness</text>
  <!-- Ethical gift emoji -->
  <text
     x="295.39243"
     y="209.99294"
     font-family="emoji"
     font-size="10px"
     fill="#000000"
     id="text18">🌱</text>
  <text
     x="307.39243"
     y="209.99294"
     font-family="sans-serif"
     font-size="8px"
     fill="#111111"
     id="text19">Sacred Without Demonizing</text>
  <!-- Orange -->
  <polygon
     points="-2.5,-4.5 0,-12 2.5,-4.5 10.5,-4.5 4,0.5 6.5,8 0,3 -6.5,8 -4,0.5 -10.5,-4.5 "
     fill="#ffa500"
     opacity="0.7"
     id="polygon19"
     transform="translate(270.95035,332.46336)" />
  <!-- Shadow trap emoji -->
  <text
     x="233.95035"
     y="347.46335"
     font-family="emoji"
     font-size="10px"
     fill="#000000"
     id="text20">💀</text>
  <text
     x="245.95035"
     y="347.46335"
     font-family="sans-serif"
     font-size="8px"
     fill="#111111"
     id="text21">Spiritual Materialism</text>
  <!-- Ethical gift emoji -->
  <text
     x="236.66904"
     y="317.91254"
     font-family="emoji"
     font-size="10px"
     fill="#000000"
     id="text22">🌱</text>
  <text
     x="248.66904"
     y="317.91254"
     font-family="sans-serif"
     font-size="8px"
     fill="#111111"
     id="text23">Verified Mysticism</text>
  <!-- Green -->
  <path
     d="m 134.85106,219.94563 c -10,-15 -20,-5 -10,5 5,5 10,5 10,0 0,5 5,5 10,0 10,-10 0,-20 -10,-5 z"
     fill="#008000"
     opacity="0.7"
     id="path23" />
  <!-- Shadow trap emoji -->
  <text
     x="101.39716"
     y="239.4019"
     font-family="emoji"
     font-size="10px"
     fill="#000000"
     id="text24">💀</text>
  <text
     x="113.39716"
     y="239.4019"
     font-family="sans-serif"
     font-size="8px"
     fill="#111111"
     id="text25">Love Light Bypass</text>
  <!-- Ethical gift emoji -->
  <text
     x="101.16075"
     y="204.53192"
     font-family="emoji"
     font-size="10px"
     fill="#000000"
     id="text26">🌱</text>
  <text
     x="113.16075"
     y="204.53192"
     font-family="sans-serif"
     font-size="8px"
     fill="#111111"
     id="text27">Shadow-Aware Compassion</text>
  <!-- Yellow -->
  <circle
     cx="169.73286"
     cy="316.49408"
     r="4"
     fill="#ffff00"
     opacity="0.7"
     id="circle27" />
  <circle
     cx="179.73286"
     cy="316.49408"
     r="4"
     fill="#ffff00"
     opacity="0.7"
     id="circle28" />
  <circle
     cx="174.73286"
     cy="326.49408"
     r="4"
     fill="#ffff00"
     opacity="0.7"
     id="circle29" />
  <line
     x1="169.73286"
     y1="316.49408"
     x2="179.73286"
     y2="316.49408"
     stroke="#333333"
     stroke-width="1"
     id="line29" />
  <line
     x1="179.73286"
     y1="316.49408"
     x2="174.73286"
     y2="326.49408"
     stroke="#333333"
     stroke-width="1"
     id="line30" />
  <line
     x1="174.73286"
     y1="326.49408"
     x2="169.73286"
     y2="316.49408"
     stroke="#333333"
     stroke-width="1"
     id="line31" />
  <!-- Shadow trap emoji -->
  <text
     x="137.73286"
     y="336.49408"
     font-family="emoji"
     font-size="10px"
     fill="#000000"
     id="text31">💀</text>
  <text
     x="149.73286"
     y="336.49408"
     font-family="sans-serif"
     font-size="8px"
     fill="#111111"
     id="text32">Cold Analysis</text>
  <!-- Ethical gift emoji -->
  <text
     x="140.45154"
     y="306.35223"
     font-family="emoji"
     font-size="10px"
     fill="#000000"
     id="text33">🌱</text>
  <text
     x="152.45154"
     y="306.35223"
     font-family="sans-serif"
     font-size="8px"
     fill="#111111"
     id="text34">Meta-Heart Balance</text>
  <!-- Turquoise -->
  <circle
     cx="124.04728"
     cy="385.04019"
     r="12"
     fill="#40e0d0"
     opacity="0.7"
     id="circle34" />
  <path
     d="m 116.04728,377.04019 16,16 m -16,0 16,-16"
     stroke="#ffffff"
     stroke-width="2"
     id="path34" />
  <circle
     cx="124.04728"
     cy="385.04019"
     r="4"
     fill="#ffffff"
     id="circle35" />
  <!-- Shadow trap emoji -->
  <text
     x="92.95744"
     y="403.5863"
     font-family="emoji"
     font-size="10px"
     fill="#000000"
     id="text35">💀</text>
  <text
     x="104.95744"
     y="403.5863"
     font-family="sans-serif"
     font-size="8px"
     fill="#111111"
     id="text36">&quot;All Is Perfect&quot; Detachment</text>
  <!-- Ethical gift emoji -->
  <text
     x="93.90308"
     y="370.48935"
     font-family="emoji"
     font-size="10px"
     fill="#000000"
     id="text37">🌱</text>
  <text
     x="105.90308"
     y="370.48935"
     font-family="sans-serif"
     font-size="8px"
     fill="#111111"
     id="text38">Embracing Incarnation</text>
  <!-- Coral -->
  <path
     d="m 169.86288,431.58866 c 5,5 10,0 5,5 5,5 0,10 5,15 -5,-5 -10,0 -15,-5 -5,5 0,0 -5,-5 5,-5 0,-10 5,-5 z"
     fill="#ff7f50"
     opacity="0.7"
     id="path38" />
  <!-- Shadow trap emoji -->
  <text
     x="140.5461"
     y="455.99765"
     font-family="emoji"
     font-size="10px"
     fill="#000000"
     id="text39">💀</text>
  <text
     x="152.5461"
     y="455.99765"
     font-family="sans-serif"
     font-size="8px"
     fill="#111111"
     id="text40">Evolutionary Elitism</text>
  <!-- Ethical gift emoji -->
  <text
     x="139.12766"
     y="425.8558"
     font-family="emoji"
     font-size="10px"
     fill="#000000"
     id="text41">🌱</text>
  <text
     x="151.12766"
     y="425.8558"
     font-family="sans-serif"
     font-size="8px"
     fill="#111111"
     id="text42">Play as Service</text>
  <!-- Ultra-Violet -->
  <circle
     cx="336.83688"
     cy="470.052"
     r="12"
     fill="#8a2be2"
     opacity="0.4"
     id="circle42" />
  <circle
     cx="336.83688"
     cy="470.052"
     r="8"
     fill="#8a2be2"
     opacity="0.3"
     id="circle43" />
  <circle
     cx="336.83688"
     cy="470.052"
     r="4"
     fill="#8a2be2"
     opacity="0.2"
     id="circle44" />
  <!-- Shadow trap emoji -->
  <text
     x="299.83688"
     y="485.052"
     font-family="emoji"
     font-size="10px"
     fill="#000000"
     id="text44">💀</text>
  <text
     x="311.83688"
     y="485.052"
     font-family="sans-serif"
     font-size="8px"
     fill="#111111"
     id="text45">Nihilistic Disengagement</text>
  <!-- Ethical gift emoji -->
  <text
     x="301.37354"
     y="456.09219"
     font-family="emoji"
     font-size="10px"
     fill="#000000"
     id="text46">🌱</text>
  <text
     x="313.37354"
     y="456.09219"
     font-family="sans-serif"
     font-size="8px"
     fill="#111111"
     id="text47">Silent Return</text>
  <!-- Clear -->
  <circle
     cx="330.64304"
     cy="382.22696"
     r="12"
     fill="none"
     stroke="#999999"
     stroke-width="1"
     id="circle47" />
  <!-- Shadow trap emoji -->
  <text
     x="293.64304"
     y="403.13712"
     font-family="emoji"
     font-size="10px"
     fill="#000000"
     id="text48">💀</text>
  <text
     x="305.64304"
     y="403.13712"
     font-family="sans-serif"
     font-size="8px"
     fill="#111111"
     id="text49">Absolute Bypass</text>
  <!-- Ethical gift emoji -->
  <text
     x="292.22461"
     y="364.72104"
     font-family="emoji"
     font-size="10px"
     fill="#000000"
     id="text50">🌱</text>
  <text
     x="304.22461"
     y="364.72104"
     font-family="sans-serif"
     font-size="8px"
     fill="#111111"
     id="text51">Selfless Contracts</text>
  <!-- Stage labels with stage-specific colors -->
  <text
     x="331.54138"
     y="103.42081"
     fill="#8b008b"
     id="text52"
     style="font-weight:bold;font-size:10px;font-family:sans-serif">PURPLE</text>
  <text
     x="410.58392"
     y="160.50117"
     fill="#a00000"
     id="text53"
     style="font-weight:bold;font-size:10px;font-family:sans-serif">RED</text>
  <text
     x="343.17255"
     y="235.63121"
     fill="#0000cd"
     id="text54"
     style="font-weight:bold;font-size:10px;font-family:sans-serif">BLUE</text>
  <text
     x="282.17966"
     y="338.23169"
     fill="#ffa500"
     id="text55"
     style="font-weight:bold;font-size:10px;font-family:sans-serif">ORANGE</text>
  <text
     x="153.7636"
     y="217.75887"
     fill="#008000"
     id="text56"
     style="font-weight:bold;font-size:10px;font-family:sans-serif">GREEN</text>
  <text
     x="191.37589"
     y="323.539"
     fill="#cccc00"
     id="text57"
     style="font-weight:bold;font-size:10px;font-family:sans-serif">YELLOW</text>
  <text
     x="149.55556"
     y="388.68085"
     fill="#40e0d0"
     id="text58"
     style="font-weight:bold;font-size:10px;font-family:sans-serif">TURQUOISE</text>
  <text
     x="185.2766"
     y="442.03781"
     fill="#ff7f50"
     id="text59"
     style="font-weight:bold;font-size:10px;font-family:sans-serif">CORAL</text>
  <text
     x="356.93146"
     y="472.27423"
     fill="#8a2be2"
     id="text60"
     style="font-weight:bold;font-size:10px;font-family:sans-serif">ULTRA-VIOLET</text>
  <text
     x="347.09692"
     y="382.08511"
     fill="#999999"
     id="text61"
     style="font-weight:bold;font-size:10px;font-family:sans-serif">CLEAR</text>
  <!-- Legend -->
  <g
     transform="translate(30,30)"
     id="g68">
    <text
       x="0"
       y="0"
       font-family="sans-serif"
       font-size="12px"
       font-weight="bold"
       fill="#333333"
       id="text62">LEGEND</text>
    <text
       x="20"
       y="20"
       font-family="emoji"
       font-size="10px"
       fill="#000000"
       id="text63">💀</text>
    <text
       x="40"
       y="25"
       font-family="sans-serif"
       font-size="10px"
       fill="#333333"
       id="text64">Shadow Trap</text>
    <text
       x="20"
       y="45"
       font-family="emoji"
       font-size="10px"
       fill="#000000"
       id="text65">🌱</text>
    <text
       x="40"
       y="50"
       font-family="sans-serif"
       font-size="10px"
       fill="#333333"
       id="text66">Ethical Gift</text>
    <path
       d="M 10,65 H 40"
       stroke="#333333"
       stroke-width="4"
       stroke-linecap="round"
       stroke-linejoin="round"
       id="path66" />
    <text
       x="50"
       y="70"
       font-family="sans-serif"
       font-size="10px"
       fill="#333333"
       id="text67">Shadow Path</text>
    <path
       d="M 10,85 H 40"
       stroke="#999999"
       stroke-width="3"
       stroke-linecap="round"
       id="path67" />
    <text
       x="50"
       y="90"
       font-family="sans-serif"
       font-size="10px"
       fill="#333333"
       id="text68">Ethics Path</text>
  </g>
</svg>
