<?xml version="1.0" encoding="UTF-8" standalone="no"?>
<svg viewBox="0 0 800 400" xmlns="http://www.w3.org/2000/svg">
  <!-- Background  -->
  <defs>
    <!-- Earth texture for background -->
    <pattern id="earthTexture" x="0" y="0" width="100" height="100" patternUnits="userSpaceOnUse">
      <rect x="0" y="0" width="100" height="100" fill="#5D4037" />
      <circle cx="20" cy="30" r="2" fill="#3E2723" opacity="0.7" />
      <circle cx="50" cy="50" r="1.5" fill="#3E2723" opacity="0.5" />
      <circle cx="70" cy="20" r="2" fill="#3E2723" opacity="0.6" />
      <circle cx="40" cy="80" r="1.8" fill="#3E2723" opacity="0.7" />
      <circle cx="85" cy="65" r="1.5" fill="#3E2723" opacity="0.5" />
    </pattern>
    
    <!-- Blood drops -->
    <pattern id="bloodDrops" x="0" y="0" width="50" height="50" patternUnits="userSpaceOnUse">
      <path d="M 10,5 Q 8,10 10,15 Q 12,10 10,5 Z" fill="#8B0000" opacity="0.7" />
      <path d="M 30,25 Q 28,30 30,35 Q 32,30 30,25 Z" fill="#8B0000" opacity="0.6" />
      <path d="M 40,10 Q 38,15 40,20 Q 42,15 40,10 Z" fill="#8B0000" opacity="0.5" />
    </pattern>
    
    <!-- Paw print pattern -->
    <pattern id="pawPrints" x="0" y="0" width="80" height="40" patternUnits="userSpaceOnUse">
      <g transform="translate(0, 0) scale(0.4)">
        <ellipse cx="15" cy="10" rx="5" ry="7" fill="#3E2723" opacity="0.6" />
        <ellipse cx="30" cy="10" rx="5" ry="7" fill="#3E2723" opacity="0.6" />
        <ellipse cx="10" cy="25" rx="5" ry="7" fill="#3E2723" opacity="0.6" />
        <ellipse cx="35" cy="25" rx="5" ry="7" fill="#3E2723" opacity="0.6" />
        <ellipse cx="22.5" cy="30" rx="10" ry="8" fill="#3E2723" opacity="0.6" />
      </g>
      
      <g transform="translate(50, 20) scale(0.3) rotate(30)">
        <ellipse cx="15" cy="10" rx="5" ry="7" fill="#3E2723" opacity="0.4" />
        <ellipse cx="30" cy="10" rx="5" ry="7" fill="#3E2723" opacity="0.4" />
        <ellipse cx="10" cy="25" rx="5" ry="7" fill="#3E2723" opacity="0.4" />
        <ellipse cx="35" cy="25" rx="5" ry="7" fill="#3E2723" opacity="0.4" />
        <ellipse cx="22.5" cy="30" rx="10" ry="8" fill="#3E2723" opacity="0.4" />
      </g>
    </pattern>
    
    <!-- Urban pattern -->
    <pattern id="urbanPattern" x="0" y="0" width="100" height="100" patternUnits="userSpaceOnUse">
      <rect x="10" y="10" width="30" height="40" fill="#9E9E9E" opacity="0.4" />
      <rect x="60" y="30" width="20" height="50" fill="#9E9E9E" opacity="0.3" />
      <rect x="20" y="70" width="40" height="20" fill="#9E9E9E" opacity="0.3" />
      <line x1="0" y1="50" x2="100" y2="50" stroke="#616161" stroke-width="0.5" opacity="0.5" />
      <line x1="50" y1="0" x2="50" y2="100" stroke="#616161" stroke-width="0.5" opacity="0.5" />
    </pattern>
  </defs>
  
  <!-- Main background -->
  <rect x="0" y="0" width="800" height="400" fill="url(#earthTexture)" />
  
  <!-- Dividing line -->
  <line x1="400" y1="0" x2="400" y2="400" stroke="#3E2723" stroke-width="2" opacity="0.7" />
  
  <!-- Left side: Natural Earth and Wolf Pack -->
  <rect x="0" y="0" width="400" height="400" fill="url(#pawPrints)" opacity="0.3" />
  
  <!-- Right side: Urban Landscape -->
  <rect x="400" y="0" width="400" height="400" fill="url(#urbanPattern)" opacity="0.4" />
  
  <!-- Ground on left side -->
  <path d="M 0,300 C 50,290 100,310 150,300 C 200,290 300,300 400,290 L 400,400 L 0,400 Z" fill="#5D4037" />
  
  <!-- Ground on right side - more concrete-like -->
  <path d="M 400,290 C 500,300 600,290 650,300 C 700,310 750,300 800,305 L 800,400 L 400,400 Z" fill="#757575" />
  
  <!-- Transition from earth to concrete -->
  <path d="M 380,290 C 390,295 410,295 420,300 C 430,305 440,295 450,300" fill="none" stroke="#3E2723" stroke-width="2" opacity="0.7" />
  
  <!-- Easter Egg: "Feel the earth" hidden in the soil -->
  <text x="200" y="350" font-family="serif" font-size="12" fill="#8D6E63" opacity="0.3" transform="rotate(-5, 200, 350)">Feel the earth</text>
  
  <!-- Left side scene: Wolf pack sharing a kill -->
  <!-- Prey (deer) -->
  <ellipse cx="200" cy="320" rx="30" ry="15" fill="#8D6E63" />
  <path d="M 210,310 L 220,320 M 190,310 L 180,320" stroke="#5D4037" stroke-width="2" />
  
  <!-- Blood marks -->
  <path d="M 190,315 C 195,310 205,310 210,315" fill="none" stroke="#8B0000" stroke-width="2" />
  <ellipse cx="200" cy="320" rx="15" ry="7" fill="url(#bloodDrops)" opacity="0.6" />
  
  <!-- Wolves -->
  <!-- Wolf 1 -->
  <g transform="translate(150, 280)">
    <ellipse cx="0" cy="0" rx="25" ry="12" fill="#616161" />
    <ellipse cx="-15" cy="-5" rx="10" ry="8" fill="#616161" />
    <ellipse cx="-20" cy="-8" rx="5" ry="3" fill="#424242" />
    <ellipse cx="-23" cy="-9" rx="1" ry="1" fill="#212121" />
    <path d="M -15,0 C -10,5 0,5 15,0" fill="none" stroke="#424242" stroke-width="1" />
    <path d="M -18,-12 L -14,-7 M -12,-12 L -10,-7" stroke="#424242" stroke-width="1" />
    <path d="M 15,5 C 20,10 20,15 15,15" fill="none" stroke="#616161" stroke-width="3" />
  </g>
  
  <!-- Wolf 2 -->
  <g transform="translate(240, 290) scale(0.9)">
    <ellipse cx="0" cy="0" rx="25" ry="12" fill="#757575" />
    <ellipse cx="-15" cy="-5" rx="10" ry="8" fill="#757575" />
    <ellipse cx="-20" cy="-8" rx="5" ry="3" fill="#424242" />
    <ellipse cx="-23" cy="-9" rx="1" ry="1" fill="#212121" />
    <path d="M -15,0 C -10,5 0,5 15,0" fill="none" stroke="#424242" stroke-width="1" />
    <path d="M -18,-12 L -14,-7 M -12,-12 L -10,-7" stroke="#424242" stroke-width="1" />
    <path d="M 15,5 C 20,10 20,15 15,15" fill="none" stroke="#757575" stroke-width="3" />
  </g>
  
  <!-- Wolf 3 -->
  <g transform="translate(220, 260) scale(0.85) rotate(20)">
    <ellipse cx="0" cy="0" rx="25" ry="12" fill="#9E9E9E" />
    <ellipse cx="-15" cy="-5" rx="10" ry="8" fill="#9E9E9E" />
    <ellipse cx="-20" cy="-8" rx="5" ry="3" fill="#424242" />
    <ellipse cx="-23" cy="-9" rx="1" ry="1" fill="#212121" />
    <path d="M -15,0 C -10,5 0,5 15,0" fill="none" stroke="#424242" stroke-width="1" />
    <path d="M -18,-12 L -14,-7 M -12,-12 L -10,-7" stroke="#424242" stroke-width="1" />
    <path d="M 15,5 C 20,10 20,15 15,15" fill="none" stroke="#9E9E9E" stroke-width="3" />
  </g>
  
  <!-- Wolf 4 (pup) -->
  <g transform="translate(180, 260) scale(0.6)">
    <ellipse cx="0" cy="0" rx="25" ry="12" fill="#9E9E9E" />
    <ellipse cx="-15" cy="-5" rx="10" ry="8" fill="#9E9E9E" />
    <ellipse cx="-20" cy="-8" rx="5" ry="3" fill="#424242" />
    <ellipse cx="-23" cy="-9" rx="1" ry="1" fill="#212121" />
    <path d="M -15,0 C -10,5 0,5 15,0" fill="none" stroke="#424242" stroke-width="1" />
    <path d="M -18,-12 L -14,-7 M -12,-12 L -10,-7" stroke="#424242" stroke-width="1" />
    <path d="M 15,5 C 20,10 20,15 15,15" fill="none" stroke="#9E9E9E" stroke-width="3" />
  </g>
  
  <!-- Additional blood drops -->
  <path d="M 195,325 C 195,330 205,330 205,325" stroke="#8B0000" stroke-width="1.5" fill="none" />
  <circle cx="185" cy="330" r="2" fill="#8B0000" opacity="0.7" />
  <circle cx="210" cy="325" r="1.5" fill="#8B0000" opacity="0.7" />
  
  <!-- Right side scene: Human with phone and excessive food -->
  
  <!-- Table -->
  <rect x="500" y="300" width="200" height="10" fill="#8D6E63" />
  <rect x="520" y="310" width="10" height="90" fill="#8D6E63" />
  <rect x="670" y="310" width="10" height="90" fill="#8D6E63" />
  
  <!-- Chair -->
  <rect x="560" y="330" width="80" height="10" fill="#5D4037" />
  <rect x="565" y="340" width="10" height="60" fill="#5D4037" />
  <rect x="625" y="340" width="10" height="60" fill="#5D4037" />
  
  <!-- Person sitting -->
  <g transform="translate(600, 280)">
    <!-- Body -->
    <ellipse cx="0" cy="0" rx="25" ry="35" fill="#FFCCBC" />
    
    <!-- Head -->
    <circle cx="0" cy="-45" r="20" fill="#FFCCBC" />
    
    <!-- Hair -->
    <path d="M -15,-55 C -15,-70 15,-70 15,-55" fill="#5D4037" />
    
    <!-- Arms -->
    <path d="M -20,-10 L -40,30" stroke="#FFCCBC" stroke-width="10" stroke-linecap="round" />
    <path d="M 20,-10 L 35,15" stroke="#FFCCBC" stroke-width="10" stroke-linecap="round" />
    
    <!-- Legs -->
    <path d="M -15,30 L -20,70" stroke="#9E9E9E" stroke-width="15" stroke-linecap="round" />
    <path d="M 15,30 L 20,70" stroke="#9E9E9E" stroke-width="15" stroke-linecap="round" />
  </g>
  
  <!-- Smartphone in hand -->
  <g transform="translate(635, 295)">
    <rect x="0" y="0" width="20" height="35" rx="2" fill="#212121" />
    <rect x="2" y="2" width="16" height="28" fill="#E0E0E0" />
    
    <!-- Screen content -->
    <rect x="3" y="4" width="14" height="3" fill="#BDBDBD" />
    <rect x="3" y="8" width="10" height="3" fill="#BDBDBD" />
    <rect x="3" y="12" width="12" height="3" fill="#BDBDBD" />
    <rect x="3" y="16" width="8" height="8" fill="#E57373" />
    <rect x="12" y="16" width="5" height="8" fill="#BDBDBD" />
    <rect x="3" y="25" width="14" height="3" fill="#BDBDBD" />
  </g>
  
  <!-- Excessive food on the table -->
  <g transform="translate(550, 290)">
    <!-- Plate 1 with excess food -->
    <circle cx="0" cy="0" r="20" fill="#EEEEEE" />
    <ellipse cx="0" cy="0" rx="15" ry="12" fill="#FF8A65" /> <!-- Meat -->
    <ellipse cx="-5" cy="-5" rx="5" ry="3" fill="#A1887F" /> <!-- Gravy -->
    
    <!-- Plate 2 with untouched food -->
    <circle cx="50" cy="0" r="20" fill="#EEEEEE" />
    <ellipse cx="50" cy="2" rx="12" ry="8" fill="#AED581" /> <!-- Vegetables -->
    <ellipse cx="45" cy="-5" rx="5" ry="5" fill="#FFF176" /> <!-- Side dish -->
    
    <!-- Dessert -->
    <g transform="translate(100, 0)">
      <rect x="-10" y="-15" width="20" height="30" rx="2" fill="#FFECB3" /> <!-- Cake -->
      <ellipse cx="0" cy="-15" rx="10" ry="3" fill="#D7CCC8" /> <!-- Frosting -->
      <path d="M -5,-20 L 0,-25 L 5,-20" stroke="#FF5252" stroke-width="1.5" fill="none" /> <!-- Cherry stem -->
      <circle cx="0" cy="-20" r="3" fill="#D50000" /> <!-- Cherry -->
    </g>
    
    <!-- Soda -->
    <g transform="translate(130, -5)">
      <path d="M -5,0 C -7,-5 -7,-15 -5,-20 C -3,-25 3,-25 5,-20 C 7,-15 7,-5 5,0 Z" fill="#424242" />
      <path d="M -3,-2 C -5,-5 -5,-15 -3,-18 C -1,-21 1,-21 3,-18 C 5,-15 5,-5 3,-2 Z" fill="#F44336" />
      <ellipse cx="0" cy="-20" rx="5" ry="1" fill="#BDBDBD" />
      <rect x="-0.5" y="-25" width="1" height="5" fill="#BDBDBD" />
    </g>
  </g>
  
  <!-- Transition elements: paw prints fading into footprints -->
  <g opacity="0.5" transform="translate(350, 150)">
    <!-- Paw prints becoming footprints -->
    <g transform="rotate(-10)">
      <!-- Paw 1 -->
      <g transform="translate(0, 0) scale(0.6)">
        <ellipse cx="15" cy="10" rx="5" ry="7" fill="#3E2723" opacity="0.8" />
        <ellipse cx="30" cy="10" rx="5" ry="7" fill="#3E2723" opacity="0.8" />
        <ellipse cx="10" cy="25" rx="5" ry="7" fill="#3E2723" opacity="0.8" />
        <ellipse cx="35" cy="25" rx="5" ry="7" fill="#3E2723" opacity="0.8" />
        <ellipse cx="22.5" cy="30" rx="10" ry="8" fill="#3E2723" opacity="0.8" />
      </g>
      
      <!-- Paw 2 - starting transition -->
      <g transform="translate(30, 20) scale(0.5)">
        <ellipse cx="15" cy="10" rx="5" ry="7" fill="#3E2723" opacity="0.7" />
        <ellipse cx="30" cy="10" rx="5" ry="7" fill="#3E2723" opacity="0.7" />
        <ellipse cx="22.5" cy="30" rx="15" ry="12" fill="#3E2723" opacity="0.7" />
      </g>
      
      <!-- Transitional print -->
      <g transform="translate(60, 35) scale(0.5)">
        <path d="M 10,10 C 15,5 25,5 30,10 C 35,20 35,35 30,45 C 25,55 15,55 10,45 C 5,35 5,20 10,10 Z" fill="#3E2723" opacity="0.6" />
      </g>
      
      <!-- Human footprint 1 -->
      <g transform="translate(85, 50) scale(0.6)">
        <path d="M 10,10 C 5,15 5,25 10,40 C 15,45 25,45 30,40 C 35,25 35,15 30,10 Z" fill="#757575" opacity="0.5" />
      </g>
      
      <!-- Human footprint 2 -->
      <g transform="translate(110, 65) scale(0.6)">
        <path d="M 10,10 C 5,15 5,25 10,40 C 15,45 25,45 30,40 C 35,25 35,15 30,10 Z" fill="#9E9E9E" opacity="0.4" />
      </g>
    </g>
  </g>
  
  <!-- Balance symbol at the center -->
  <g transform="translate(400, 100)">
    <circle cx="0" cy="0" r="25" fill="#A1887F" opacity="0.3" />
    <path d="M -20,0 L 20,0" stroke="#3E2723" stroke-width="3" opacity="0.8" />
    <circle cx="-15" cy="-5" r="5" fill="#5D4037" opacity="0.8" />
    <circle cx="15" cy="5" r="5" fill="#757575" opacity="0.8" />
  </g>
  
  <!-- Text labels -->
  <text x="200" y="50" font-family="sans-serif" font-size="16" fill="#EEEEEE" text-anchor="middle">Natural Balance</text>
  <text x="600" y="50" font-family="sans-serif" font-size="16" fill="#EEEEEE" text-anchor="middle">Disconnected Excess</text>
</svg>
