<?xml version="1.0" encoding="UTF-8" standalone="no"?>
<svg viewBox="0 0 600 600" xmlns="http://www.w3.org/2000/svg">
  <!-- Background -->
  <rect x="0" y="0" width="600" height="600" fill="#1E3B2C" />
  
  <!-- Subtle texture pattern -->
  <pattern id="texture" width="50" height="50" patternUnits="userSpaceOnUse">
    <rect width="50" height="50" fill="#1E3B2C" />
    <path d="M 25,0 L 50,25 L 25,50 L 0,25 Z" fill="#2E4B3C" opacity="0.3" />
  </pattern>
  <rect x="0" y="0" width="600" height="600" fill="url(#texture)" />
  
  <!-- Central fire gradient and glow -->
  <defs>
    <radialGradient id="fireGradient" cx="50%" cy="50%" r="50%" fx="50%" fy="50%">
      <stop offset="0%" stop-color="#FFF176" />
      <stop offset="30%" stop-color="#FF9800" />
      <stop offset="70%" stop-color="#F57C00" />
      <stop offset="100%" stop-color="#BF360C" />
    </radialGradient>
    
    <filter id="fireGlow" x="-50%" y="-50%" width="200%" height="200%">
      <feGaussianBlur stdDeviation="8" result="glow" />
      <feComposite in="SourceGraphic" in2="glow" operator="over" />
    </filter>
  </defs>
  
  <!-- Central fire -->
  <g id="centralFire" transform="translate(300, 300)">
    <!-- Fire base -->
    <ellipse cx="0" cy="0" rx="70" ry="40" fill="#BF360C" opacity="0.7" />
    
    <!-- Flames -->
    <path d="M 0,-60 
             C -30,-40 -40,-10 -20,0 
             C -40,20 -30,40 0,60 
             C 30,40 40,20 20,0 
             C 40,-10 30,-40 0,-60 Z" 
          fill="url(#fireGradient)" filter="url(#fireGlow)" />
    
    <!-- Ember sparks -->
    <circle cx="-15" cy="-20" r="2" fill="#FFEB3B">
      <animate attributeName="opacity" values="1;0;1" dur="2s" repeatCount="indefinite" />
    </circle>
    <circle cx="20" cy="-15" r="2" fill="#FFEB3B">
      <animate attributeName="opacity" values="1;0;1" dur="3s" repeatCount="indefinite" />
    </circle>
    <circle cx="10" cy="-25" r="2" fill="#FFEB3B">
      <animate attributeName="opacity" values="1;0;1" dur="2.5s" repeatCount="indefinite" />
    </circle>
    <circle cx="-5" cy="-30" r="2" fill="#FFEB3B">
      <animate attributeName="opacity" values="1;0;1" dur="1.8s" repeatCount="indefinite" />
    </circle>
    
    <!-- Easter egg: "Edges hold" in the embers -->
    <text x="0" y="10" font-family="serif" font-size="8" text-anchor="middle" fill="#FFEB3B" opacity="0.4">Edges hold</text>
  </g>
  
  <!-- Circle of hands -->
  <!-- 1. Open hand (giving) -->
  <g transform="translate(300, 180) rotate(0)">
    <path d="M 0,0 
             C -5,-10 -15,-10 -20,-5 
             C -25,0 -25,10 -20,20 
             C -15,25 -5,30 0,25 
             C 5,30 15,25 20,20 
             C 25,10 25,0 20,-5 
             C 15,-10 5,-10 0,0 Z" 
          fill="#4CAF50" />
    <path d="M -15,0 L -15,25 M -5,0 L -5,25 M 5,0 L 5,25 M 15,0 L 15,25" 
          stroke="#388E3C" stroke-width="2" fill="none" />
  </g>
  
  <!-- 2. Open hand (giving) -->
  <g transform="translate(380, 210) rotate(35)">
    <path d="M 0,0 
             C -5,-10 -15,-10 -20,-5 
             C -25,0 -25,10 -20,20 
             C -15,25 -5,30 0,25 
             C 5,30 15,25 20,20 
             C 25,10 25,0 20,-5 
             C 15,-10 5,-10 0,0 Z" 
          fill="#4CAF50" />
    <path d="M -15,0 L -15,25 M -5,0 L -5,25 M 5,0 L 5,25 M 15,0 L 15,25" 
          stroke="#388E3C" stroke-width="2" fill="none" />
  </g>
  
  <!-- 3. Clenched fist (withholding) -->
  <g transform="translate(440, 270) rotate(70)">
    <path d="M 0,0 
             C -5,-10 -15,-10 -20,-5 
             C -25,0 -25,10 -20,15 
             C -15,20 -5,20 0,15 
             C 5,20 15,20 20,15 
             C 25,10 25,0 20,-5 
             C 15,-10 5,-10 0,0 Z" 
          fill="#2E7D32" />
    <path d="M -10,0 
             C -10,5 -10,10 -10,15 
             M 0,0 
             C 0,5 0,10 0,15 
             M 10,0 
             C 10,5 10,10 10,15" 
          stroke="#1B5E20" stroke-width="3" fill="none" />
  </g>
  
  <!-- 4. Open hand (giving) -->
  <g transform="translate(430, 350) rotate(120)">
    <path d="M 0,0 
             C -5,-10 -15,-10 -20,-5 
             C -25,0 -25,10 -20,20 
             C -15,25 -5,30 0,25 
             C 5,30 15,25 20,20 
             C 25,10 25,0 20,-5 
             C 15,-10 5,-10 0,0 Z" 
          fill="#4CAF50" />
    <path d="M -15,0 L -15,25 M -5,0 L -5,25 M 5,0 L 5,25 M 15,0 L 15,25" 
          stroke="#388E3C" stroke-width="2" fill="none" />
  </g>
  
  <!-- 5. Clenched fist (withholding) -->
  <g transform="translate(370, 410) rotate(160)">
    <path d="M 0,0 
             C -5,-10 -15,-10 -20,-5 
             C -25,0 -25,10 -20,15 
             C -15,20 -5,20 0,15 
             C 5,20 15,20 20,15 
             C 25,10 25,0 20,-5 
             C 15,-10 5,-10 0,0 Z" 
          fill="#2E7D32" />
    <path d="M -10,0 
             C -10,5 -10,10 -10,15 
             M 0,0 
             C 0,5 0,10 0,15 
             M 10,0 
             C 10,5 10,10 10,15" 
          stroke="#1B5E20" stroke-width="3" fill="none" />
  </g>
  
  <!-- 6. Open hand (giving) -->
  <g transform="translate(290, 425) rotate(190)">
    <path d="M 0,0 
             C -5,-10 -15,-10 -20,-5 
             C -25,0 -25,10 -20,20 
             C -15,25 -5,30 0,25 
             C 5,30 15,25 20,20 
             C 25,10 25,0 20,-5 
             C 15,-10 5,-10 0,0 Z" 
          fill="#4CAF50" />
    <path d="M -15,0 L -15,25 M -5,0 L -5,25 M 5,0 L 5,25 M 15,0 L 15,25" 
          stroke="#388E3C" stroke-width="2" fill="none" />
  </g>
  
  <!-- 7. Clenched fist (withholding) -->
  <g transform="translate(210, 405) rotate(230)">
    <path d="M 0,0 
             C -5,-10 -15,-10 -20,-5 
             C -25,0 -25,10 -20,15 
             C -15,20 -5,20 0,15 
             C 5,20 15,20 20,15 
             C 25,10 25,0 20,-5 
             C 15,-10 5,-10 0,0 Z" 
          fill="#2E7D32" />
    <path d="M -10,0 
             C -10,5 -10,10 -10,15 
             M 0,0 
             C 0,5 0,10 0,15 
             M 10,0 
             C 10,5 10,10 10,15" 
          stroke="#1B5E20" stroke-width="3" fill="none" />
  </g>
  
  <!-- 8. Open hand (giving) -->
  <g transform="translate(160, 340) rotate(270)">
    <path d="M 0,0 
             C -5,-10 -15,-10 -20,-5 
             C -25,0 -25,10 -20,20 
             C -15,25 -5,30 0,25 
             C 5,30 15,25 20,20 
             C 25,10 25,0 20,-5 
             C 15,-10 5,-10 0,0 Z" 
          fill="#4CAF50" />
    <path d="M -15,0 L -15,25 M -5,0 L -5,25 M 5,0 L 5,25 M 15,0 L 15,25" 
          stroke="#388E3C" stroke-width="2" fill="none" />
  </g>
  
  <!-- 9. Clenched fist (withholding) -->
  <g transform="translate(170, 260) rotate(315)">
    <path d="M 0,0 
             C -5,-10 -15,-10 -20,-5 
             C -25,0 -25,10 -20,15 
             C -15,20 -5,20 0,15 
             C 5,20 15,20 20,15 
             C 25,10 25,0 20,-5 
             C 15,-10 5,-10 0,0 Z" 
          fill="#2E7D32" />
    <path d="M -10,0 
             C -10,5 -10,10 -10,15 
             M 0,0 
             C 0,5 0,10 0,15 
             M 10,0 
             C 10,5 10,10 10,15" 
          stroke="#1B5E20" stroke-width="3" fill="none" />
  </g>
  
  <!-- 10. Open hand (giving) -->
  <g transform="translate(230, 200) rotate(345)">
    <path d="M 0,0 
             C -5,-10 -15,-10 -20,-5 
             C -25,0 -25,10 -20,20 
             C -15,25 -5,30 0,25 
             C 5,30 15,25 20,20 
             C 25,10 25,0 20,-5 
             C 15,-10 5,-10 0,0 Z" 
          fill="#4CAF50" />
    <path d="M -15,0 L -15,25 M -5,0 L -5,25 M 5,0 L 5,25 M 15,0 L 15,25" 
          stroke="#388E3C" stroke-width="2" fill="none" />
  </g>
  
  <!-- Light glow from open hands -->
  <g opacity="0.6">
    <radialGradient id="handGlow" cx="50%" cy="50%" r="50%" fx="50%" fy="50%">
      <stop offset="0%" stop-color="#AEEA00" />
      <stop offset="100%" stop-color="#AEEA00" stop-opacity="0" />
    </radialGradient>
    
    <circle cx="300" cy="180" r="30" fill="url(#handGlow)" />
    <circle cx="380" cy="210" r="30" fill="url(#handGlow)" />
    <circle cx="430" cy="350" r="30" fill="url(#handGlow)" />
    <circle cx="290" cy="425" r="30" fill="url(#handGlow)" />
    <circle cx="160" cy="340" r="30" fill="url(#handGlow)" />
    <circle cx="230" cy="200" r="30" fill="url(#handGlow)" />
  </g>
  
  <!-- Shadows from clenched fists -->
  <g opacity="0.7">
    <path d="M 440,270 L 520,320" stroke="#333333" stroke-width="10" opacity="0.3" />
    <path d="M 370,410 L 420,480" stroke="#333333" stroke-width="10" opacity="0.3" />
    <path d="M 210,405 L 160,480" stroke="#333333" stroke-width="10" opacity="0.3" />
    <path d="M 170,260 L 90,220" stroke="#333333" stroke-width="10" opacity="0.3" />
  </g>
  
  <!-- Excluded figure outside the circle -->
  <g transform="translate(520, 400)">
    <!-- Head -->
    <circle cx="0" cy="-30" r="15" fill="#78909C" />
    
    <!-- Body -->
    <path d="M 0,-15 L 0,20" stroke="#78909C" stroke-width="10" stroke-linecap="round" />
    
    <!-- Arms -->
    <path d="M 0,0 L -20,15" stroke="#78909C" stroke-width="8" stroke-linecap="round" />
    <path d="M 0,0 L 20,15" stroke="#78909C" stroke-width="8" stroke-linecap="round" />
    
    <!-- Legs -->
    <path d="M 0,20 L -15,50" stroke="#78909C" stroke-width="10" stroke-linecap="round" />
    <path d="M 0,20 L 15,50" stroke="#78909C" stroke-width="10" stroke-linecap="round" />
  </g>
  
  <!-- Vine-like connections between hands (creating the circle) -->
  <g fill="none" stroke="#66BB6A" stroke-width="3" opacity="0.6">
    <path d="M 300,180 
             C 320,185 360,190 380,210" />
    <path d="M 380,210 
             C 400,230 420,250 440,270" />
    <path d="M 440,270 
             C 450,300 445,330 430,350" />
    <path d="M 430,350 
             C 415,370 390,390 370,410" />
    <path d="M 370,410 
             C 350,420 320,425 290,425" />
    <path d="M 290,425 
             C 260,425 230,420 210,405" />
    <path d="M 210,405 
             C 180,380 165,360 160,340" />
    <path d="M 160,340 
             C 155,310 160,280 170,260" />
    <path d="M 170,260 
             C 180,230 200,210 230,200" />
    <path d="M 230,200 
             C 250,190 280,185 300,180" />
  </g>
</svg>
