<?xml version="1.0" encoding="UTF-8" standalone="no"?>
<svg viewBox="0 0 600 800" xmlns="http://www.w3.org/2000/svg">
  <!-- Background with cloud gradient -->
  <defs>
    <linearGradient id="skyGradient" x1="0%" y1="0%" x2="0%" y2="100%">
      <stop offset="0%" stop-color="#2C3E50" />
      <stop offset="50%" stop-color="#4B6584" />
      <stop offset="100%" stop-color="#7F8C8D" />
    </linearGradient>
    
    <!-- Gold gradient for ladder -->
    <linearGradient id="goldGradient" x1="0%" y1="0%" x2="100%" y2="0%">
      <stop offset="0%" stop-color="#FFD700" />
      <stop offset="50%" stop-color="#FFC000" />
      <stop offset="100%" stop-color="#DAA520" />
    </linearGradient>
    
    <!-- Orange glow for highlights -->
    <radialGradient id="orangeGlow" cx="50%" cy="50%" r="50%" fx="50%" fy="50%">
      <stop offset="0%" stop-color="#FF8C00" />
      <stop offset="100%" stop-color="#FF8C00" stop-opacity="0" />
    </radialGradient>
    
    <!-- Cloud pattern -->
    <filter id="cloudFilter" x="0" y="0" width="100%" height="100%">
      <feTurbulence type="fractalNoise" baseFrequency="0.01" numOctaves="3" seed="1" />
      <feDisplacementMap in="SourceGraphic" scale="20" />
    </filter>
  </defs>
  
  <!-- Sky background -->
  <rect x="0" y="0" width="600" height="800" fill="url(#skyGradient)" />
  
  <!-- Cloud layers with varying opacity -->
  <g id="clouds" opacity="0.7">
    <ellipse cx="150" cy="200" rx="100" ry="40" fill="#E0E0E0" opacity="0.6" filter="url(#cloudFilter)" />
    <ellipse cx="350" cy="300" rx="120" ry="50" fill="#E0E0E0" opacity="0.5" filter="url(#cloudFilter)" />
    <ellipse cx="200" cy="450" rx="150" ry="60" fill="#E0E0E0" opacity="0.7" filter="url(#cloudFilter)" />
    <ellipse cx="450" cy="600" rx="100" ry="40" fill="#E0E0E0" opacity="0.6" filter="url(#cloudFilter)" />
    <ellipse cx="100" cy="650" rx="80" ry="30" fill="#E0E0E0" opacity="0.5" filter="url(#cloudFilter)" />
  </g>
  
  <!-- Golden ladder structure -->
  <g id="ladder">
    <!-- Left side of ladder -->
    <path d="M 200,750 L 200,50" stroke="url(#goldGradient)" stroke-width="12" stroke-linecap="round" />
    
    <!-- Right side of ladder -->
    <path d="M 400,750 L 400,50" stroke="url(#goldGradient)" stroke-width="12" stroke-linecap="round" />
    
    <!-- Rungs with labels -->
    <!-- Innovation Rung -->
    <g transform="translate(0, 650)">
      <rect x="200" y="-10" width="200" height="20" fill="url(#goldGradient)" rx="5" ry="5" />
      <text x="300" y="5" font-family="Arial" font-size="14" font-weight="bold" text-anchor="middle" fill="#333333">Innovation</text>
    </g>
    
    <!-- Merit Rung -->
    <g transform="translate(0, 550)">
      <rect x="200" y="-10" width="200" height="20" fill="url(#goldGradient)" rx="5" ry="5" />
      <text x="300" y="5" font-family="Arial" font-size="14" font-weight="bold" text-anchor="middle" fill="#333333">Merit</text>
    </g>
    
    <!-- Efficiency Rung -->
    <g transform="translate(0, 450)">
      <rect x="200" y="-10" width="200" height="20" fill="url(#goldGradient)" rx="5" ry="5" />
      <text x="300" y="5" font-family="Arial" font-size="14" font-weight="bold" text-anchor="middle" fill="#333333">Efficiency</text>
      
      <!-- Easter egg: "Humility scales" on this rung -->
      <text x="300" y="-15" font-family="serif" font-size="8" text-anchor="middle" fill="#FFFFFF" opacity="0.4">Humility scales</text>
    </g>
    
    <!-- Optimization Rung -->
    <g transform="translate(0, 350)">
      <rect x="200" y="-10" width="200" height="20" fill="url(#goldGradient)" rx="5" ry="5" />
      <text x="300" y="5" font-family="Arial" font-size="14" font-weight="bold" text-anchor="middle" fill="#333333">Optimization</text>
    </g>
    
    <!-- Growth Rung -->
    <g transform="translate(0, 250)">
      <rect x="200" y="-10" width="200" height="20" fill="url(#goldGradient)" rx="5" ry="5" />
      <text x="300" y="5" font-family="Arial" font-size="14" font-weight="bold" text-anchor="middle" fill="#333333">Growth</text>
    </g>
    
    <!-- Disruption Rung -->
    <g transform="translate(0, 150)">
      <rect x="200" y="-10" width="200" height="20" fill="url(#goldGradient)" rx="5" ry="5" />
      <text x="300" y="5" font-family="Arial" font-size="14" font-weight="bold" text-anchor="middle" fill="#333333">Disruption</text>
    </g>
    
    <!-- Missing/broken rungs -->
    <rect x="200" y="40" width="80" height="20" fill="url(#goldGradient)" opacity="0.5" rx="5" ry="5" />
    <rect x="320" y="40" width="80" height="20" fill="url(#goldGradient)" opacity="0.5" rx="5" ry="5" />
  </g>
  
  <!-- Climbing figures -->
  <!-- Successful climber near top -->
  <g transform="translate(300, 170)">
    <!-- Head -->
    <circle cx="0" cy="-15" r="10" fill="#FF8C00" />
    
    <!-- Body -->
    <path d="M 0,-5 L 0,15" stroke="#FF8C00" stroke-width="5" stroke-linecap="round" />
    
    <!-- Arms holding onto ladder -->
    <path d="M 0,0 L -15,5" stroke="#FF8C00" stroke-width="3" stroke-linecap="round" />
    <path d="M 0,0 L 15,5" stroke="#FF8C00" stroke-width="3" stroke-linecap="round" />
    
    <!-- Legs -->
    <path d="M 0,15 L -10,30" stroke="#FF8C00" stroke-width="3" stroke-linecap="round" />
    <path d="M 0,15 L 10,30" stroke="#FF8C00" stroke-width="3" stroke-linecap="round" />
    
    <!-- Orange glow of success -->
    <circle cx="0" cy="0" r="25" fill="url(#orangeGlow)" opacity="0.5" />
  </g>
  
  <!-- Mid-level climber -->
  <g transform="translate(330, 370)">
    <!-- Head -->
    <circle cx="0" cy="-15" r="8" fill="#FF8C00" opacity="0.8" />
    
    <!-- Body -->
    <path d="M 0,-5 L 0,12" stroke="#FF8C00" stroke-width="4" stroke-linecap="round" opacity="0.8" />
    
    <!-- Arms holding onto ladder -->
    <path d="M 0,0 L -12,5" stroke="#FF8C00" stroke-width="3" stroke-linecap="round" opacity="0.8" />
    <path d="M 0,0 L 12,5" stroke="#FF8C00" stroke-width="3" stroke-linecap="round" opacity="0.8" />
    
    <!-- Legs -->
    <path d="M 0,12 L -8,25" stroke="#FF8C00" stroke-width="3" stroke-linecap="round" opacity="0.8" />
    <path d="M 0,12 L 8,25" stroke="#FF8C00" stroke-width="3" stroke-linecap="round" opacity="0.8" />
  </g>
  
  <!-- Lower climber struggling -->
  <g transform="translate(270, 570)">
    <!-- Head -->
    <circle cx="0" cy="-15" r="8" fill="#FF8C00" opacity="0.7" />
    
    <!-- Body -->
    <path d="M 0,-5 L 0,12" stroke="#FF8C00" stroke-width="4" stroke-linecap="round" opacity="0.7" />
    
    <!-- Arms holding onto ladder -->
    <path d="M 0,0 L -12,5" stroke="#FF8C00" stroke-width="3" stroke-linecap="round" opacity="0.7" />
    <path d="M 0,0 L 12,5" stroke="#FF8C00" stroke-width="3" stroke-linecap="round" opacity="0.7" />
    
    <!-- Legs -->
    <path d="M 0,12 L -8,25" stroke="#FF8C00" stroke-width="3" stroke-linecap="round" opacity="0.7" />
    <path d="M 0,12 L 8,25" stroke="#FF8C00" stroke-width="3" stroke-linecap="round" opacity="0.7" />
  </g>
  
  <!-- Falling figures -->
  <!-- Figure falling between efficiency and optimization -->
  <g transform="translate(470, 400) rotate(45)">
    <!-- Head -->
    <circle cx="0" cy="-15" r="8" fill="#505050" opacity="0.7" />
    
    <!-- Body -->
    <path d="M 0,-5 L 0,12" stroke="#505050" stroke-width="4" stroke-linecap="round" opacity="0.7" />
    
    <!-- Arms flailing -->
    <path d="M 0,0 L -15,0" stroke="#505050" stroke-width="3" stroke-linecap="round" opacity="0.7" />
    <path d="M 0,0 L 15,0" stroke="#505050" stroke-width="3" stroke-linecap="round" opacity="0.7" />
    
    <!-- Legs -->
    <path d="M 0,12 L -10,25" stroke="#505050" stroke-width="3" stroke-linecap="round" opacity="0.7" />
    <path d="M 0,12 L 10,25" stroke="#505050" stroke-width="3" stroke-linecap="round" opacity="0.7" />
  </g>
  
  <!-- Figure falling below merit -->
  <g transform="translate(130, 600) rotate(-30)">
    <!-- Head -->
    <circle cx="0" cy="-15" r="8" fill="#505050" opacity="0.6" />
    
    <!-- Body -->
    <path d="M 0,-5 L 0,12" stroke="#505050" stroke-width="4" stroke-linecap="round" opacity="0.6" />
    
    <!-- Arms flailing -->
    <path d="M 0,0 L -15,0" stroke="#505050" stroke-width="3" stroke-linecap="round" opacity="0.6" />
    <path d="M 0,0 L 15,0" stroke="#505050" stroke-width="3" stroke-linecap="round" opacity="0.6" />
    
    <!-- Legs -->
    <path d="M 0,12 L -10,25" stroke="#505050" stroke-width="3" stroke-linecap="round" opacity="0.6" />
    <path d="M 0,12 L 10,25" stroke="#505050" stroke-width="3" stroke-linecap="round" opacity="0.6" />
  </g>
  
  <!-- Figure falling through gap at top -->
  <g transform="translate(290, 80) rotate(120)">
    <!-- Head -->
    <circle cx="0" cy="-15" r="8" fill="#505050" opacity="0.5" />
    
    <!-- Body -->
    <path d="M 0,-5 L 0,12" stroke="#505050" stroke-width="4" stroke-linecap="round" opacity="0.5" />
    
    <!-- Arms flailing -->
    <path d="M 0,0 L -15,0" stroke="#505050" stroke-width="3" stroke-linecap="round" opacity="0.5" />
    <path d="M 0,0 L 15,0" stroke="#505050" stroke-width="3" stroke-linecap="round" opacity="0.5" />
    
    <!-- Legs -->
    <path d="M 0,12 L -10,25" stroke="#505050" stroke-width="3" stroke-linecap="round" opacity="0.5" />
    <path d="M 0,12 L 10,25" stroke="#505050" stroke-width="3" stroke-linecap="round" opacity="0.5" />
  </g>
  
  <!-- Orange glow at the top of ladder -->
  <circle cx="300" cy="50" r="50" fill="url(#orangeGlow)" opacity="0.5" />
  
  <!-- Tech symbols floating around -->
  <g id="techSymbols" opacity="0.7">
    <!-- Graph arrow -->
    <path d="M 150,280 L 180,260 L 170,270 L 190,270 L 180,260 L 190,250" stroke="#FF8C00" stroke-width="2" fill="none" />
    
    <!-- Dollar sign -->
    <text x="450" y="230" font-family="Arial" font-size="24" fill="#FF8C00">$</text>
    
    <!-- Gear -->
    <g transform="translate(120, 500)">
      <circle cx="0" cy="0" r="15" fill="none" stroke="#FF8C00" stroke-width="2" />
      <path d="M 0,-15 L 0,-20 M 11,-11 L 14,-14 M 15,0 L 20,0 M 11,11 L 14,14 M 0,15 L 0,20 M -11,11 L -14,14 M -15,0 L -20,0 M -11,-11 L -14,-14" stroke="#FF8C00" stroke-width="2" />
    </g>
    
    <!-- Binary code -->
    <text x="480" y="480" font-family="monospace" font-size="12" fill="#FF8C00">10110</text>
    <text x="460" y="495" font-family="monospace" font-size="12" fill="#FF8C00">01001</text>
  </g>
  
  <!-- Title at bottom -->
  <text x="300" y="760" font-family="Arial" font-size="20" fill="#FFFFFF" text-anchor="middle">The Ladder of Merit</text>
</svg>
