<?xml version="1.0" encoding="UTF-8" standalone="no"?>
<svg viewBox="0 0 600 700" xmlns="http://www.w3.org/2000/svg">
  <!-- Background -->
  <rect x="0" y="0" width="600" height="700" fill="#111133" />
  
  <!-- Circuit board base -->
  <defs>
    <!-- Circuit pattern -->
    <pattern id="circuitPattern" x="0" y="0" width="100" height="100" patternUnits="userSpaceOnUse">
      <rect width="100" height="100" fill="#111144" />
      <path d="M 10,10 L 10,50 L 50,50 L 50,90" stroke="#1A75FF" stroke-width="1" fill="none" />
      <path d="M 30,10 L 30,30 L 70,30 L 70,70 L 90,70" stroke="#1A75FF" stroke-width="1" fill="none" />
      <path d="M 50,10 L 50,20 L 80,20 L 80,50 L 90,50" stroke="#1A75FF" stroke-width="1" fill="none" />
      <path d="M 70,10 L 70,40 L 90,40" stroke="#1A75FF" stroke-width="1" fill="none" />
      <path d="M 10,30 L 20,30" stroke="#1A75FF" stroke-width="1" fill="none" />
      <path d="M 10,70 L 30,70 L 30,90" stroke="#1A75FF" stroke-width="1" fill="none" />
      <path d="M 10,90 L 20,90" stroke="#1A75FF" stroke-width="1" fill="none" />
      <path d="M 50,90 L 70,90" stroke="#1A75FF" stroke-width="1" fill="none" />
      
      <!-- Circuit nodes -->
      <circle cx="10" cy="10" r="2" fill="#33AAFF" />
      <circle cx="10" cy="50" r="2" fill="#33AAFF" />
      <circle cx="10" cy="30" r="2" fill="#33AAFF" />
      <circle cx="10" cy="70" r="2" fill="#33AAFF" />
      <circle cx="10" cy="90" r="2" fill="#33AAFF" />
      <circle cx="30" cy="10" r="2" fill="#33AAFF" />
      <circle cx="30" cy="30" r="2" fill="#33AAFF" />
      <circle cx="30" cy="70" r="2" fill="#33AAFF" />
      <circle cx="30" cy="90" r="2" fill="#33AAFF" />
      <circle cx="50" cy="10" r="2" fill="#33AAFF" />
      <circle cx="50" cy="20" r="2" fill="#33AAFF" />
      <circle cx="50" cy="50" r="2" fill="#33AAFF" />
      <circle cx="50" cy="90" r="2" fill="#33AAFF" />
      <circle cx="70" cy="10" r="2" fill="#33AAFF" />
      <circle cx="70" cy="30" r="2" fill="#33AAFF" />
      <circle cx="70" cy="40" r="2" fill="#33AAFF" />
      <circle cx="70" cy="70" r="2" fill="#33AAFF" />
      <circle cx="70" cy="90" r="2" fill="#33AAFF" />
      <circle cx="80" cy="20" r="2" fill="#33AAFF" />
      <circle cx="80" cy="50" r="2" fill="#33AAFF" />
      <circle cx="90" cy="40" r="2" fill="#33AAFF" />
      <circle cx="90" cy="50" r="2" fill="#33AAFF" />
      <circle cx="90" cy="70" r="2" fill="#33AAFF" />
      <circle cx="20" cy="30" r="2" fill="#33AAFF" />
      <circle cx="20" cy="90" r="2" fill="#33AAFF" />
    </pattern>
    
    <!-- Data stream gradient -->
    <linearGradient id="dataStreamGradient" x1="0%" y1="0%" x2="0%" y2="100%">
      <stop offset="0%" stop-color="#FFFF00" />
      <stop offset="100%" stop-color="#33AAFF" />
    </linearGradient>
    
    <!-- Tree fractal filter -->
    <filter id="fractalNoise" x="0%" y="0%" width="100%" height="100%">
      <feTurbulence type="fractalNoise" baseFrequency="0.01" numOctaves="2" seed="5" />
      <feDisplacementMap in="SourceGraphic" scale="5" />
    </filter>
  </defs>
  
  <!-- Main circuit board -->
  <rect x="50" y="450" width="500" height="200" fill="url(#circuitPattern)" />
  
  <!-- Easter egg: "Feel the roots" in circuit board -->
  <text x="300" y="500" font-family="monospace" font-size="12" text-anchor="middle" fill="#FFFF33" opacity="0.3">Feel the roots</text>
  
  <!-- Circuit board connectors to roots -->
  <path d="M 150,450 L 150,400" stroke="#33AAFF" stroke-width="2" fill="none" />
  <path d="M 250,450 L 250,410" stroke="#33AAFF" stroke-width="2" fill="none" />
  <path d="M 350,450 L 350,405" stroke="#33AAFF" stroke-width="2" fill="none" />
  <path d="M 450,450 L 450,400" stroke="#33AAFF" stroke-width="2" fill="none" />
  
  <!-- Tree roots -->
  <g id="roots" transform="translate(300, 400)">
    <!-- Main roots -->
    <path d="M -150,0 
             C -170,20 -180,40 -190,60 
             C -200,80 -210,100 -220,120" 
          fill="none" stroke="#8B4513" stroke-width="8" filter="url(#fractalNoise)" />
    
    <path d="M -50,10 
             C -60,30 -65,50 -70,70 
             C -75,90 -80,110 -85,130" 
          fill="none" stroke="#8B4513" stroke-width="6" filter="url(#fractalNoise)" />
    
    <path d="M 50,5 
             C 60,25 65,45 70,65 
             C 75,85 80,105 85,125" 
          fill="none" stroke="#8B4513" stroke-width="6" filter="url(#fractalNoise)" />
    
    <path d="M 150,0 
             C 170,20 180,40 190,60 
             C 200,80 210,100 220,120" 
          fill="none" stroke="#8B4513" stroke-width="8" filter="url(#fractalNoise)" />
    
    <!-- Secondary roots -->
    <path d="M -190,60 
             C -195,70 -200,80 -205,90" 
          fill="none" stroke="#8B4513" stroke-width="4" filter="url(#fractalNoise)" />
    
    <path d="M -190,60 
             C -185,70 -180,80 -175,90" 
          fill="none" stroke="#8B4513" stroke-width="4" filter="url(#fractalNoise)" />
    
    <path d="M -70,70 
             C -75,80 -80,90 -85,100" 
          fill="none" stroke="#8B4513" stroke-width="3" filter="url(#fractalNoise)" />
    
    <path d="M -70,70 
             C -65,80 -60,90 -55,100" 
          fill="none" stroke="#8B4513" stroke-width="3" filter="url(#fractalNoise)" />
    
    <path d="M 70,65 
             C 75,75 80,85 85,95" 
          fill="none" stroke="#8B4513" stroke-width="3" filter="url(#fractalNoise)" />
    
    <path d="M 70,65 
             C 65,75 60,85 55,95" 
          fill="none" stroke="#8B4513" stroke-width="3" filter="url(#fractalNoise)" />
    
    <path d="M 190,60 
             C 195,70 200,80 205,90" 
          fill="none" stroke="#8B4513" stroke-width="4" filter="url(#fractalNoise)" />
    
    <path d="M 190,60 
             C 185,70 180,80 175,90" 
          fill="none" stroke="#8B4513" stroke-width="4" filter="url(#fractalNoise)" />
    
    <!-- Root label: "tradition" -->
    <text x="0" y="100" font-family="Arial" font-size="24" font-weight="bold" text-anchor="middle" fill="#8B4513">tradition</text>
  </g>
  
  <!-- Tree trunk -->
  <path d="M 300,400 L 300,200" stroke="#8B4513" stroke-width="20" fill="none" />
  
  <!-- Fractal branches -->
  <g id="branches" transform="translate(300, 200)">
    <!-- Main branches -->
    <path d="M 0,0 
             C -30,-30 -60,-40 -90,-50 
             C -120,-60 -150,-70 -180,-80" 
          fill="none" stroke="#8B4513" stroke-width="8" filter="url(#fractalNoise)" />
    
    <path d="M 0,0 
             C -10,-40 -15,-80 -20,-120" 
          fill="none" stroke="#8B4513" stroke-width="10" filter="url(#fractalNoise)" />
    
    <path d="M 0,0 
             C 10,-40 15,-80 20,-120" 
          fill="none" stroke="#8B4513" stroke-width="10" filter="url(#fractalNoise)" />
    
    <path d="M 0,0 
             C 30,-30 60,-40 90,-50 
             C 120,-60 150,-70 180,-80" 
          fill="none" stroke="#8B4513" stroke-width="8" filter="url(#fractalNoise)" />
    
    <!-- Secondary branches -->
    <path d="M -90,-50 
             C -100,-55 -110,-60 -120,-65" 
          fill="none" stroke="#8B4513" stroke-width="4" filter="url(#fractalNoise)" />
    
    <path d="M -90,-50 
             C -95,-60 -100,-70 -105,-80" 
          fill="none" stroke="#8B4513" stroke-width="4" filter="url(#fractalNoise)" />
    
    <path d="M -20,-120 
             C -25,-130 -30,-140 -35,-150" 
          fill="none" stroke="#8B4513" stroke-width="5" filter="url(#fractalNoise)" />
    
    <path d="M -20,-120 
             C -15,-130 -10,-140 -5,-150" 
          fill="none" stroke="#8B4513" stroke-width="5" filter="url(#fractalNoise)" />
    
    <path d="M 20,-120 
             C 25,-130 30,-140 35,-150" 
          fill="none" stroke="#8B4513" stroke-width="5" filter="url(#fractalNoise)" />
    
    <path d="M 20,-120 
             C 15,-130 10,-140 5,-150" 
          fill="none" stroke="#8B4513" stroke-width="5" filter="url(#fractalNoise)" />
    
    <path d="M 90,-50 
             C 100,-55 110,-60 120,-65" 
          fill="none" stroke="#8B4513" stroke-width="4" filter="url(#fractalNoise)" />
    
    <path d="M 90,-50 
             C 95,-60 100,-70 105,-80" 
          fill="none" stroke="#8B4513" stroke-width="4" filter="url(#fractalNoise)" />
    
    <!-- Tertiary branches (more fractal) -->
    <path d="M -120,-65 
             C -125,-70 -130,-75 -135,-80" 
          fill="none" stroke="#8B4513" stroke-width="2" filter="url(#fractalNoise)" />
    
    <path d="M -120,-65 
             C -123,-68 -126,-72 -130,-75" 
          fill="none" stroke="#8B4513" stroke-width="2" filter="url(#fractalNoise)" />
    
    <path d="M -105,-80 
             C -107,-85 -109,-90 -111,-95" 
          fill="none" stroke="#8B4513" stroke-width="2" filter="url(#fractalNoise)" />
    
    <path d="M -105,-80 
             C -102,-85 -99,-90 -96,-95" 
          fill="none" stroke="#8B4513" stroke-width="2" filter="url(#fractalNoise)" />
    
    <path d="M -35,-150 
             C -37,-155 -39,-160 -41,-165" 
          fill="none" stroke="#8B4513" stroke-width="2" filter="url(#fractalNoise)" />
    
    <path d="M -35,-150 
             C -32,-155 -29,-160 -26,-165" 
          fill="none" stroke="#8B4513" stroke-width="2" filter="url(#fractalNoise)" />
    
    <path d="M -5,-150 
             C -7,-155 -9,-160 -11,-165" 
          fill="none" stroke="#8B4513" stroke-width="2" filter="url(#fractalNoise)" />
    
    <path d="M -5,-150 
             C -2,-155 1,-160 4,-165" 
          fill="none" stroke="#8B4513" stroke-width="2" filter="url(#fractalNoise)" />
    
    <path d="M 35,-150 
             C 37,-155 39,-160 41,-165" 
          fill="none" stroke="#8B4513" stroke-width="2" filter="url(#fractalNoise)" />
    
    <path d="M 35,-150 
             C 32,-155 29,-160 26,-165" 
          fill="none" stroke="#8B4513" stroke-width="2" filter="url(#fractalNoise)" />
    
    <path d="M 5,-150 
             C 7,-155 9,-160 11,-165" 
          fill="none" stroke="#8B4513" stroke-width="2" filter="url(#fractalNoise)" />
    
    <path d="M 5,-150 
             C 2,-155 -1,-160 -4,-165" 
          fill="none" stroke="#8B4513" stroke-width="2" filter="url(#fractalNoise)" />
    
    <path d="M 120,-65 
             C 125,-70 130,-75 135,-80" 
          fill="none" stroke="#8B4513" stroke-width="2" filter="url(#fractalNoise)" />
    
    <path d="M 120,-65 
             C 123,-68 126,-72 130,-75" 
          fill="none" stroke="#8B4513" stroke-width="2" filter="url(#fractalNoise)" />
    
    <path d="M 105,-80 
             C 107,-85 109,-90 111,-95" 
          fill="none" stroke="#8B4513" stroke-width="2" filter="url(#fractalNoise)" />
    
    <path d="M 105,-80 
             C 102,-85 99,-90 96,-95" 
          fill="none" stroke="#8B4513" stroke-width="2" filter="url(#fractalNoise)" />
    
    <!-- Branch label: "innovation" -->
    <text x="0" y="-60" font-family="Arial" font-size="24" font-weight="bold" text-anchor="middle" fill="#8B4513">innovation</text>
  </g>
  
  <!-- Leaves/foliage as fractal patterns -->
  <g id="foliage">
    <circle cx="170" cy="120" r="15" fill="#FFFF66" opacity="0.7" filter="url(#fractalNoise)" />
    <circle cx="120" cy="100" r="10" fill="#FFFF66" opacity="0.7" filter="url(#fractalNoise)" />
    <circle cx="220" cy="135" r="12" fill="#FFFF66" opacity="0.7" filter="url(#fractalNoise)" />
    
    <circle cx="300" cy="80" r="18" fill="#FFFF66" opacity="0.8" filter="url(#fractalNoise)" />
    <circle cx="260" cy="65" r="12" fill="#FFFF66" opacity="0.7" filter="url(#fractalNoise)" />
    <circle cx="340" cy="65" r="12" fill="#FFFF66" opacity="0.7" filter="url(#fractalNoise)" />
    
    <circle cx="430" cy="120" r="15" fill="#FFFF66" opacity="0.7" filter="url(#fractalNoise)" />
    <circle cx="380" cy="100" r="10" fill="#FFFF66" opacity="0.7" filter="url(#fractalNoise)" />
    <circle cx="480" cy="135" r="12" fill="#FFFF66" opacity="0.7" filter="url(#fractalNoise)" />
  </g>
  
  <!-- Data streams connecting roots to branches -->
  <g id="dataStreams" opacity="0.8">
    <!-- Left data stream -->
    <path d="M 150,400 
             C 150,350 120,300 120,250 
             C 120,200 150,150 150,100" 
          fill="none" stroke="url(#dataStreamGradient)" stroke-width="3" stroke-dasharray="5,3">
      <animate attributeName="stroke-dashoffset" from="0" to="40" dur="3s" repeatCount="indefinite" />
    </path>
    
    <!-- Left-center data stream -->
    <path d="M 250,410 
             C 250,360 230,310 230,260 
             C 230,210 250,160 250,110" 
          fill="none" stroke="url(#dataStreamGradient)" stroke-width="3" stroke-dasharray="5,3">
      <animate attributeName="stroke-dashoffset" from="0" to="40" dur="4s" repeatCount="indefinite" />
    </path>
    
    <!-- Right-center data stream -->
    <path d="M 350,405 
             C 350,355 370,305 370,255 
             C 370,205 350,155 350,105" 
          fill="none" stroke="url(#dataStreamGradient)" stroke-width="3" stroke-dasharray="5,3">
      <animate attributeName="stroke-dashoffset" from="0" to="40" dur="3.5s" repeatCount="indefinite" />
    </path>
    
    <!-- Right data stream -->
    <path d="M 450,400 
             C 450,350 480,300 480,250 
             C 480,200 450,150 450,100" 
          fill="none" stroke="url(#dataStreamGradient)" stroke-width="3" stroke-dasharray="5,3">
      <animate attributeName="stroke-dashoffset" from="0" to="40" dur="4.5s" repeatCount="indefinite" />
    </path>
  </g>
  
  <!-- Circuit nodes on tree connection points -->
  <circle cx="150" cy="400" r="5" fill="#33AAFF" />
  <circle cx="250" cy="410" r="5" fill="#33AAFF" />
  <circle cx="350" cy="405" r="5" fill="#33AAFF" />
  <circle cx="450" cy="400" r="5" fill="#33AAFF" />
  
  <circle cx="150" cy="100" r="5" fill="#FFFF33" />
  <circle cx="250" cy="110" r="5" fill="#FFFF33" />
  <circle cx="350" cy="105" r="5" fill="#FFFF33" />
  <circle cx="450" cy="100" r="5" fill="#FFFF33" />
  
  <!-- Title -->
  <text x="300" y="650" font-family="Arial" font-size="24" font-weight="bold" text-anchor="middle" fill="#FFFFFF">Dynamic Systems Ethics</text>
</svg>
